<svg width="190" height="134" viewBox="0 0 190 134" fill="none" xmlns="http://www.w3.org/2000/svg">
<path d="M94.5022 112.393C118.953 112.393 138.775 91.5799 138.775 65.9056C138.775 40.2313 118.953 19.4182 94.5022 19.4182C70.0512 19.4182 50.2297 40.2313 50.2297 65.9056C50.2297 91.5799 70.0512 112.393 94.5022 112.393Z" fill="#B4F9AD"/>
<path d="M89.8168 74.4762C86.4979 71.6496 83.5781 68.357 81.1649 64.7276C80.5198 63.7551 79.8866 62.6799 79.9439 61.5139C80.0108 60.0922 81.0693 58.9429 81.724 57.679C82.902 55.4019 82.7682 52.6231 81.9367 50.1979C81.1052 47.7727 79.6429 45.6198 78.1973 43.5005C77.502 42.4826 76.7685 41.4265 75.6909 40.8292C73.9729 39.8758 71.7245 40.3489 70.1762 41.5579C68.6279 42.7669 67.6698 44.5805 66.9745 46.4179C63.7058 55.0578 65.5026 65.0979 70.3674 72.9494C75.2321 80.8008 82.8661 86.6356 91.1333 90.7573C93.5752 91.9759 96.1103 93.0678 98.7912 93.5672C102.473 94.2553 106.299 93.7966 109.887 92.7309C112.967 91.8158 115.964 90.418 118.31 88.2222C120.654 86.024 122.291 82.9512 122.295 79.7375C122.295 78.6934 122.109 77.6038 121.476 76.7724C120.209 75.1165 111.073 71.6615 110.738 72.321C109.073 75.6063 105.782 78.0172 102.146 78.6169C98.5093 79.2167 91.9385 75.8907 91.9385 75.8907L89.8168 74.4762Z" fill="white"/>
<path d="M59.7154 93.8944L53.2976 111.356L69.4377 101.54L59.7154 93.8944Z" fill="#B4F9AD"/>
<path d="M92.8296 72.7679C90.285 70.5959 87.9553 68.1564 85.9363 65.4851C85.4274 64.8113 84.9376 64.1256 84.4645 63.4255C84.0392 62.7947 83.5852 62.1424 83.3391 61.416C83.093 60.6896 83.1193 60.0182 83.4108 59.3277C83.7023 58.6372 84.1395 58.047 84.5146 57.421C86.2708 54.5036 86.0534 50.9673 84.7894 47.9066C84.1252 46.2961 83.2363 44.8052 82.2782 43.3572C81.8194 42.6643 81.3559 41.969 80.8733 41.2928C80.3906 40.6166 79.8984 39.9954 79.2628 39.4936C78.0012 38.4949 76.429 38.2105 74.8688 38.545C73.3085 38.8795 71.9968 39.7947 71.0076 40.987C70.0184 42.1793 69.2753 43.6965 68.7162 45.209C68.1571 46.7214 67.7891 48.1407 67.5263 49.6532C66.4343 55.9587 67.555 62.4841 70.1976 68.2735C72.7733 73.9172 76.8902 78.7819 81.6546 82.71C84.0439 84.6788 86.6006 86.4446 89.2695 88.0096C92.1104 89.675 95.0947 91.24 98.22 92.2961C101.704 93.4693 105.345 93.6509 108.96 93.0583C112.229 92.5231 115.529 91.4551 118.374 89.7371C121.22 88.0192 123.409 85.7182 124.649 82.7339C125.767 80.0435 126.259 75.9051 123.402 74.1083C122.224 73.3676 120.797 73.1884 119.452 72.9829C117.944 72.7511 116.496 72.376 115.144 71.6497C114.468 71.2865 113.818 70.8636 113.228 70.3713C113.005 70.1874 112.759 69.9652 112.611 69.7621C112.513 69.6259 112.422 69.4777 112.355 69.3248C112.394 69.4156 112.308 69.1767 112.312 69.1958C112.308 69.1814 112.265 68.9664 112.279 69.0883C112.272 69.0214 112.267 68.9401 112.279 68.8732C112.26 68.9879 112.36 68.8374 112.279 68.9043L112.315 68.8445C112.274 68.8947 112.284 68.8852 112.344 68.8206L112.317 68.8398C112.394 68.7991 112.399 68.792 112.334 68.8206L112.401 68.8015C112.322 68.8063 112.327 68.8063 112.415 68.8015C112.561 68.7776 112.36 68.7657 112.504 68.8111C112.719 68.8828 112.446 68.7729 112.571 68.8278C112.594 68.8398 112.778 68.9545 112.707 68.8971C112.848 69.0046 112.86 69.0237 112.927 69.1528C112.998 69.289 112.941 69.0787 112.97 69.2866C112.989 69.4204 112.991 69.3702 112.996 69.5064C113.008 69.8696 112.872 70.2447 112.719 70.5649C111.553 73.0331 109.364 75.0402 106.858 76.0485C104.146 77.1404 101.116 77.0878 98.4231 75.9553C97.1544 75.4225 95.9908 74.6531 95.0063 73.6949C94.3445 73.0522 93.329 74.0653 93.9932 74.708C96.2177 76.8704 99.2307 78.1344 102.325 78.2658C105.419 78.3972 108.217 77.3507 110.552 75.5085C111.691 74.6077 112.673 73.4942 113.433 72.2566C114.193 71.0189 115.106 68.9951 113.667 67.8362C113.07 67.356 112.205 67.1744 111.543 67.6427C110.881 68.111 110.716 68.9736 110.994 69.7262C111.271 70.4789 111.777 71.026 112.379 71.5111C113.022 72.0296 113.703 72.4979 114.432 72.8873C115.811 73.6257 117.285 74.082 118.824 74.3257C120.119 74.5312 121.566 74.6555 122.656 75.3269C123.143 75.6279 123.571 76.1034 123.801 76.6984C124.071 77.4056 124.114 78.1726 124.082 78.9205C124.023 80.3565 123.602 81.7782 122.945 83.0565C121.502 85.8544 119.041 87.8854 116.257 89.2736C114.86 89.9713 113.388 90.5041 111.887 90.9342C110.181 91.4216 108.432 91.7729 106.664 91.9091C104.896 92.0452 103.121 91.9903 101.386 91.6558C99.6513 91.3213 98.0814 90.7837 96.5164 90.1123C93.5703 88.8459 90.7246 87.2856 88.0222 85.5605C82.9353 82.3158 78.276 78.261 74.778 73.315C71.1916 68.2424 68.8906 62.2212 68.5848 55.9874C68.4342 52.9171 68.7664 49.8372 69.6695 46.8959C70.4843 44.2461 71.8224 41.0228 74.6872 40.0838C75.9607 39.6656 77.3394 39.7397 78.4074 40.6286C78.9881 41.1112 79.442 41.7205 79.8697 42.337C80.35 43.0299 80.8255 43.73 81.2866 44.4372C83.05 47.142 84.6222 50.1693 84.3474 53.4977C84.2877 54.2336 84.1156 54.9767 83.8313 55.66C83.5326 56.3792 83.0763 57.022 82.6748 57.6838C82.2734 58.3457 81.9079 59.0649 81.7884 59.839C81.6546 60.7159 81.8314 61.5474 82.1826 62.3526C82.5339 63.1579 82.9974 63.8125 83.4705 64.4983C83.9436 65.184 84.4454 65.8746 84.9591 66.5436C86.0032 67.9031 87.1143 69.2077 88.297 70.4502C89.4128 71.621 90.5908 72.732 91.8213 73.781C92.1152 74.0318 92.5453 74.0701 92.8344 73.781C93.0925 73.5229 93.1307 73.0188 92.8344 72.7679H92.8296Z" fill="#002EA4"/>
<path d="M94.5024 117.165C84.3429 117.165 75.7627 114.357 68.272 108.582C66.1431 106.94 63.111 107.005 61.0633 108.735L60.9534 108.828C60.7049 109.043 60.3274 109.017 60.11 108.768C59.8949 108.52 59.9212 108.142 60.1697 107.925L60.2916 107.822C62.7669 105.731 66.4298 105.653 69.0008 107.636C76.274 113.244 84.6153 115.97 94.5024 115.97C120.53 115.97 141.704 93.9137 141.704 66.8039C141.704 39.6942 120.53 17.638 94.5024 17.638C68.4751 17.638 47.2982 39.6942 47.2982 66.8039C47.2982 77.623 50.6075 87.8853 56.8652 96.4846C57.2045 96.843 58.6501 98.7306 56.0361 102.747C55.8569 103.024 55.4865 103.101 55.2094 102.922C54.9322 102.742 54.8558 102.372 55.035 102.095C57.2881 98.6303 56.017 97.3233 56.0026 97.3089C55.9692 97.2803 55.9501 97.2588 55.9262 97.2229C49.4988 88.4133 46.1035 77.893 46.1035 66.8039C46.1035 39.0348 67.8133 16.4434 94.5 16.4434C121.187 16.4434 142.897 39.0348 142.897 66.8039C142.897 94.5731 121.187 117.165 94.5 117.165H94.5024Z" fill="#002EA4"/>
<path d="M94.5024 126.643C84.6941 126.643 76.1425 122.727 67.8729 118.937C66.1239 118.137 64.3176 117.308 62.5327 116.534C59.945 115.411 54.1604 114.99 48.8154 115.588C47.3961 118.094 45.2027 120.113 42.2685 121.609C42.259 121.613 42.247 121.618 42.2351 121.623C42.0392 121.709 40.2806 122.44 39.1002 121.709C38.7012 121.463 38.2162 120.947 38.1636 119.896C38.0943 118.546 39.8242 116.515 42.7345 115.592C44.2923 115.098 46.1226 114.727 48.0508 114.479C48.4188 113.755 48.7174 112.99 48.9516 112.185C50.0626 108.333 49.3888 104.145 47.1046 100.69C40.4932 90.6999 37 78.9801 37 66.8039C37 50.8239 42.9782 35.7995 53.8331 24.5002C64.6951 13.1938 79.1388 6.96472 94.5 6.96472C109.864 6.96472 124.307 13.1914 135.167 24.5002C146.022 35.8019 152 50.8239 152 66.8039C152 82.784 146.022 97.8059 135.167 109.108C124.305 120.414 109.864 126.643 94.5 126.643H94.5024ZM63.0082 115.437C64.8026 116.216 66.6161 117.047 68.3699 117.85C76.5224 121.585 84.9545 125.446 94.5 125.446C125.547 125.446 150.808 99.1391 150.808 66.8015C150.808 34.4639 125.55 8.1594 94.5024 8.1594C63.455 8.1594 38.1947 34.4663 38.1947 66.8039C38.1947 78.7459 41.6186 90.2364 48.0986 100.033C50.5764 103.779 51.3051 108.331 50.0961 112.52C49.9169 113.146 49.6995 113.748 49.4438 114.328C54.5953 113.836 60.1434 114.199 63.0058 115.442L63.0082 115.437ZM47.2814 115.788C45.7929 116.015 44.3688 116.328 43.0929 116.732C40.5769 117.53 39.3201 119.176 39.3535 119.836C39.387 120.481 39.6402 120.641 39.7263 120.694C40.2686 121.03 41.3725 120.691 41.7405 120.536C44.1299 119.315 45.9816 117.726 47.2814 115.788Z" fill="#002EA4"/>
</svg>
