<svg width="104" height="36" viewBox="0 0 104 36" fill="none" xmlns="http://www.w3.org/2000/svg">
<path d="M15.7574 9.43433L19.3747 16.8011C19.5854 17.2296 20.0188 17.5004 20.494 17.5004H28.0298C29.1466 17.5004 29.7 18.862 28.9041 19.6474L23.3226 25.1725C23.0312 25.4606 22.899 25.8742 22.9675 26.278L24.3709 34.4992C24.5447 35.5235 23.4769 36.304 22.561 35.8214L15.2211 31.941C14.8586 31.749 14.4227 31.749 14.0602 31.941L6.72035 35.8214C5.80439 36.304 4.7366 35.5235 4.91048 34.4992L6.3138 26.278C6.38238 25.8742 6.25013 25.4606 5.95869 25.1725L0.374789 19.6499C-0.421161 18.862 0.134779 17.5029 1.24911 17.5029H8.78492C9.26004 17.5029 9.69353 17.232 9.90415 16.8036L13.5214 9.43679C13.9794 8.50609 15.3019 8.50609 15.7574 9.43679V9.43433Z" fill="#FFB600"/>
<path d="M26.7662 0.354023L28.5819 4.08434C28.6875 4.30122 28.9038 4.439 29.1427 4.439H32.9248C33.4856 4.439 33.7622 5.12791 33.3649 5.52594L30.5635 8.3224C30.4176 8.46784 30.3523 8.67706 30.385 8.88118L31.0891 13.0453C31.1771 13.5632 30.6389 13.9587 30.1813 13.7138L26.4972 11.7491C26.3136 11.6521 26.0973 11.6521 25.9137 11.7491L22.2297 13.7138C21.7695 13.9587 21.2338 13.5632 21.3218 13.0453L22.026 8.88118C22.0612 8.67706 21.9933 8.46784 21.8474 8.3224L19.046 5.52594C18.6462 5.12791 18.9253 4.439 19.4861 4.439H23.2682C23.5071 4.439 23.7234 4.30122 23.829 4.08434L25.6447 0.354023C25.8735 -0.118008 26.5374 -0.118008 26.7662 0.354023Z" fill="#FFB600"/>
<path d="M48.223 32.1008C48.223 33.1324 47.7267 33.774 46.9282 33.774C46.4987 33.774 45.929 33.6223 45.929 32.3088V28.1431H43.5939V33.0089C43.5939 35.2132 44.8931 35.9978 46.1102 35.9978C47.0684 35.9978 47.8411 35.5686 48.2792 34.823L48.2123 35.82H50.5538V28.1431H48.2187V32.1008H48.223Z" fill="#EC3A0E"/>
<path d="M56.2424 27.9648C55.295 27.9648 54.4814 28.4222 54.026 29.1699L54.0951 28.1426H51.7535V35.8195H54.0886V31.8619C54.0886 30.776 54.8094 30.1886 55.4871 30.1886C56.0806 30.1886 56.6784 30.6416 56.6784 31.6538V35.8195H59.0135V31.1033C59.0135 28.9467 57.5783 27.9648 56.2446 27.9648H56.2424Z" fill="#EC3A0E"/>
<path d="M64.7525 33.6355C64.364 33.8154 64.036 33.9086 63.777 33.9086C63.149 33.9086 63.0152 33.3234 63.0152 32.8314V30.1611H64.4697V28.1454H62.9332L63.0216 26.4028H60.6822V28.1454H59.5104V30.1611H60.6822V33.0113C60.6822 34.8557 61.7095 36.0001 63.3626 36.0001C63.9647 36.0001 64.6143 35.8462 65.292 35.5428L65.3805 35.5038L64.8755 33.5791L64.7525 33.6377V33.6355Z" fill="#EC3A0E"/>
<path d="M69.5758 27.9648C66.9688 27.9648 65.6049 29.9849 65.6049 31.9811C65.6049 33.9772 66.9688 35.9973 69.5758 35.9973C72.1828 35.9973 73.5014 33.9772 73.5014 31.9811C73.5014 29.9849 72.1526 27.9648 69.5758 27.9648ZM69.5607 30.1908C70.6635 30.1908 71.1663 31.1206 71.1663 31.9832C71.1663 32.8459 70.6635 33.7757 69.5607 33.7757C68.4579 33.7757 67.9399 32.8459 67.9399 31.9832C67.9399 31.1206 68.4471 30.1908 69.5607 30.1908Z" fill="#EC3A0E"/>
<path d="M77.5932 30.7846C77.1379 30.6503 76.5703 30.4834 76.5703 30.3425C76.5703 30.2493 76.8552 30.0694 77.3753 30.0694C77.6817 30.0694 78.45 30.1388 78.9939 30.789L79.0651 30.8735L80.6448 29.6207L80.5822 29.5319C79.883 28.5349 78.737 27.9648 77.4335 27.9648C75.8819 27.9648 74.2352 28.8665 74.2352 30.5376C74.2352 32.3148 76.1128 32.8415 77.3558 33.1905C77.8026 33.3162 78.3594 33.4722 78.3594 33.6066C78.3594 33.6998 78.0378 33.8797 77.4508 33.8797C76.8638 33.8797 76.0696 33.7063 75.4653 32.8827L75.3898 32.7808L73.8705 34.1723L73.9309 34.2547C74.7251 35.347 76.0415 35.9994 77.4486 35.9994C79.0608 35.9994 80.6923 35.126 80.6923 33.4571C80.6923 31.6993 78.8255 31.1509 77.5911 30.7868L77.5932 30.7846Z" fill="#EC3A0E"/>
<path d="M39.0683 25.3726H35.2161L35.2312 35.8195H37.6094V32.7504H39.0683C40.838 32.7504 42.7263 31.7816 42.7263 29.0615C42.7263 26.8204 41.2912 25.3726 39.0683 25.3726ZM39.6057 30.596C39.0251 30.596 38.5482 30.3901 38.1727 29.9783C37.7972 29.5665 37.6094 29.0008 37.6094 28.2812V27.5356C39.7589 27.7415 40.8337 28.3918 40.8337 29.4885C40.8337 30.2254 40.4236 30.5939 39.6057 30.5939V30.596Z" fill="#EC3A0E"/>
<g clip-path="url(#clip0_722_6793)">
<g clip-path="url(#clip1_722_6793)">
<path d="M36.7942 11.8802C36.5874 11.8842 36.3818 11.8471 36.1899 11.7712C35.9979 11.6952 35.8234 11.582 35.6768 11.4381C35.5308 11.2952 35.415 11.1253 35.3359 10.9381C35.2569 10.751 35.2162 10.5502 35.2162 10.3475C35.2162 10.1448 35.2569 9.94408 35.3359 9.75691C35.415 9.56974 35.5308 9.39982 35.6768 9.25692C35.8233 9.113 35.9978 8.99963 36.1898 8.92357C36.3818 8.84752 36.5874 8.81033 36.7942 8.81424C36.9978 8.81174 37.1997 8.84965 37.388 8.92571C37.5764 9.00176 37.7472 9.11441 37.8904 9.25692C38.0363 9.39982 38.1522 9.56974 38.2312 9.75691C38.3103 9.94408 38.351 10.1448 38.351 10.3475C38.351 10.5502 38.3103 10.751 38.2312 10.9381C38.1522 11.1253 38.0363 11.2952 37.8904 11.4381C37.7472 11.5806 37.5763 11.6931 37.388 11.769C37.1997 11.845 36.9977 11.8828 36.7942 11.8802V11.8802ZM35.4794 23.177V13.0118H38.1097V23.1737L35.4794 23.177Z" fill="#EC3A0E"/>
<path d="M40.2122 23.1742V13.0123H42.8211V14.6208C43.0838 14.0884 43.5112 13.6601 44.1032 13.3361C44.6953 13.0121 45.3858 12.8501 46.1748 12.8501C47.4896 12.8501 48.5161 13.2387 49.2544 14.0159C49.9927 14.7931 50.3617 15.8584 50.3612 17.2119V23.1742H47.7309V17.5816C47.7309 16.8333 47.5227 16.2422 47.1062 15.8083C46.6897 15.3744 46.1161 15.1585 45.3854 15.1607C44.64 15.1607 44.0263 15.3945 43.5445 15.8622C43.0627 16.3298 42.8215 16.938 42.8211 17.6867V23.1742H40.2122Z" fill="#EC3A0E"/>
<path d="M61.8275 18.8552V13.0098H64.4798V18.6372C64.4798 19.4577 64.6989 20.0694 65.1372 20.4722C65.5755 20.8751 66.16 21.0767 66.8907 21.0771C67.6215 21.0771 68.2062 20.872 68.6449 20.4617C69.0836 20.0515 69.3027 19.436 69.3023 18.6155V13.0124H71.9546V18.7922C71.9546 20.3032 71.4723 21.4583 70.5078 22.2574C69.5432 23.0565 68.3304 23.4561 66.8694 23.4561C65.4079 23.4561 64.2022 23.0602 63.2523 22.2686C62.3025 21.4769 61.8275 20.3391 61.8275 18.8552Z" fill="#EC3A0E"/>
<path d="M73.9266 23.1742V13.0123H76.5349V14.5886C76.7706 14.0543 77.169 13.6054 77.675 13.3039C78.2013 12.9803 78.8151 12.8183 79.5166 12.8179C81.0216 12.8179 82.0517 13.4515 82.6069 14.7186C83.2349 13.4515 84.4406 12.8179 86.2239 12.8179C87.4369 12.8179 88.3795 13.2067 89.0516 13.9843C89.7236 14.762 90.0599 15.8273 90.0603 17.1803V23.1761H87.4294V17.5448C87.4294 16.7965 87.2578 16.2054 86.9147 15.7715C86.5715 15.3375 86.0855 15.1215 85.4565 15.1232C85.156 15.1155 84.8577 15.175 84.5839 15.2972C84.3101 15.4193 84.068 15.601 83.8757 15.8286C83.4663 16.2962 83.2618 16.9044 83.2623 17.6532V23.1742H80.6533V17.5448C80.6533 16.7965 80.4818 16.2054 80.1386 15.7715C79.7955 15.3375 79.3094 15.1215 78.6805 15.1232C78.0671 15.1232 77.5559 15.3608 77.147 15.8358C76.738 16.3109 76.5334 16.9156 76.5329 17.6499V23.1709L73.9266 23.1742Z" fill="#EC3A0E"/>
<path d="M93.0861 21.8983C92.0757 20.8754 91.571 19.61 91.5719 18.102C91.5728 16.594 92.0775 15.3319 93.0861 14.3156C94.0955 13.2989 95.3452 12.7905 96.8351 12.7905C97.6836 12.7905 98.4077 12.9521 99.0073 13.2752C99.607 13.5984 100.004 14.0023 100.197 14.487V13.0125H102.704V20.1216C102.704 20.5525 102.763 20.859 102.882 21.0412C103 21.2233 103.199 21.3142 103.476 21.3137C103.651 21.3123 103.826 21.2987 103.999 21.273V23.2302C103.72 23.338 103.31 23.3918 102.766 23.3918C102.168 23.3918 101.681 23.2841 101.305 23.0687C101.084 22.9319 100.894 22.7521 100.747 22.5401C100.599 22.3282 100.498 22.0887 100.448 21.8365C99.7103 22.9005 98.506 23.4323 96.8351 23.4319C95.3452 23.4328 94.0955 22.9216 93.0861 21.8983ZM94.9803 15.9149C94.3975 16.4986 94.1064 17.2276 94.1068 18.102C94.1073 18.9764 94.3984 19.7052 94.9803 20.2885C95.563 20.8726 96.2928 21.1642 97.1698 21.1633C98.0588 21.1633 98.8093 20.8717 99.4214 20.2885C100.033 19.7052 100.338 18.9764 100.336 18.102C100.336 17.2263 100.031 16.4972 99.4214 15.9149C98.8115 15.3325 98.061 15.0409 97.1698 15.04C96.2924 15.04 95.5625 15.3317 94.9803 15.9149V15.9149Z" fill="#EC3A0E"/>
<path d="M59.3913 22.4082C57.5304 24.0778 53.6574 23.6995 52.2186 21.6785C52.1212 21.5426 52.0452 21.3928 51.9365 21.2082C52.5473 20.8766 53.1613 20.4674 53.8034 20.1147C54.4381 21.1964 55.4362 21.49 56.5937 21.3449C56.927 21.3041 57.2804 21.2444 57.5551 21.0585C57.8298 20.8726 57.9878 20.6086 58.0085 20.3511C58.0024 20.2636 57.9777 20.1783 57.9358 20.1009C57.8766 19.998 57.7986 19.9067 57.7058 19.8316C57.6053 19.7461 57.495 19.6725 57.3771 19.6122C57.2213 19.5373 57.0599 19.474 56.8944 19.4231C56.689 19.3574 56.507 19.297 56.3463 19.2425C56.1856 19.1879 55.9656 19.1229 55.6889 19.0454C55.4122 18.9679 55.1769 18.8937 54.9868 18.8274C54.9769 18.8245 54.9671 18.821 54.9575 18.8169C54.9551 18.817 54.9526 18.817 54.9502 18.8169C54.6212 18.737 54.2982 18.635 53.9834 18.5115C52.3639 17.8442 51.7978 16.2022 52.5226 14.8085C52.5433 14.7677 52.5646 14.725 52.5893 14.6843L52.5946 14.6738L52.6206 14.6278C52.6206 14.6226 52.6259 14.6193 52.6273 14.616C52.6533 14.5733 52.6793 14.5306 52.7073 14.4899C52.806 14.3459 52.9195 14.2123 53.046 14.0912C53.1566 13.9815 53.2764 13.8811 53.404 13.7911C54.1552 13.253 55.0786 12.9839 56.1743 12.9839C57.2031 12.9839 58.0198 13.217 58.7552 13.6157C59.608 14.0807 60.0987 14.9431 60.0987 14.9667C60.0987 14.9707 58.3712 15.9861 58.3712 15.9861L58.2779 15.8738C57.7951 15.3159 57.0788 15.037 56.129 15.037C55.7209 15.037 55.3958 15.12 55.1535 15.2859C54.9135 15.4528 54.7922 15.6689 54.7922 15.9349C54.7913 16.0334 54.8101 16.1311 54.8475 16.2225C54.8877 16.3145 54.9521 16.3941 55.0342 16.4531C55.1194 16.5178 55.2084 16.5775 55.3009 16.6317C55.4298 16.7036 55.5653 16.7634 55.7056 16.8104C55.8889 16.876 56.0563 16.9332 56.2103 16.9811C56.3643 17.0291 56.5757 17.0934 56.845 17.1782L56.9384 17.209C57.0717 17.2412 57.1997 17.2747 57.3298 17.3095C57.7258 17.4172 58.1298 17.5158 58.5125 17.6622C60.7594 18.5246 61.1802 20.805 59.3913 22.4082Z" fill="#EC3A0E"/>
</g>
</g>
<defs>
<clipPath id="clip0_722_6793">
<rect width="68.7839" height="14.6439" fill="white" transform="translate(35.2161 8.81494)"/>
</clipPath>
<clipPath id="clip1_722_6793">
<rect width="68.7839" height="14.6439" fill="white" transform="translate(35.2161 8.81494)"/>
</clipPath>
</defs>
</svg>
