<svg width="190" height="134" viewBox="0 0 190 134" fill="none" xmlns="http://www.w3.org/2000/svg">
<path d="M16.9846 133.925C16.8648 133.925 16.7401 133.877 16.6491 133.786C16.4621 133.599 16.4573 133.298 16.6443 133.111C16.9319 132.819 23.7533 125.913 28.8011 122.704C33.9496 119.433 46.5618 119.16 64.3177 121.948C68.4164 122.589 71.6569 123.159 74.2647 123.619C82.9605 125.151 83.7802 125.228 84.3603 122.987C85.1896 119.778 81.9203 117.187 81.8867 117.163C81.7045 117.024 81.6518 116.775 81.7525 116.569C81.8531 116.363 82.088 116.263 82.3085 116.32C82.3757 116.34 88.9622 118.131 93.1615 118.131C97.3608 118.131 97.6484 116.651 97.6484 114.563C97.6484 112.987 94.1346 110.87 91.9247 109.908C91.7042 109.812 91.5892 109.563 91.6563 109.333C91.7234 109.103 91.9583 108.96 92.1932 108.998C92.2507 109.007 97.8354 109.913 99.9398 108.308C100.371 107.978 100.606 107.576 100.659 107.073C101.009 103.711 94.5133 101.46 94.4462 101.436C94.2161 101.359 94.0819 101.125 94.1298 100.89C95.1893 95.598 86.4839 92.2984 82.692 91.125C79.7199 90.2055 72.5342 88.4384 66.1921 86.8771C60.7752 85.541 55.6555 84.2815 53.6757 83.6828C51.3268 82.9692 50.8378 81.4415 50.7563 80.5891C50.5646 78.592 52.0458 76.5567 53.5894 75.7473C56.0054 74.4782 61.6189 67.4479 59.5096 62.2469C58.6324 60.0823 57.7312 58.9712 56.6766 58.7461C55.2001 58.43 53.0717 59.7231 49.5675 63.0658C43.6616 68.7074 38.0626 71.3366 23.1302 76.8823C10.8391 81.4463 8.19774 92.0493 6.9322 97.1497C6.68772 98.1267 6.49597 98.8929 6.28984 99.4533C4.94281 103.088 0.911296 105.717 0.738722 105.828C0.518211 105.971 0.221001 105.909 0.0771898 105.684C-0.0666216 105.459 -0.00430329 105.167 0.221001 105.023C0.259351 104.999 4.15664 102.451 5.38862 99.1228C5.58037 98.6104 5.76253 97.8633 5.99743 96.9198C7.30611 91.6614 10.0289 80.728 22.7946 75.9868C37.588 70.4937 43.1199 67.898 48.906 62.3762C52.7697 58.6886 55.0036 57.4099 56.8779 57.8122C58.292 58.1139 59.3802 59.3735 60.3965 61.8925C62.8029 67.8358 56.48 75.3115 54.0304 76.5998C52.6115 77.3469 51.5713 79.0949 51.7055 80.5029C51.8062 81.5708 52.5827 82.3562 53.9489 82.7681C55.9048 83.362 61.0101 84.6167 66.4174 85.9481C73.0806 87.5907 79.9692 89.286 82.9701 90.2103C87.8693 91.7237 95.846 95.076 95.1317 100.67C96.6418 101.249 101.982 103.553 101.608 107.168C101.527 107.939 101.162 108.576 100.515 109.07C99.0961 110.152 96.5315 110.281 94.59 110.195C96.4021 111.244 98.6024 112.867 98.6024 114.563C98.6024 117.36 97.6916 119.088 93.1567 119.088C90.1223 119.088 86.0237 118.222 83.7467 117.676C84.7533 118.892 85.8895 120.88 85.2854 123.226C84.4705 126.387 82.6825 126.071 74.0921 124.562C71.4891 124.103 68.2486 123.533 64.1643 122.891C46.6385 120.147 34.2612 120.362 29.3093 123.514C24.3526 126.665 17.3921 133.714 17.3202 133.786C17.2243 133.882 17.1045 133.93 16.9798 133.93L16.9846 133.925Z" fill="#002EA4"/>
<path d="M82.1843 117.264C82.1076 117.264 82.0261 117.245 81.9542 117.207C81.8919 117.173 75.3629 113.658 63.4697 112.24C59.6347 111.781 56.4613 109.913 53.1009 107.935C49.0981 105.579 44.9611 103.146 38.9978 102.442C38.7341 102.413 38.5472 102.174 38.5759 101.91C38.6047 101.647 38.8492 101.46 39.108 101.489C45.2727 102.217 49.6925 104.817 53.585 107.106C56.8591 109.032 59.9463 110.851 63.5799 111.287C75.6745 112.734 82.1412 116.22 82.4096 116.368C82.6397 116.498 82.726 116.785 82.6014 117.02C82.5151 117.178 82.3521 117.269 82.1795 117.269L82.1843 117.264Z" fill="#002EA4"/>
<path d="M92.1167 109.951C92.0831 109.951 92.0448 109.951 92.0064 109.937C91.8195 109.894 73.1479 105.603 63.4838 104.822C63.2202 104.803 63.0236 104.568 63.0428 104.305C63.062 104.041 63.2921 103.84 63.5605 103.864C73.2918 104.654 92.0304 108.955 92.2221 108.998C92.481 109.055 92.6392 109.314 92.5817 109.573C92.5289 109.793 92.3324 109.941 92.1167 109.941V109.951Z" fill="#002EA4"/>
<path d="M94.6001 101.464C94.5521 101.464 94.4994 101.455 94.4467 101.44C94.3412 101.407 83.68 97.9252 63.8388 96.3113C63.5751 96.2921 63.3786 96.0575 63.3978 95.7941C63.417 95.5307 63.6518 95.3343 63.9155 95.3535C83.8861 96.977 94.6432 100.492 94.7487 100.526C94.9979 100.607 95.137 100.88 95.0507 101.129C94.9836 101.33 94.7966 101.455 94.5953 101.455L94.6001 101.464Z" fill="#002EA4"/>
<path d="M61.7534 111.919C61.7006 111.919 61.6479 111.91 61.5952 111.891C61.3459 111.804 61.2117 111.532 61.298 111.282C66.2691 96.9967 60.2817 88.2039 60.2242 88.1177C60.0708 87.9022 60.1235 87.6005 60.344 87.452C60.5597 87.2988 60.8569 87.3515 61.0103 87.567C61.2692 87.9357 67.3476 96.8195 62.2088 111.599C62.1417 111.795 61.9547 111.919 61.7582 111.919H61.7534Z" fill="#002EA4"/>
<path d="M109.369 57.1561L112.375 59.5219C112.547 59.6607 112.787 59.6847 112.983 59.5889L116.138 58.0708C116.607 57.8457 117.111 58.3054 116.938 58.7939L115.716 62.2373C115.653 62.4145 115.682 62.6156 115.788 62.7736L118.036 65.944C118.314 66.3367 118.026 66.8827 117.547 66.8635L113.688 66.7103C113.496 66.7055 113.314 66.7917 113.199 66.9449L110.908 70.053C110.62 70.441 110.016 70.326 109.882 69.8615L108.808 66.126C108.755 65.944 108.616 65.7955 108.434 65.7333L104.978 64.536C104.484 64.3684 104.441 63.6836 104.911 63.4585L108.065 61.9403C108.266 61.8446 108.391 61.6434 108.391 61.4231L108.415 57.6014C108.415 57.1177 108.971 56.8496 109.35 57.1513L109.369 57.1561Z" fill="#FFB600"/>
<path d="M100.472 74.1576L103.478 76.5234C103.65 76.6623 103.89 76.6863 104.087 76.5905L107.241 75.0724C107.711 74.8473 108.214 75.307 108.041 75.7955L106.819 79.2388C106.757 79.416 106.785 79.6172 106.891 79.7752L109.139 82.9456C109.417 83.3383 109.13 83.8843 108.65 83.8651L104.791 83.7118C104.6 83.7071 104.417 83.7933 104.302 83.9465L102.011 87.0546C101.723 87.4425 101.119 87.3276 100.985 86.8631L99.9113 83.1276C99.8586 82.9456 99.7196 82.7971 99.5374 82.7349L96.0811 81.5376C95.5874 81.37 95.5442 80.6852 96.014 80.4601L99.1683 78.9419C99.3696 78.8461 99.4942 78.645 99.4942 78.4247L99.5182 74.603C99.5182 74.1193 100.074 73.8511 100.453 74.1529L100.472 74.1576Z" fill="#FFB600"/>
<path d="M45.6254 79.5523L53.6693 85.8835C54.139 86.2522 54.767 86.3241 55.3039 86.0703L63.7552 82.0091C65.0064 81.4057 66.363 82.6413 65.9028 83.9487L62.6335 93.1677C62.4609 93.6466 62.5424 94.183 62.8301 94.5996L68.8557 103.091C69.6084 104.144 68.827 105.6 67.5423 105.552L57.2118 105.145C56.6989 105.126 56.2147 105.361 55.9079 105.773L49.7768 114.091C49.0098 115.13 47.3895 114.829 47.0348 113.584L44.1537 103.584C44.0147 103.091 43.6408 102.703 43.1566 102.535L33.9048 99.336C32.5865 98.881 32.4715 97.0516 33.7274 96.4482L42.1787 92.3871C42.7108 92.1284 43.0464 91.5921 43.0512 90.9982L43.1183 80.764C43.1231 79.4709 44.6091 78.7573 45.6254 79.5571V79.5523Z" fill="#FFB600"/>
<path d="M134.312 70.2033C133.934 70.2033 133.55 70.1358 133.149 69.9897C131.162 69.2591 129.722 67.3876 128.977 64.5719C127.791 60.1039 128.661 54.1354 130.874 51.5332C131.122 51.241 131.393 50.9263 131.687 50.5891C135.187 46.5651 141.048 39.8265 137.101 33.6107C133.127 27.3611 126.007 28.665 119.125 29.9239C118.549 30.0307 117.973 30.1374 117.403 30.233C112 31.1828 102.357 36.2296 95.9712 39.568C93.6507 40.7819 91.8214 41.7374 90.6979 42.2432C90.026 42.541 89.3824 42.8558 88.7557 43.1593C85.4755 44.7554 82.3759 46.2672 79.1521 43.4571C78.2883 42.704 77.8761 41.8048 77.9382 40.7819C78.1076 37.9101 82.0992 35.1393 82.2686 35.0213C83.0082 34.4537 101.002 20.6057 105.23 18.4307C108.494 16.7447 141.223 1.50291 155.343 0.00233306C155.659 -0.0257676 155.93 0.193417 155.964 0.502524C155.998 0.811631 155.772 1.08702 155.462 1.12074C141.505 2.59883 108.991 17.7507 105.744 19.4255C101.606 21.5555 83.1155 35.78 82.9292 35.9262C81.8734 36.6512 79.1747 38.9161 79.0618 40.8438C79.0222 41.5126 79.2932 42.0858 79.8917 42.6085C82.5509 44.924 84.9448 43.7606 88.2532 42.1476C88.8912 41.8385 89.5461 41.5182 90.2293 41.2147C91.3246 40.7257 93.1369 39.7759 95.4405 38.5732C101.888 35.2012 111.627 30.1037 117.2 29.1258C117.764 29.0246 118.34 28.9235 118.916 28.8167C125.832 27.5522 133.674 26.1134 138.056 33.0093C142.454 39.9277 136.006 47.3406 132.545 51.3253C132.257 51.6569 131.986 51.9716 131.738 52.2582C129.767 54.5793 128.988 60.1995 130.072 64.2853C130.524 65.9938 131.495 68.1857 133.544 68.9388C136.232 69.9279 138.609 65.3363 141.121 60.4805C143.21 56.4508 145.367 52.2863 148.173 50.1395C149.093 49.4369 150.149 48.6557 151.284 47.8183C157.974 42.8783 167.132 36.1172 169.972 29.4743C169.983 29.4518 169.994 29.4293 170.006 29.4068C170.141 29.1764 172.778 24.7927 176.865 23.3258C176.747 22.0726 176.922 20.6507 177.407 19.24C178.192 16.9751 180.925 11.6191 189.388 10.8885C189.698 10.8604 189.975 11.0908 189.998 11.3999C190.026 11.7091 189.794 11.9788 189.484 12.0069C181.676 12.6813 179.186 17.5484 178.474 19.6053C178.045 20.8586 177.904 22.022 177.966 23.0111C178.621 22.8762 179.31 22.82 180.027 22.8706C182.528 23.0448 183.138 24.0846 183.279 24.6859C183.477 25.5346 182.974 26.4731 182.037 27.0183C181.066 27.5803 179.553 27.7376 178.215 26.5012C177.678 26.0066 177.294 25.2985 177.069 24.4555C173.602 25.8099 171.225 29.581 170.999 29.9463C168.018 36.8591 158.736 43.71 151.961 48.7176C150.832 49.5493 149.782 50.3249 148.867 51.0274C146.265 53.017 144.164 57.0691 142.132 60.9919C139.682 65.7128 137.355 70.2033 134.324 70.2033H134.312ZM178.147 24.1295C178.328 24.8096 178.621 25.3435 178.982 25.6807C180.095 26.7092 181.167 26.2202 181.467 26.046C181.963 25.7594 182.263 25.2929 182.178 24.9388C182.088 24.551 181.455 24.0958 179.948 23.989C179.327 23.9441 178.723 24.0003 178.141 24.1295H178.147Z" fill="#002EA4"/>
<path d="M101.764 58.6099C101.002 58.6099 100.224 58.4528 99.4293 58.1442C99.3271 58.1049 99.2419 58.0376 99.1794 57.9534C99.0431 57.7682 97.8788 55.9559 99.0829 49.5818C100.27 43.2807 103.723 34.8586 103.757 34.7745C103.876 34.4883 104.206 34.348 104.495 34.4659C104.785 34.5837 104.927 34.9091 104.808 35.1953C104.774 35.2794 101.366 43.5949 100.196 49.7838C99.2646 54.7383 99.8382 56.6797 100.043 57.1679C101.411 57.656 102.672 57.5775 103.888 56.9378C107.091 55.2489 109.272 49.8904 110.243 45.4465C111.441 39.9646 118.455 29.6629 118.756 29.2308C118.932 28.9727 119.284 28.9054 119.546 29.0793C119.807 29.2533 119.875 29.6011 119.699 29.8592C119.625 29.9659 112.509 40.4135 111.356 45.6878C110.856 47.9659 108.885 55.5799 104.427 57.9309C103.575 58.3798 102.684 58.6043 101.769 58.6043L101.764 58.6099Z" fill="#002EA4"/>
<path d="M108.669 52.8135C108.25 52.8135 108.009 52.7398 107.946 52.7171C107.648 52.615 107.487 52.2916 107.591 51.9966C107.694 51.7016 108.009 51.5484 108.308 51.6392C108.359 51.6562 109.908 52.0193 112.89 49.8351C114.014 49.0125 114.651 47.2141 115.528 44.7293C116.996 40.5765 119.221 34.302 125.908 27.8573C126.138 27.6361 126.499 27.6418 126.717 27.8687C126.941 28.0956 126.935 28.453 126.706 28.6686C120.214 34.9317 118.132 40.8091 116.612 45.1037C115.666 47.7814 114.977 49.716 113.572 50.7485C111.192 52.4958 109.546 52.8135 108.669 52.8135Z" fill="#002EA4"/>
<path d="M117.256 48.9492C115.968 48.9492 114.95 48.2775 114.894 48.2439C114.634 48.0703 114.566 47.7233 114.741 47.4658C114.916 47.2083 115.267 47.1411 115.527 47.3147C115.527 47.3147 116.714 48.0815 117.9 47.7401C118.692 47.5106 119.347 46.8389 119.844 45.7361C121.653 41.7281 127.163 29.5363 131.978 28.3552C132.277 28.2824 132.588 28.4616 132.662 28.7638C132.735 29.0661 132.554 29.3684 132.249 29.4412C129.406 30.1353 125.581 35.7722 120.879 46.1895C120.234 47.6113 119.336 48.4958 118.206 48.8148C117.883 48.9044 117.561 48.9436 117.262 48.9436L117.256 48.9492Z" fill="#002EA4"/>
<path d="M82.4925 56.8815L84.2854 63.9981C84.3908 64.4099 84.7168 64.7308 85.1338 64.817L91.7156 66.2058C92.6935 66.4118 92.9188 67.7048 92.0847 68.246L86.1885 72.0533C85.8817 72.2497 85.6899 72.5897 85.6755 72.9537L85.3783 80.415C85.34 81.3441 84.2614 81.8278 83.5519 81.2388L77.8618 76.488C77.5789 76.2533 77.2002 76.1719 76.8455 76.2725L69.7173 78.3174C68.8256 78.5712 68.0395 77.69 68.3798 76.828L71.1266 69.8839C71.2608 69.5438 71.2225 69.1559 71.0211 68.8542L67.1718 62.9876C66.6205 62.1543 67.3587 61.0624 68.3367 61.2683L74.9184 62.6571C75.3355 62.7433 75.7621 62.5853 76.0258 62.2501L80.551 56.4649C81.1215 55.7321 82.2768 55.9764 82.5021 56.8767L82.4925 56.8815Z" fill="#FFB600"/>
<path d="M22.8473 63.334C22.2002 63.334 22.042 62.6348 21.9701 62.3236C21.8886 61.9787 21.8119 61.6291 21.7304 61.2843C21.6537 60.9443 21.577 60.6043 21.4955 60.2643C21.4811 60.2068 21.4668 60.1445 21.4524 60.0823C21.4428 60.0248 21.4284 59.9721 21.414 59.9146C21.3805 59.8332 21.3565 59.7614 21.3373 59.6943C21.2175 59.6608 21.0497 59.6321 20.9442 59.6177C20.8484 59.6034 20.7717 59.589 20.7237 59.5746C20.1101 59.4262 19.4917 59.2633 18.8782 59.1005L18.811 59.0813C18.4515 58.9951 17.905 58.861 17.8283 58.2864C17.7708 57.817 18.068 57.4674 18.6385 57.319C19.0411 57.2136 19.4438 57.1226 19.8465 57.0316C20.0478 56.9885 20.2492 56.9406 20.4553 56.8927C20.556 56.8688 20.6806 56.8496 20.81 56.8305C21.0257 56.8017 21.2654 56.7634 21.3949 56.6916L21.4236 56.6485C21.4572 56.5862 21.4763 56.4713 21.4955 56.3707C21.5099 56.3037 21.5195 56.2366 21.5339 56.184C21.6106 55.887 21.6873 55.5805 21.7688 55.274C21.8455 54.9819 21.9222 54.685 21.9989 54.3928C22.0132 54.3306 22.0276 54.2635 22.042 54.1917C22.1235 53.8038 22.2338 53.2674 22.7754 53.1333C23.1925 53.0184 23.6191 53.2578 23.7821 53.7032C23.9451 54.1247 24.0314 54.5892 24.1225 55.0394C24.1656 55.2597 24.204 55.4752 24.2567 55.6811C24.2855 55.8248 24.319 55.9637 24.3526 56.1025C24.3861 56.2462 24.4197 56.3899 24.4484 56.5288C24.4628 56.6006 24.4724 56.6533 24.482 56.6964C24.482 56.6964 24.4868 56.6964 24.4916 56.6964C24.5347 56.706 24.5875 56.7155 24.6498 56.7347L26.5002 57.2184C26.5769 57.2376 26.6679 57.2567 26.759 57.2759C27.1569 57.3573 27.6506 57.4579 27.9047 57.8314C28.0341 58.0325 28.0725 58.2672 28.0102 58.4923C27.9431 58.7317 27.7705 58.9281 27.5356 59.0382C27.1713 59.2059 26.7542 59.2921 26.3563 59.3735C26.1694 59.4118 25.9872 59.4501 25.8147 59.4932C25.738 59.5124 25.6565 59.5124 25.575 59.4932L24.5635 59.7231C24.5108 59.7422 24.458 59.7566 24.4149 59.771C24.4053 59.8189 24.3957 59.8668 24.3909 59.9051C24.3765 59.9817 24.367 60.0487 24.3526 60.0871L23.8061 62.2613C23.7198 62.6444 23.5904 63.2191 22.9768 63.3053C22.9288 63.3101 22.8857 63.3149 22.8426 63.3149L22.8473 63.334ZM21.879 59.771L21.8886 59.7997C21.903 59.862 21.9174 59.9242 21.9317 59.9817C21.9413 60.0392 21.9557 60.0918 21.9701 60.1493C22.0516 60.4941 22.1283 60.8342 22.205 61.1742C22.2817 61.5238 22.3632 61.8686 22.4447 62.2134C22.5741 62.7881 22.7083 62.8743 22.924 62.8456C23.1781 62.812 23.2548 62.6013 23.3507 62.1703L23.902 59.9769C23.9116 59.9386 23.9211 59.8955 23.9307 59.8428C23.9547 59.7135 23.9787 59.5698 24.0218 59.4693L24.343 58.7461L24.4341 59.2825L24.4916 59.2633L25.6037 59.0143L25.666 59.0335C25.8866 58.9951 26.0783 58.952 26.2749 58.9137C26.6488 58.8371 27.0371 58.7557 27.3486 58.612C27.4541 58.5641 27.5356 58.4731 27.5644 58.3678C27.5835 58.3055 27.5883 58.2097 27.5212 58.1092C27.3774 57.8984 26.9891 57.8218 26.6775 57.7596C26.5721 57.7404 26.4762 57.7213 26.3899 57.6973L24.5395 57.2136C24.482 57.1992 24.4341 57.1897 24.3957 57.1801C24.1369 57.1226 24.0649 57.046 24.0218 56.7874C24.017 56.7491 24.0074 56.7012 23.993 56.6389C23.9643 56.5 23.9307 56.3612 23.8972 56.2223C23.8636 56.0786 23.8301 55.9397 23.8013 55.796C23.7534 55.5853 23.7102 55.365 23.6671 55.1399C23.5856 54.7089 23.4993 54.2635 23.3507 53.8804C23.2836 53.6984 23.1254 53.5452 22.9145 53.6026C22.6796 53.6649 22.6077 53.9187 22.531 54.2971C22.5166 54.3737 22.4974 54.4503 22.483 54.5174C22.4063 54.8095 22.3296 55.1064 22.2529 55.3985C22.1714 55.7003 22.0947 56.0068 22.018 56.3085C22.0037 56.3564 21.9941 56.409 21.9845 56.4665C21.9605 56.591 21.9365 56.7251 21.8838 56.8449L21.8742 56.8784C21.8646 57.0364 21.7879 57.1082 21.7208 57.1418C21.6825 57.1609 21.6249 57.1801 21.5483 57.1657C21.3565 57.2471 21.1168 57.2807 20.9011 57.3142C20.7861 57.3285 20.6806 57.3477 20.5895 57.3669C20.3834 57.4147 20.1772 57.4626 19.9759 57.5057C19.578 57.5919 19.1802 57.6829 18.7823 57.7883C18.2837 57.9176 18.3125 58.1523 18.3221 58.2337C18.3556 58.4636 18.5761 58.5354 18.9453 58.6264L19.022 58.6455C19.6356 58.8084 20.2492 58.9664 20.8627 59.1197C20.9059 59.1292 20.973 59.1388 21.0497 59.1532C21.3373 59.2011 21.5674 59.2442 21.7112 59.3208L22.5789 59.7853L21.8982 59.7758L21.879 59.771ZM18.7583 58.4827C18.6528 58.4588 18.4515 58.4157 18.4515 58.2097V58.023L18.6912 57.9655L18.8925 58.023L18.8398 58.2097L18.7583 58.4827Z" fill="#EC3A0E"/>
<path d="M63.7905 29.9734C63.1434 29.9734 62.9852 29.2742 62.9133 28.9629C62.8318 28.6276 62.7551 28.2828 62.6784 27.9428C62.6017 27.598 62.5202 27.2484 62.4387 26.9036C62.4243 26.8461 62.4099 26.7839 62.3956 26.7216C62.3812 26.6641 62.3716 26.6114 62.3572 26.554C62.3237 26.4726 62.2997 26.4007 62.2805 26.3337C62.1607 26.3002 61.9881 26.2714 61.8826 26.2571C61.7916 26.2427 61.7101 26.2283 61.6621 26.214C61.0533 26.0655 60.4397 25.9027 59.8261 25.7446L59.7446 25.7255C59.3851 25.6393 58.8386 25.5052 58.7619 24.9305C58.7044 24.4611 59.0016 24.1115 59.5721 23.9631C59.9747 23.8577 60.3822 23.7667 60.7897 23.6757C60.991 23.6326 61.1923 23.5847 61.3889 23.5416C61.4895 23.5177 61.6142 23.4985 61.7436 23.4794C61.9593 23.4507 62.2038 23.4123 62.3284 23.3357C62.3332 23.3357 62.338 23.3309 62.3428 23.3261C62.3428 23.3166 62.3524 23.3022 62.3572 23.2926C62.3908 23.2304 62.4099 23.1154 62.4291 23.0148C62.4435 22.9478 62.4531 22.8808 62.4723 22.8233C62.549 22.5312 62.6257 22.2294 62.7024 21.9277C62.7791 21.6308 62.8606 21.3291 62.9325 21.0322C62.9468 20.9699 62.9612 20.9029 62.9756 20.831C63.0571 20.4431 63.1673 19.9067 63.709 19.7726C64.1261 19.6577 64.5527 19.8972 64.7157 20.3425C64.8787 20.764 64.965 21.2285 65.0561 21.6787C65.0992 21.899 65.1376 22.1145 65.1903 22.3204C65.2191 22.4641 65.2526 22.603 65.2862 22.7419C65.3197 22.8855 65.3533 23.0244 65.382 23.1681C65.3964 23.2399 65.406 23.2926 65.4156 23.3357C65.4156 23.3357 65.4204 23.3357 65.4252 23.3357C65.4683 23.3453 65.5211 23.3549 65.5834 23.374L67.4338 23.8577C67.5105 23.8769 67.6015 23.896 67.6926 23.9152C68.0905 23.9966 68.5842 24.0972 68.8383 24.4707C68.9677 24.6719 69.0061 24.9017 68.9438 25.1268C68.8767 25.3663 68.7041 25.5626 68.4692 25.6728C68.1049 25.8404 67.6878 25.9266 67.2899 26.008C67.103 26.0463 66.9208 26.0846 66.7482 26.1277C66.6715 26.1469 66.5901 26.1469 66.5086 26.1277L65.4971 26.3624C65.4444 26.3816 65.3964 26.3959 65.3485 26.4103C65.3389 26.4582 65.3293 26.5061 65.3245 26.5444C65.3101 26.621 65.3005 26.6881 65.2862 26.7264L64.7397 28.9006C64.6534 29.2837 64.524 29.8584 63.9104 29.9446C63.8624 29.9494 63.8193 29.9542 63.7761 29.9542L63.7905 29.9734ZM62.7551 26.2187C62.7647 26.2475 62.7791 26.3002 62.8126 26.3911C62.8126 26.4007 62.827 26.4295 62.827 26.439C62.8414 26.5013 62.8558 26.5636 62.8701 26.621C62.8845 26.6785 62.8941 26.7312 62.9085 26.7886C62.99 27.1382 63.0715 27.4878 63.1482 27.8327C63.2249 28.1727 63.3016 28.5127 63.3831 28.8527C63.5125 29.4226 63.6419 29.5136 63.8624 29.4849C64.1165 29.4514 64.1932 29.2406 64.2891 28.8096L64.8404 26.6162C64.8499 26.5779 64.8595 26.5348 64.8691 26.4821C64.8931 26.3576 64.9171 26.214 64.9602 26.1086C65.0033 26.0128 65.0992 25.9506 65.2095 25.9697C65.2143 25.9697 65.2191 25.9697 65.2239 25.9697C65.267 25.9601 65.3149 25.941 65.3581 25.9266L65.43 25.9027L66.475 25.668C66.5182 25.6584 66.5613 25.6584 66.5996 25.6728C66.8202 25.6345 67.0119 25.5914 67.2084 25.5531C67.5824 25.4764 67.9706 25.395 68.2822 25.2513C68.3877 25.2035 68.4692 25.1125 68.498 25.0071C68.5171 24.9448 68.5219 24.8491 68.4548 24.7485C68.311 24.5378 67.9227 24.4611 67.6111 24.3989C67.5057 24.3797 67.4098 24.3606 67.3235 24.3366L65.4731 23.8529C65.4156 23.8386 65.3677 23.8242 65.3293 23.8194C65.0705 23.7619 64.9985 23.6853 64.9554 23.4267C64.9506 23.3884 64.941 23.3405 64.9266 23.2782C64.8979 23.1394 64.8643 23.0005 64.8308 22.8616C64.7972 22.7179 64.7637 22.579 64.7349 22.4354C64.687 22.2247 64.6438 22.0044 64.6007 21.7793C64.5192 21.3483 64.4329 20.9029 64.2843 20.5197C64.2172 20.3378 64.059 20.1845 63.848 20.242C63.6132 20.3042 63.5413 20.5581 63.4646 20.9364C63.4502 21.013 63.431 21.0896 63.4166 21.1567C63.3399 21.4536 63.2632 21.7553 63.1865 22.0522C63.1098 22.3492 63.0283 22.6509 62.9564 22.9478C62.942 22.9957 62.9325 23.0484 62.9229 23.1058C62.8989 23.2256 62.8749 23.3645 62.8222 23.4842L62.8126 23.5177C62.803 23.6757 62.7263 23.7476 62.6592 23.7811C62.6209 23.8003 62.5633 23.8194 62.4866 23.805C62.2901 23.8865 62.0552 23.92 61.8395 23.9535C61.7244 23.9679 61.619 23.987 61.5279 24.0062C61.3218 24.0541 61.1204 24.0972 60.9191 24.1451C60.5212 24.2361 60.1185 24.3223 59.7207 24.4276C59.2221 24.5569 59.2509 24.7916 59.2605 24.873C59.294 25.1029 59.5193 25.1747 59.8837 25.2657L59.9556 25.2849C60.5787 25.4477 61.1875 25.6057 61.7963 25.759C61.8347 25.7686 61.9018 25.7781 61.9833 25.7925C62.2709 25.8404 62.501 25.8835 62.6448 25.9601C62.7407 26.0128 62.7886 26.1182 62.7647 26.2235L62.7551 26.2187ZM59.7542 25.1268C59.7542 25.1268 59.7207 25.1268 59.7015 25.122C59.6008 25.0981 59.3947 25.055 59.3947 24.8491C59.3947 24.7389 59.4714 24.6383 59.5816 24.6144C59.6296 24.6048 59.6823 24.6048 59.7207 24.624L59.8309 24.6671C59.9508 24.7102 60.0131 24.8395 59.9795 24.9592C59.9508 25.0646 59.8549 25.1316 59.7494 25.1316L59.7542 25.1268Z" fill="#002EA4"/>
<path d="M148.62 100.947C147.973 100.947 147.815 100.248 147.743 99.9368C147.661 99.5968 147.585 99.252 147.508 98.9071C147.431 98.5623 147.35 98.2175 147.273 97.8775C147.259 97.82 147.244 97.7578 147.23 97.6955C147.216 97.638 147.206 97.5854 147.192 97.5279C147.158 97.4465 147.134 97.3746 147.115 97.3076C146.995 97.2741 146.827 97.2453 146.722 97.231C146.626 97.2166 146.549 97.2022 146.501 97.1879C145.888 97.0394 145.269 96.8766 144.656 96.7137L144.589 96.6946C144.229 96.6084 143.683 96.4743 143.606 95.8996C143.548 95.4303 143.846 95.0807 144.416 94.9322C144.819 94.8268 145.226 94.7359 145.634 94.6449C145.835 94.6018 146.036 94.5539 146.233 94.5108C146.334 94.4868 146.458 94.4677 146.588 94.4485C146.803 94.4198 147.043 94.3815 147.172 94.3096C147.177 94.3096 147.182 94.3048 147.187 94.3C147.187 94.2905 147.196 94.2761 147.201 94.2665C147.235 94.2043 147.254 94.0893 147.273 93.9888C147.287 93.9217 147.297 93.8547 147.311 93.802C147.388 93.5099 147.465 93.2081 147.542 92.9112C147.618 92.6095 147.7 92.3126 147.772 92.0157C147.786 91.9534 147.8 91.8864 147.815 91.8145C147.896 91.4266 148.007 90.8902 148.548 90.7561C148.965 90.6412 149.392 90.8807 149.555 91.326C149.718 91.7427 149.804 92.212 149.89 92.6622C149.934 92.8825 149.977 93.098 150.025 93.3039C150.053 93.4476 150.087 93.5865 150.121 93.7254C150.154 93.869 150.188 94.0079 150.216 94.1516C150.231 94.2234 150.24 94.2761 150.25 94.3192C150.25 94.3192 150.255 94.3192 150.26 94.3192C150.303 94.3288 150.355 94.3384 150.418 94.3575L152.268 94.8412C152.345 94.8604 152.436 94.8795 152.527 94.8987C152.925 94.9801 153.419 95.0807 153.673 95.4542C153.802 95.6554 153.84 95.8852 153.778 96.1103C153.711 96.3498 153.538 96.5509 153.304 96.6563C152.939 96.8239 152.522 96.9101 152.124 96.9915C151.937 97.0298 151.755 97.0681 151.583 97.1112C151.506 97.1304 151.424 97.1304 151.343 97.1112L150.331 97.3459C150.279 97.3651 150.231 97.3794 150.183 97.3938C150.173 97.4417 150.164 97.4896 150.159 97.5279C150.145 97.6045 150.135 97.6716 150.121 97.7099L149.574 99.8841C149.488 100.267 149.358 100.842 148.745 100.928C148.697 100.933 148.654 100.938 148.611 100.938L148.62 100.947ZM147.58 97.1927C147.589 97.2214 147.604 97.2741 147.637 97.3651C147.637 97.3746 147.652 97.4034 147.652 97.4129C147.666 97.4752 147.681 97.5375 147.695 97.5949C147.709 97.6524 147.719 97.7051 147.733 97.7626C147.815 98.1074 147.892 98.457 147.973 98.8018C148.05 99.1466 148.126 99.4866 148.208 99.8266C148.337 100.397 148.467 100.488 148.687 100.459C148.941 100.425 149.018 100.215 149.114 99.7835L149.665 97.5901C149.675 97.5518 149.684 97.5087 149.694 97.4561C149.718 97.3267 149.742 97.1831 149.785 97.0825C149.828 96.9867 149.929 96.9293 150.034 96.9436C150.039 96.9436 150.044 96.9436 150.049 96.9436C150.092 96.934 150.14 96.9149 150.183 96.9005L150.255 96.8766L151.3 96.6419C151.343 96.6323 151.386 96.6323 151.424 96.6467C151.645 96.6084 151.837 96.5653 152.033 96.527C152.407 96.4503 152.795 96.3689 153.107 96.2253C153.213 96.1774 153.294 96.0864 153.323 95.981C153.342 95.9188 153.347 95.823 153.28 95.7224C153.136 95.5117 152.748 95.4351 152.436 95.3728C152.33 95.3536 152.235 95.3345 152.148 95.3105L150.298 94.8268C150.24 94.8125 150.192 94.8029 150.154 94.7933C149.895 94.7359 149.823 94.6592 149.78 94.4006C149.775 94.3623 149.766 94.3144 149.751 94.2522C149.723 94.1133 149.689 93.9744 149.656 93.8355C149.622 93.6918 149.588 93.553 149.56 93.4093C149.512 93.1986 149.469 92.9783 149.421 92.7484C149.339 92.3174 149.253 91.872 149.104 91.4889C149.037 91.3069 148.879 91.1536 148.668 91.2111C148.433 91.2734 148.361 91.5272 148.285 91.9055C148.27 91.9821 148.251 92.054 148.237 92.1258C148.16 92.4227 148.083 92.7244 148.002 93.0262C147.925 93.3231 147.848 93.62 147.772 93.9169C147.757 93.9648 147.748 94.0175 147.738 94.075C147.714 94.1995 147.69 94.3336 147.637 94.4533L147.628 94.4868C147.618 94.6449 147.542 94.7167 147.474 94.7502C147.436 94.7694 147.379 94.7885 147.302 94.7742C147.11 94.8556 146.87 94.8891 146.655 94.9226C146.54 94.937 146.429 94.9562 146.343 94.9753C146.137 95.0232 145.936 95.0663 145.734 95.1142C145.336 95.2052 144.934 95.2914 144.536 95.3967C144.037 95.5261 144.066 95.7607 144.076 95.8421C144.109 96.072 144.33 96.1438 144.699 96.2348L144.771 96.254C145.384 96.4168 145.998 96.5749 146.612 96.7281C146.655 96.7377 146.722 96.7473 146.799 96.7616C147.086 96.8095 147.316 96.8526 147.46 96.9293C147.556 96.9819 147.604 97.0873 147.58 97.1927ZM144.579 96.1007C144.579 96.1007 144.545 96.1007 144.526 96.096C144.426 96.072 144.22 96.0289 144.22 95.823C144.22 95.7128 144.296 95.6123 144.406 95.5883C144.45 95.5787 144.502 95.5787 144.545 95.5979L144.656 95.641C144.776 95.6841 144.838 95.8134 144.804 95.9331C144.776 96.0385 144.68 96.1055 144.574 96.1055L144.579 96.1007Z" fill="#002EA4"/>
<path d="M118.458 114.486C117.811 114.486 117.653 113.787 117.581 113.476C117.5 113.136 117.423 112.791 117.346 112.446C117.269 112.101 117.193 111.756 117.111 111.416C117.097 111.359 117.082 111.297 117.068 111.234C117.059 111.177 117.044 111.124 117.03 111.067C116.996 110.985 116.972 110.914 116.953 110.846C116.833 110.813 116.665 110.784 116.56 110.77C116.464 110.755 116.387 110.741 116.339 110.727C115.726 110.578 115.107 110.415 114.494 110.253L114.427 110.238C114.067 110.152 113.521 110.018 113.444 109.443C113.387 108.974 113.684 108.624 114.254 108.476C114.657 108.366 115.064 108.28 115.472 108.189C115.673 108.145 115.87 108.098 116.071 108.054C116.172 108.031 116.296 108.011 116.426 107.992C116.641 107.963 116.881 107.925 117.011 107.853L117.039 107.81C117.073 107.748 117.092 107.633 117.111 107.532C117.126 107.465 117.135 107.398 117.15 107.346C117.221 107.058 117.298 106.761 117.375 106.464C117.456 106.163 117.533 105.856 117.61 105.555C117.624 105.492 117.639 105.425 117.653 105.353C117.734 104.966 117.845 104.429 118.386 104.295C118.808 104.18 119.23 104.42 119.398 104.865C119.561 105.286 119.647 105.751 119.733 106.201C119.777 106.421 119.82 106.637 119.868 106.843C119.896 106.986 119.93 107.13 119.964 107.269C119.997 107.413 120.031 107.552 120.059 107.695C120.074 107.767 120.083 107.82 120.093 107.863C120.093 107.863 120.098 107.863 120.103 107.863C120.146 107.872 120.198 107.882 120.261 107.901L122.111 108.385C122.188 108.404 122.279 108.423 122.37 108.442C122.768 108.524 123.262 108.624 123.516 108.998C123.645 109.199 123.683 109.434 123.621 109.654C123.554 109.893 123.381 110.09 123.147 110.2C122.782 110.368 122.365 110.454 121.967 110.535C121.78 110.574 121.598 110.612 121.426 110.655C121.349 110.674 121.267 110.674 121.186 110.655L120.174 110.885C120.122 110.904 120.069 110.918 120.026 110.933C120.016 110.981 120.007 111.028 120.002 111.067C119.987 111.143 119.978 111.21 119.964 111.249L119.417 113.423C119.331 113.806 119.201 114.381 118.588 114.467C118.54 114.472 118.497 114.477 118.453 114.477L118.458 114.486ZM117.485 110.928L117.495 110.957C117.509 111.019 117.523 111.081 117.538 111.139C117.547 111.196 117.562 111.249 117.576 111.306C117.658 111.651 117.734 111.996 117.816 112.341C117.893 112.685 117.969 113.03 118.051 113.37C118.18 113.945 118.314 114.031 118.53 114.002C118.794 113.964 118.866 113.725 118.957 113.327L119.508 111.134C119.518 111.096 119.527 111.052 119.537 111C119.561 110.875 119.585 110.732 119.628 110.626L119.949 109.908L120.045 110.439L120.103 110.42L121.215 110.171L121.277 110.19C121.497 110.152 121.689 110.109 121.886 110.071C122.26 109.994 122.648 109.913 122.964 109.769C123.07 109.721 123.151 109.63 123.18 109.525C123.199 109.462 123.204 109.367 123.137 109.266C122.993 109.055 122.605 108.979 122.293 108.916C122.188 108.897 122.092 108.878 122.006 108.854L120.155 108.371C120.098 108.356 120.05 108.347 120.011 108.337C119.753 108.28 119.681 108.203 119.638 107.944C119.633 107.906 119.623 107.858 119.609 107.796C119.58 107.657 119.546 107.518 119.513 107.379C119.479 107.236 119.446 107.092 119.417 106.953C119.369 106.742 119.326 106.522 119.278 106.297C119.197 105.866 119.11 105.42 118.962 105.037C118.895 104.855 118.736 104.702 118.525 104.76C118.29 104.822 118.219 105.076 118.142 105.454C118.128 105.531 118.108 105.602 118.094 105.674C118.017 105.976 117.936 106.283 117.859 106.584C117.782 106.876 117.706 107.173 117.629 107.465C117.615 107.513 117.605 107.566 117.595 107.623C117.571 107.748 117.547 107.882 117.495 108.002L117.485 108.035C117.476 108.193 117.399 108.265 117.332 108.299C117.293 108.318 117.236 108.337 117.159 108.323C116.963 108.404 116.728 108.438 116.512 108.471C116.397 108.485 116.292 108.505 116.2 108.524C115.994 108.572 115.793 108.615 115.592 108.663C115.194 108.754 114.791 108.84 114.393 108.945C113.895 109.075 113.923 109.309 113.933 109.391C113.967 109.62 114.187 109.692 114.556 109.783L114.628 109.802C115.242 109.965 115.855 110.123 116.469 110.277C116.512 110.286 116.579 110.296 116.656 110.31C116.943 110.358 117.174 110.401 117.317 110.478L118.185 110.942L117.504 110.933L117.485 110.928ZM114.369 109.635C114.269 109.611 114.062 109.568 114.062 109.362V109.17L114.321 109.113L114.503 109.175L114.451 109.362L114.369 109.635Z" fill="#EC3A0E"/>
<path d="M30.8527 29.5951C29.9035 29.5951 29.6686 28.5607 29.5536 28.0482C29.4194 27.4831 29.2899 26.9132 29.1605 26.3433C29.0311 25.7734 28.9016 25.2035 28.7674 24.6384C28.7434 24.5378 28.7195 24.4421 28.7003 24.3463C28.6811 24.2505 28.6619 24.1595 28.6332 24.0589C28.5565 23.8578 28.5085 23.7141 28.4894 23.6088C28.2832 23.5465 27.9621 23.489 27.732 23.4507C27.5834 23.4268 27.4539 23.4028 27.3772 23.3837C26.361 23.1346 25.3447 22.8665 24.3284 22.6031L24.2134 22.5743C23.6238 22.4307 22.8184 22.2343 22.7034 21.3866C22.6171 20.6874 23.0533 20.1846 23.9306 19.9595C24.5969 19.7823 25.2776 19.629 25.9343 19.4854C26.2651 19.4135 26.6006 19.3369 26.9314 19.2603C27.0896 19.222 27.2909 19.1884 27.5067 19.1597C27.8758 19.107 28.2928 19.0448 28.5277 18.9059L28.6092 18.858L28.638 18.7718C28.7003 18.6473 28.7386 18.4461 28.7722 18.2689C28.7914 18.1636 28.8106 18.0582 28.8393 17.9672C28.964 17.474 29.0934 16.9759 29.2276 16.473C29.357 15.9846 29.4817 15.4961 29.6063 15.0076C29.6351 14.9022 29.659 14.7873 29.683 14.6723C29.8172 14.0354 29.985 13.2452 30.7808 13.0393C31.4039 12.8669 32.0175 13.2165 32.262 13.8869C32.5257 14.567 32.6695 15.3332 32.8133 16.0708C32.8852 16.4347 32.9523 16.7939 33.0338 17.1387C33.0865 17.3734 33.1393 17.6033 33.192 17.8331C33.2447 18.0678 33.3023 18.3025 33.3502 18.5371C33.3742 18.6473 33.3885 18.7383 33.4029 18.8053C33.4077 18.8436 33.4173 18.8819 33.4221 18.9107C33.4509 18.9203 33.4988 18.9298 33.5372 18.9394C33.6043 18.9538 33.6906 18.9729 33.796 19.0017L36.8592 19.8014C36.9886 19.835 37.1372 19.8637 37.2954 19.8972C37.9234 20.0217 38.7096 20.1798 39.0931 20.7449C39.2848 21.037 39.3375 21.3771 39.2465 21.7027C39.1458 22.0523 38.8917 22.3492 38.5466 22.5073C37.9618 22.7755 37.2858 22.9143 36.6291 23.0532C36.3175 23.1155 36.0107 23.1825 35.7279 23.2544C35.6128 23.2831 35.4978 23.2831 35.3731 23.2544L33.6474 23.6519C33.5132 23.6998 33.4077 23.7333 33.3214 23.7524C33.2975 23.853 33.2735 23.9775 33.2591 24.0781C33.2399 24.1978 33.2208 24.2984 33.2016 24.3606L32.3531 27.7082C32.3339 27.7896 32.3148 27.8758 32.2956 27.962C32.1566 28.5846 31.9648 29.4419 31.054 29.5664C30.9821 29.576 30.9198 29.5807 30.8527 29.5807V29.5951ZM29.0167 23.6998C29.0311 23.7476 29.055 23.8099 29.0838 23.8817L29.0982 23.9248C29.1269 24.0446 29.1509 24.1451 29.1701 24.2409C29.1893 24.3319 29.2084 24.4277 29.2324 24.5235C29.3666 25.0934 29.4961 25.6633 29.6255 26.2332C29.7549 26.8031 29.8843 27.373 30.0186 27.9381C30.1959 28.7379 30.4117 29.1785 30.9821 29.1018C31.519 29.03 31.6628 28.5655 31.821 27.8663C31.8402 27.7753 31.8594 27.6843 31.8833 27.6029L32.7318 24.2409C32.751 24.1835 32.7606 24.102 32.7797 24.0063C32.8133 23.8051 32.8517 23.5752 32.9188 23.4268L33.2399 22.7036L33.3358 23.2592C33.3933 23.24 33.4509 23.2208 33.4844 23.2113C33.5324 23.1969 33.5707 23.1825 33.5947 23.173L35.3827 22.7707L35.4451 22.7898C35.5074 22.809 35.5601 22.8138 35.6032 22.8042C35.8957 22.7276 36.2073 22.6605 36.5284 22.5983C37.1564 22.469 37.8084 22.3349 38.3405 22.0906C38.5562 21.9901 38.724 21.8033 38.7815 21.5878C38.8198 21.4537 38.8342 21.2477 38.6904 21.0275C38.4172 20.6252 37.7412 20.4911 37.1948 20.3809C37.027 20.3474 36.8688 20.3139 36.7298 20.2804L33.6666 19.4806C33.5659 19.4566 33.4892 19.4375 33.4269 19.4231C33.0626 19.3417 32.9859 19.2603 32.9284 18.9011C32.9188 18.8341 32.9044 18.7526 32.8804 18.6473C32.8325 18.4174 32.775 18.1827 32.7222 17.9481C32.6695 17.7134 32.612 17.4835 32.564 17.2489C32.4825 16.9041 32.4106 16.5353 32.3387 16.1665C32.1997 15.4482 32.0559 14.7059 31.8114 14.0593C31.6772 13.6954 31.3464 13.3889 30.9006 13.5086C30.426 13.6283 30.2918 14.112 30.1528 14.7777C30.1288 14.9022 30.1001 15.0219 30.0713 15.1369C29.9467 15.6206 29.822 16.1139 29.6926 16.6023C29.5632 17.1004 29.4337 17.5985 29.3043 18.0965C29.2803 18.1779 29.266 18.2689 29.2468 18.3647C29.2084 18.5611 29.1653 18.7862 29.0838 18.9634L29.0646 19.0448C29.0598 19.2028 29.0023 19.3082 28.892 19.3656C28.8393 19.3944 28.7626 19.4135 28.6619 19.38C28.3551 19.5237 27.9477 19.5811 27.5834 19.6338C27.3916 19.6626 27.2047 19.6865 27.0561 19.7248C26.7157 19.8014 26.3849 19.8781 26.0494 19.9499C25.3974 20.0936 24.7263 20.242 24.0648 20.4192C23.432 20.5821 23.1396 20.8886 23.1923 21.3244C23.2594 21.8081 23.6909 21.947 24.338 22.105L24.4579 22.1337C25.4741 22.4019 26.4904 22.6653 27.5019 22.9143C27.5738 22.9335 27.6888 22.9527 27.823 22.9718C28.2689 23.0484 28.6524 23.1203 28.8633 23.2352L29.7309 23.7045L29.0215 23.6902L29.0167 23.6998ZM24.1223 21.5782C23.9545 21.5399 23.7388 21.492 23.7388 21.2765V21.0849L23.9929 21.0275L24.2565 21.1184L24.2086 21.2765L24.1223 21.5782Z" fill="#EC3A0E"/>
</svg>
