<svg width="47" height="47" viewBox="0 0 47 47" fill="none" xmlns="http://www.w3.org/2000/svg">
<circle cx="23.5" cy="23.5" r="22.5" stroke="black" stroke-width="2"/>
<path d="M15 16.5C15 17.8807 13.8807 19 12.5 19C11.1193 19 10 17.8807 10 16.5C10 15.1193 11.1193 14 12.5 14C13.8807 14 15 15.1193 15 16.5Z" fill="#202020"/>
<path d="M38 16.5C38 17.8807 36.8807 19 35.5 19C34.1193 19 33 17.8807 33 16.5C33 15.1193 34.1193 14 35.5 14C36.8807 14 38 15.1193 38 16.5Z" fill="#202020"/>
<path fill-rule="evenodd" clip-rule="evenodd" d="M21.9583 31.8216C17.708 31.195 14.1347 29.0369 12.1712 27.2589C11.7619 26.8882 11.1295 26.9195 10.7588 27.3289C10.388 27.7383 10.4194 28.3707 10.8288 28.7414C13.032 30.7365 16.9586 33.1061 21.6667 33.8002C26.422 34.5012 31.9354 33.4827 37.1712 28.7414C37.5806 28.3707 37.612 27.7383 37.2413 27.3289C36.8705 26.9195 36.2382 26.8882 35.8288 27.2589C31.0646 31.5731 26.1613 32.4411 21.9583 31.8216Z" fill="black"/>
</svg>
