<svg width="47" height="47" viewBox="0 0 47 47" fill="none" xmlns="http://www.w3.org/2000/svg">
<circle cx="23.5" cy="23.5" r="22.5" stroke="black" stroke-width="2"/>
<path d="M15 16.5C15 17.8807 13.8807 19 12.5 19C11.1193 19 10 17.8807 10 16.5C10 15.1193 11.1193 14 12.5 14C13.8807 14 15 15.1193 15 16.5Z" fill="#202020"/>
<path d="M38 16.5C38 17.8807 36.8807 19 35.5 19C34.1193 19 33 17.8807 33 16.5C33 15.1193 34.1193 14 35.5 14C36.8807 14 38 15.1193 38 16.5Z" fill="#202020"/>
<path fill-rule="evenodd" clip-rule="evenodd" d="M22.1482 29.1792C18.2785 29.8092 15.0106 31.9833 13.2071 33.7868C12.8166 34.1773 12.1834 34.1773 11.7929 33.7868C11.4024 33.3963 11.4024 32.7631 11.7929 32.3726C13.8227 30.3428 17.4548 27.9169 21.8268 27.2052C26.2608 26.4834 31.3766 27.5421 36.2071 32.3726C36.5976 32.7631 36.5976 33.3963 36.2071 33.7868C35.8166 34.1773 35.1834 34.1773 34.7929 33.7868C30.4234 29.4173 25.9558 28.5594 22.1482 29.1792Z" fill="black"/>
<path fill-rule="evenodd" clip-rule="evenodd" d="M39.9192 11.6058C40.1367 12.1135 39.9016 12.7014 39.3939 12.9189L32.3939 15.9189C31.8863 16.1365 31.2984 15.9013 31.0809 15.3937C30.8633 14.8861 31.0985 14.2982 31.6061 14.0806L38.6061 11.0806C39.1137 10.8631 39.7016 11.0982 39.9192 11.6058Z" fill="#202020"/>
<path fill-rule="evenodd" clip-rule="evenodd" d="M8.08087 11.6058C7.86331 12.1135 8.09846 12.7014 8.60609 12.9189L15.6061 15.9189C16.1137 16.1365 16.7016 15.9013 16.9192 15.3937C17.1367 14.8861 16.9016 14.2982 16.3939 14.0806L9.39393 11.0806C8.8863 10.8631 8.29842 11.0982 8.08087 11.6058Z" fill="#202020"/>
</svg>
