<svg width="47" height="47" viewBox="0 0 47 47" fill="none" xmlns="http://www.w3.org/2000/svg">
<circle cx="23.5" cy="23.5" r="22.5" stroke="black" stroke-width="2"/>
<path d="M15 16.5C15 17.8807 13.8807 19 12.5 19C11.1193 19 10 17.8807 10 16.5C10 15.1193 11.1193 14 12.5 14C13.8807 14 15 15.1193 15 16.5Z" fill="#202020"/>
<path d="M38 16.5C38 17.8807 36.8807 19 35.5 19C34.1193 19 33 17.8807 33 16.5C33 15.1193 34.1193 14 35.5 14C36.8807 14 38 15.1193 38 16.5Z" fill="#202020"/>
<path fill-rule="evenodd" clip-rule="evenodd" d="M23.2708 28.9351C21.708 28.7047 20.3847 27.905 19.6712 27.2589C19.2619 26.8882 18.6295 26.9195 18.2588 27.3289C17.888 27.7383 17.9194 28.3707 18.3288 28.7414C19.282 29.6045 20.9586 30.6159 22.9792 30.9137C25.047 31.2186 27.4354 30.766 29.6712 28.7414C30.0806 28.3707 30.112 27.7383 29.7413 27.3289C29.3705 26.9195 28.7382 26.8882 28.3288 27.2589C26.5646 28.8564 24.7863 29.1585 23.2708 28.9351Z" fill="black"/>
</svg>
