<svg width="47" height="47" viewBox="0 0 47 47" fill="none" xmlns="http://www.w3.org/2000/svg">
<circle cx="23.5" cy="23.5" r="22.5" stroke="black" stroke-width="2"/>
<path d="M15 16.5C15 17.8807 13.8807 19 12.5 19C11.1193 19 10 17.8807 10 16.5C10 15.1193 11.1193 14 12.5 14C13.8807 14 15 15.1193 15 16.5Z" fill="#202020"/>
<path d="M38 16.5C38 17.8807 36.8807 19 35.5 19C34.1193 19 33 17.8807 33 16.5C33 15.1193 34.1193 14 35.5 14C36.8807 14 38 15.1193 38 16.5Z" fill="#202020"/>
<path d="M36.9999 23C37.5522 23 38.0036 23.4483 37.9642 23.9992C37.8571 25.4957 37.51 26.9675 36.9342 28.3576C36.2307 30.0561 35.1994 31.5995 33.8994 32.8995C32.5994 34.1995 31.056 35.2307 29.3575 35.9343C27.6589 36.6379 25.8384 37 23.9999 37C22.1614 37 20.3409 36.6379 18.6423 35.9343C16.9438 35.2307 15.4004 34.1995 14.1004 32.8995C12.8004 31.5995 11.7692 30.0561 11.0656 28.3576C10.4898 26.9675 10.1427 25.4957 10.0356 23.9992C9.99619 23.4483 10.4476 23 10.9999 23L23.9999 23H36.9999Z" fill="#202020"/>
</svg>
