<svg width="195" height="162" viewBox="0 0 195 162" fill="none" xmlns="http://www.w3.org/2000/svg">
<path d="M113.539 111.957L80.4109 54.4159M118.103 112.795L115.337 57.9824M131.025 115.166L149.966 64.3371M135.23 115.937L182.95 73.2326" stroke="#0064D1" stroke-width="4.15247"/>
<path d="M100.812 46.4028C95.1746 45.5589 88.8397 47.0509 82.0429 51.341C89.1572 25.9407 112.49 9.19044 137.159 11.619C138.505 11.7515 139.856 11.941 141.209 12.1894C142.116 12.3559 143.013 12.5466 143.899 12.761C168.311 18.6675 184.716 42.5914 182.683 69.0346C181.211 66.822 179.188 64.3706 176.49 62.4723C173.545 60.4003 169.792 58.9535 165.092 59.0085C160.826 59.0584 155.894 60.3433 150.178 63.3453C144.147 55.2566 137.661 52.3826 131.301 52.4168C125.611 52.4475 120.324 54.8271 116.091 57.0126C112.527 51.4404 107.351 47.3817 100.812 46.4028Z" stroke="#0064D1" stroke-width="4.15247"/>
<mask id="path-3-inside-1_915_8150" fill="white">
<rect x="106.597" y="109.622" width="36.0765" height="33.6806" rx="3.32197" transform="rotate(10.3985 106.597 109.622)"/>
</mask>
<rect x="106.597" y="109.622" width="36.0765" height="33.6806" rx="3.32197" transform="rotate(10.3985 106.597 109.622)" stroke="#0064D1" stroke-width="8.30493" mask="url(#path-3-inside-1_915_8150)"/>
<mask id="path-4-inside-2_915_8150" fill="white">
<rect x="115.781" y="118.436" width="15.6295" height="8.55402" rx="3.32197" transform="rotate(10.3985 115.781 118.436)"/>
</mask>
<rect x="115.781" y="118.436" width="15.6295" height="8.55402" rx="3.32197" transform="rotate(10.3985 115.781 118.436)" fill="#EC3A0E" stroke="#EC3A0E" stroke-width="8.30493" mask="url(#path-4-inside-2_915_8150)"/>
<path d="M7.78202 110.993C6.31804 116.005 6.39086 121.023 7.99195 125.458C9.59304 129.893 12.6562 133.563 16.8231 136.037C21.2109 138.528 26.4987 139.735 32.1285 139.531C37.7582 139.327 43.521 137.718 48.8087 134.876C55.8176 131.32 65.1549 125.272 67.7338 118.082C69.3687 113.35 68.2927 107.213 62.8991 106.097C57.5055 104.98 53.4705 110.352 53.7981 114.655C54.2869 120.637 61.0049 124.305 66.6813 125.772C73.2913 127.562 80.8128 127.12 88.0483 124.515C88.9153 124.212 88.6189 123.037 87.752 123.339C76.8707 127.209 63.849 126.319 57.4477 118.86C56.3276 117.877 55.6117 116.557 55.3867 115.059C55.1617 113.56 55.4371 111.948 56.1797 110.416C58.6545 106.233 63.6142 106.54 65.7154 109.541C68.6988 113.781 66.446 120.229 62.0313 124.34C50.0193 135.51 32.6306 142.242 19.2292 135.764C14.7887 133.568 11.4509 130.044 9.65092 125.651C7.85095 121.259 7.67236 116.201 9.1385 111.139C9.39179 110.328 8.06615 110.185 7.82338 111.012L7.78202 110.993Z" fill="#EC3A0E"/>
<path d="M47.8925 85.0226L52.2263 89.0459C52.4785 89.2798 52.8414 89.3504 53.1634 89.228L58.2696 87.2877C59.0263 87.0002 59.7493 87.7735 59.4107 88.5066L57.0408 93.6598C56.917 93.9286 56.9331 94.2408 57.0827 94.4947L60.1347 99.6628C60.5143 100.307 59.9903 101.107 59.2463 101.018L53.2811 100.298C52.9865 100.262 52.6911 100.374 52.4946 100.597L48.5128 105.097C48.0155 105.657 47.0925 105.407 46.9486 104.673L45.7984 98.7827C45.7416 98.4935 45.5463 98.2493 45.2752 98.1306L40.0802 95.8539C39.3395 95.529 39.3688 94.4717 40.1239 94.1848L45.2301 92.2445C45.552 92.1222 45.7765 91.8284 45.8098 91.486L46.3781 85.6C46.4505 84.8561 47.3466 84.5156 47.8931 85.0242L47.8925 85.0226Z" fill="#FFB600"/>
<path d="M78.8207 83.5374L79.4616 87.0533C79.499 87.2578 79.6491 87.4234 79.8492 87.4807L83.0228 88.3901C83.4931 88.5248 83.5631 89.1608 83.1338 89.393L80.1215 91.0291C79.9643 91.1143 79.859 91.2713 79.8395 91.4483L79.4458 95.0542C79.3963 95.5033 78.8531 95.7007 78.5252 95.3885L75.899 92.8807C75.7693 92.7567 75.5858 92.7041 75.4101 92.7406L71.8543 93.4769C71.4108 93.5681 71.0546 93.113 71.2505 92.7058L72.8262 89.4387C72.9034 89.2781 72.8973 89.0893 72.8091 88.9337L71.119 85.9513C70.8782 85.5259 71.2751 85.0249 71.7444 85.1594L74.9179 86.0688C75.118 86.1261 75.333 86.0652 75.473 85.9115L77.8788 83.2686C78.1831 82.9349 78.74 83.0945 78.8204 83.5385L78.8207 83.5374Z" fill="#FFB600"/>
<path d="M88.5238 147.529L90.5189 150.494C90.635 150.667 90.8388 150.758 91.0451 150.731L94.3173 150.293C94.8022 150.229 95.121 150.783 94.8206 151.168L92.7153 153.873C92.6054 154.014 92.5718 154.2 92.6248 154.37L93.7077 157.832C93.8422 158.264 93.4235 158.662 92.998 158.507L89.5874 157.261C89.4189 157.199 89.2296 157.224 89.0833 157.328L86.1197 159.426C85.7498 159.687 85.2412 159.413 85.2577 158.962L85.3935 155.337C85.4 155.159 85.3187 154.988 85.1756 154.881L82.4329 152.825C82.0419 152.531 82.205 151.913 82.6889 151.849L85.961 151.411C86.1673 151.384 86.34 151.242 86.4067 151.045L87.5531 147.66C87.6983 147.232 88.2726 147.155 88.524 147.53L88.5238 147.529Z" fill="#FFB600"/>
<path d="M176.391 112.679L176.064 118.329C176.046 118.657 176.215 118.968 176.501 119.131L181.045 121.715C181.719 122.098 181.589 123.103 180.842 123.3L175.595 124.693C175.321 124.765 175.101 124.968 175.005 125.233L173.052 130.635C172.809 131.308 171.899 131.408 171.511 130.806L168.406 125.966C168.253 125.726 167.99 125.577 167.706 125.568L161.959 125.373C161.242 125.348 160.864 124.514 161.318 123.961L164.963 119.521C165.141 119.303 165.203 119.01 165.125 118.738L163.638 113.517C163.426 112.773 164.224 112.15 164.896 112.532L169.44 115.117C169.726 115.28 170.08 115.266 170.353 115.082L175.042 111.913C175.635 111.513 176.432 111.967 176.39 112.68L176.391 112.679Z" fill="#FFB600"/>
</svg>
