<svg width="320" height="88" viewBox="0 0 320 88" fill="none" xmlns="http://www.w3.org/2000/svg">
<g clip-path="url(#clip0_292_4820)">
<g clip-path="url(#clip1_292_4820)">
<rect width="320" height="88" fill="#FFF2F2"/>
<path d="M324.059 78.7071C324.335 74.7626 323.474 71.0618 321.576 68.0378C319.678 65.0137 316.821 62.7913 313.339 61.6307C309.692 60.4935 305.585 60.4512 301.452 61.5083C297.32 62.5654 293.315 64.6826 289.859 67.6365C285.246 71.3954 279.31 77.3729 278.559 83.1079C278.11 86.8717 279.894 91.2395 284.064 91.1977C288.235 91.1559 290.356 86.5324 289.421 83.4011C288.097 79.0534 282.536 77.4205 278.1 77.2483C272.921 76.9872 267.427 78.5249 262.492 81.6165C261.9 81.9799 262.308 82.8018 262.901 82.4384C270.329 77.8248 280.108 76.3875 286.044 80.8769C287.031 81.4237 287.773 82.2855 288.181 83.358C288.588 84.4305 288.644 85.6679 288.341 86.9208C287.183 90.4143 283.464 90.9849 281.426 89.1023C278.537 86.4453 279.166 81.3119 281.771 77.5599C288.862 67.3623 300.645 59.5829 311.603 62.2201C315.242 63.1306 318.279 65.2011 320.317 68.1616C322.356 71.1222 323.302 74.8353 323.031 78.8169C322.974 79.4577 323.978 79.3504 324.025 78.6992L324.059 78.7071Z" fill="#003D9F"/>
<path d="M188.788 53.3541L188.843 53.2968C193.562 57.8558 194.483 64.7312 190.893 70.2818L190.83 70.2414L190.893 70.2818C186.912 76.4312 179.774 79.8434 173.063 81.9893C163.98 84.8995 154.435 86.2161 144.912 86.0724H144.879H144.877C144.746 86.069 144.643 86.0151 144.574 85.9329C144.506 85.8522 144.474 85.7486 144.474 85.6481C144.474 85.5476 144.506 85.4443 144.574 85.3647C144.644 85.2835 144.748 85.2321 144.879 85.2321H144.88C149.512 85.2983 154.133 85.0333 158.71 84.3927C166.889 83.2436 175.608 81.2115 182.685 76.788C185.624 74.9519 188.473 72.4508 190.295 69.4844C192.116 66.5198 192.91 63.0929 191.746 59.3951L191.825 59.3702L191.746 59.3951C190.696 56.0583 188.325 53.5325 185.428 51.6351C182.531 49.7376 179.113 48.472 175.979 47.6553C174.592 47.2935 173.094 46.9649 171.545 46.7194C172.583 48.7749 173.176 51.0453 173.143 53.4571C173.104 56.509 172.03 59.6881 170.145 62.1347C168.26 64.5821 165.56 66.3003 162.271 66.4175C159.346 66.5233 156.368 65.3454 154.25 63.362C152.132 61.3776 150.871 58.5818 151.394 55.4542L151.394 55.4541C151.96 52.0964 154.359 49.2923 157.203 47.5922C160.849 45.4119 165.265 45.1703 169.368 45.6021C169.574 45.6239 169.781 45.6468 169.988 45.6711C166.179 39.5791 158.656 36.5982 151.615 36.3271L151.619 36.2441L151.615 36.3271C144.284 36.039 137.258 38.1127 130.269 40.1754C128.424 40.7199 126.582 41.2637 124.737 41.7631C110.839 45.5357 96.1168 46.2653 81.796 45.6681C74.3483 45.3585 66.9113 44.6175 59.562 43.3455L59.562 43.3455C52.7537 42.1623 45.8977 40.5913 39.4478 38.0348L39.4784 37.9576L39.4478 38.0347C33.5375 35.6882 27.8056 32.2203 24.0374 26.9403C21.2407 23.0233 19.7927 18.2632 19.9254 13.4475C20.1028 6.75649 25.5788 1.71598 31.4314 -0.534264C35.5401 -2.11971 39.9085 -2.66753 44.3195 -2.90399C46.2112 -3.00541 48.1122 -3.04959 50.004 -3.09356C50.3177 -3.10085 50.6311 -3.10814 50.9442 -3.11568C53.1463 -3.1687 55.3323 -3.2343 57.4773 -3.40269M188.788 53.3541L57.4838 -3.31993M188.788 53.3541L188.843 53.2968C184.172 48.7909 177.398 46.6773 171.046 45.8055M188.788 53.3541L171.046 45.8055M57.4773 -3.40269L57.4838 -3.31993M57.4773 -3.40269C57.4773 -3.40269 57.4773 -3.40269 57.4773 -3.40269L57.4838 -3.31993M57.4773 -3.40269C70.3334 -4.4192 83.7718 -7.4792 94.2041 -15.4574M57.4838 -3.31993C70.3464 -4.33694 83.8037 -7.39905 94.2545 -15.3915M94.2041 -15.4574C94.2041 -15.4574 94.2041 -15.4574 94.204 -15.4574L94.2545 -15.3915M94.2041 -15.4574C101.205 -20.8188 106.194 -28.265 108.502 -36.7815L108.502 -36.7828C108.539 -36.9098 108.617 -36.9968 108.714 -37.0434C108.81 -37.089 108.918 -37.0932 109.015 -37.0665C109.112 -37.0398 109.204 -36.9808 109.262 -36.8931C109.322 -36.8036 109.345 -36.6892 109.312 -36.5619L109.312 -36.5612C108.793 -34.6454 108.153 -32.7625 107.37 -30.9345M94.2041 -15.4574L94.2545 -15.3915M94.2545 -15.3915L107.37 -30.9345M107.37 -30.9345C107.37 -30.9346 107.37 -30.9346 107.37 -30.9346L107.293 -30.9672M107.37 -30.9345L108.582 -36.7598C108.703 -37.1799 109.342 -37.003 109.232 -36.5829C108.714 -34.6705 108.075 -32.7912 107.293 -30.9672M107.37 -30.9345C103.529 -21.9494 96.4439 -14.9497 87.8729 -10.4429L87.8386 -10.5081L87.8728 -10.4429C81.9723 -7.34301 75.5439 -5.35097 69.0297 -4.10068M107.37 -30.9345L107.293 -30.9672M107.293 -30.9672C103.461 -22.002 96.3909 -15.0156 87.8342 -10.5164C81.9426 -7.42116 75.5223 -5.43134 69.0139 -4.18218C65.1265 -3.43048 61.195 -2.93303 57.2526 -2.63455C54.7887 -2.44474 52.3219 -2.36866 49.8567 -2.29263C47.584 -2.22253 45.3127 -2.15247 43.0465 -1.99339C34.8532 -1.42961 24.6005 0.947105 21.3849 9.69122C19.4577 14.9089 21.2748 21.4422 24.2481 25.9082L57.2589 -2.55178M171.046 45.8055C168.887 42.1309 165.299 39.2278 161.419 37.5607C153.077 33.9669 143.636 35.5777 135.221 37.8775L135.24 37.947L135.221 37.8775C133.823 38.2601 132.431 38.6502 131.043 39.0394C124.567 40.8553 118.159 42.6517 111.445 43.5795C95.6173 45.7671 79.2717 45.4468 63.4757 43.1153M171.046 45.8055L63.4757 43.1153M63.4757 43.1153C63.4758 43.1153 63.4758 43.1153 63.4758 43.1153L63.4639 43.1956L63.4757 43.1153ZM57.2589 -2.55178C61.2041 -2.85047 65.1388 -3.3483 69.0297 -4.10068M57.2589 -2.55178C57.2589 -2.55178 57.2589 -2.55178 57.2588 -2.55178L57.2527 -2.63311L57.2589 -2.55178ZM69.0297 -4.10068L69.0142 -4.18059L69.0296 -4.10066C69.0296 -4.10067 69.0296 -4.10067 69.0297 -4.10068ZM163.357 46.4511C165.688 46.161 168.142 46.2577 170.51 46.5692C170.825 47.1535 171.107 47.7639 171.353 48.4008C172.567 51.5416 172.486 55.3918 171.196 58.6543C169.907 61.9157 167.414 64.5804 163.814 65.369C160.211 66.1581 156.598 64.7663 154.359 62.3018C152.121 59.8396 151.259 56.3122 153.145 52.8211L153.087 52.7897L153.145 52.8211C155.337 48.762 159.143 46.9754 163.357 46.4511Z" fill="#002EA4" stroke="#003D9F" stroke-width="0.166026"/>
<path d="M142.991 7.00809L143.791 3.98898L144.182 3.84521L144.942 6.90528L148.269 8.1786L145.127 9.04117L143.935 12.2861L142.888 9.04117L139.828 7.91161L142.991 7.00809Z" fill="#002EA4"/>
<path d="M146.492 8.45786C146.043 8.56066 145.576 8.64478 145.137 8.76627C144.828 8.85038 144.754 8.99057 144.67 9.28963C144.548 9.72888 144.445 10.1775 144.333 10.6261C144.277 10.8317 144.23 11.0466 144.174 11.2522C144.146 11.355 144.081 11.9158 143.987 11.9719C144.006 11.9625 143.735 10.9438 143.707 10.8317C143.595 10.3364 143.483 9.85038 143.37 9.35505C143.305 9.05599 143.258 8.87842 142.969 8.75692C142.529 8.5887 142.015 8.51394 141.567 8.40179C141.156 8.29898 140.735 8.18683 140.324 8.07469C140.305 8.07469 140.109 8.0373 140.109 8.01861C140.109 8.01861 140.427 7.94384 140.408 7.94384C140.66 7.88777 140.913 7.8317 141.156 7.76628C141.576 7.67282 141.987 7.57001 142.408 7.47656C142.726 7.40179 143.146 7.40179 143.314 7.08404C143.492 6.74759 143.539 6.26161 143.632 5.88778C143.754 5.41115 143.875 4.93452 143.997 4.45788C143.997 4.48592 144.081 4.14013 144.081 4.14013C144.118 4.15882 144.127 4.30835 144.137 4.33639C144.193 4.54199 144.23 4.75695 144.286 4.96255C144.399 5.42984 144.501 5.89713 144.613 6.36441C144.688 6.70086 144.698 7.14946 145.034 7.32703C145.417 7.52329 145.95 7.57002 146.37 7.68216C146.501 7.71955 147.941 8.0373 147.931 8.09338C147.931 8.17749 146.66 8.42982 146.52 8.46721L146.866 8.66347V8.63543C146.772 8.28029 146.221 8.42982 146.314 8.78496V8.813C146.361 8.96253 146.52 9.04664 146.67 9.00926C147.165 8.87842 147.763 8.813 148.23 8.59805C148.529 8.45786 148.679 8.10272 148.483 7.80366C148.249 7.45787 147.66 7.42048 147.305 7.32703C146.735 7.17749 146.156 7.02796 145.585 6.87843C145.23 6.78497 145.314 6.86908 145.24 6.51395C145.184 6.25227 145.118 5.99058 145.062 5.7289C144.922 5.14012 144.847 4.47657 144.632 3.91583C144.529 3.63546 144.268 3.4392 143.959 3.52331C143.52 3.63546 143.492 4.16816 143.399 4.53265C143.258 5.08405 143.109 5.64479 142.969 6.19619C142.931 6.33638 142.913 6.54198 142.847 6.67282L142.828 6.74759C142.828 6.8317 142.8 6.85039 142.735 6.80366C142.501 6.94385 142.062 6.9532 141.8 7.01862C141.24 7.14946 140.679 7.26161 140.118 7.41114C139.791 7.49525 139.483 7.68216 139.529 8.06534C139.585 8.47655 140.006 8.55132 140.342 8.63543C140.913 8.78496 141.483 8.93449 142.053 9.07468C142.202 9.11206 142.726 9.16814 142.828 9.27094C142.688 9.13075 142.847 9.52328 142.856 9.55131C142.884 9.66346 142.903 9.76627 142.931 9.87841C143.081 10.5139 143.221 11.1588 143.37 11.7943C143.455 12.1681 143.585 12.6167 144.062 12.5513C144.539 12.4859 144.585 11.9812 144.679 11.6074C144.838 10.9812 144.997 10.3457 145.156 9.71954C145.184 9.62608 145.212 9.31767 145.277 9.2429C145.156 9.3644 145.483 9.23356 145.548 9.21487C145.922 9.13075 146.296 9.04664 146.67 8.96253C147.043 8.87842 146.875 8.33637 146.52 8.41113L146.492 8.45786Z" fill="#002EA4"/>
<path d="M140.402 65.095L141.042 62.6809L141.354 62.5659L141.962 65.0128L144.622 66.0309L142.11 66.7207L141.157 69.3153L140.32 66.7207L137.873 65.8175L140.402 65.095Z" fill="#EC3A0E"/>
<path d="M143.202 66.2542C142.843 66.3364 142.47 66.4036 142.118 66.5008C141.872 66.568 141.812 66.6801 141.745 66.9193C141.648 67.2705 141.565 67.6292 141.476 67.9879C141.431 68.1523 141.394 68.3242 141.349 68.4886C141.326 68.5708 141.274 69.0192 141.199 69.064C141.214 69.0565 140.997 68.242 140.975 68.1523C140.885 67.7562 140.796 67.3676 140.706 66.9716C140.654 66.7324 140.616 66.5904 140.385 66.4933C140.033 66.3588 139.622 66.299 139.264 66.2093C138.935 66.1271 138.599 66.0374 138.27 65.9478C138.255 65.9478 138.098 65.9179 138.098 65.9029C138.098 65.9029 138.352 65.8432 138.337 65.8432C138.539 65.7983 138.741 65.7535 138.935 65.7012C139.271 65.6264 139.6 65.5442 139.936 65.4695C140.19 65.4097 140.527 65.4097 140.661 65.1556C140.803 64.8866 140.841 64.498 140.915 64.1991C141.012 63.818 141.11 63.4369 141.207 63.0557C141.207 63.0782 141.274 62.8017 141.274 62.8017C141.304 62.8166 141.311 62.9362 141.319 62.9586C141.364 63.123 141.394 63.2949 141.438 63.4593C141.528 63.8329 141.61 64.2066 141.7 64.5802C141.76 64.8492 141.767 65.2079 142.036 65.3499C142.343 65.5069 142.769 65.5442 143.105 65.6339C143.209 65.6638 144.36 65.9179 144.353 65.9627C144.353 66.03 143.337 66.2317 143.224 66.2616L143.501 66.4186V66.3962C143.426 66.1122 142.985 66.2317 143.06 66.5157V66.5381C143.097 66.6577 143.224 66.725 143.344 66.6951C143.74 66.5904 144.218 66.5381 144.592 66.3663C144.831 66.2542 144.951 65.9702 144.794 65.7311C144.607 65.4546 144.136 65.4247 143.852 65.3499C143.396 65.2304 142.933 65.1108 142.477 64.9912C142.193 64.9165 142.26 64.9838 142.201 64.6998C142.156 64.4905 142.103 64.2813 142.059 64.0721C141.947 63.6013 141.887 63.0707 141.715 62.6223C141.633 62.3981 141.423 62.2412 141.177 62.3084C140.826 62.3981 140.803 62.8241 140.728 63.1155C140.616 63.5564 140.497 64.0048 140.385 64.4457C140.355 64.5578 140.34 64.7222 140.288 64.8268L140.273 64.8866C140.273 64.9539 140.25 64.9688 140.198 64.9314C140.011 65.0435 139.66 65.051 139.451 65.1033C139.002 65.2079 138.554 65.2976 138.105 65.4172C137.844 65.4844 137.597 65.6339 137.635 65.9403C137.679 66.2691 138.016 66.3289 138.285 66.3962C138.741 66.5157 139.196 66.6353 139.652 66.7474C139.772 66.7773 140.19 66.8221 140.273 66.9043C140.16 66.7922 140.288 67.1061 140.295 67.1285C140.317 67.2182 140.332 67.3004 140.355 67.3901C140.474 67.8982 140.586 68.4139 140.706 68.922C140.773 69.2209 140.878 69.5796 141.259 69.5273C141.64 69.475 141.678 69.0715 141.752 68.7726C141.879 68.2719 142.006 67.7637 142.133 67.263C142.156 67.1883 142.178 66.9417 142.231 66.8819C142.133 66.979 142.395 66.8744 142.447 66.8595C142.746 66.7922 143.045 66.725 143.344 66.6577C143.643 66.5904 143.508 66.157 143.224 66.2168L143.202 66.2542Z" fill="#EC3A0E"/>
<path d="M35.3342 53.2161C34.9456 53.3058 34.537 53.3756 34.1484 53.4852C33.8594 53.5649 33.7797 53.7044 33.7 53.9834C33.5904 54.372 33.5007 54.7606 33.4011 55.1493C33.3612 55.3187 33.0623 56.2852 33.152 56.3251C33.2217 56.355 33.1021 55.9365 33.0922 55.8767C33.0523 55.6973 33.0124 55.518 32.9626 55.3386C32.863 54.9101 32.7633 54.4816 32.6637 54.0532C32.6039 53.7841 32.5541 53.5848 32.2751 53.4952C31.8765 53.3656 31.458 53.2859 31.0494 53.1863C30.7106 53.0966 30.312 52.9172 29.9633 52.9072C29.9434 52.9072 29.7042 52.8076 29.774 52.967C29.774 52.967 30.053 52.8973 30.033 52.9072C30.2523 52.8574 30.4715 52.8076 30.6907 52.7578C31.0494 52.678 31.4181 52.5884 31.7768 52.5087C32.0658 52.4389 32.4644 52.4389 32.6039 52.13C32.7434 51.8211 32.7932 51.4225 32.8829 51.0837C32.9925 50.6652 33.0922 50.2567 33.2018 49.8381C33.2018 49.8581 33.2715 49.5591 33.2715 49.5591C33.1221 49.4993 33.2117 49.6986 33.2117 49.7285C33.2117 49.8979 33.3014 50.1072 33.3413 50.2766C33.4409 50.6851 33.5306 51.0937 33.6203 51.5022C33.69 51.8111 33.7 52.2296 34.0288 52.3791C34.3776 52.5385 34.816 52.5884 35.1947 52.688C35.6431 52.8076 36.1015 52.9471 36.5598 53.0467C36.3904 53.0168 36.6694 52.977 36.3705 52.9969C36.241 53.0069 36.1015 53.0667 35.9819 53.0966C35.7627 53.1563 35.5434 53.2062 35.3342 53.266L35.7029 53.4752V53.4453C35.6032 53.0667 35.0153 53.2261 35.115 53.6048V53.6347C35.1648 53.7941 35.3342 53.8838 35.4936 53.8439C35.7926 53.7642 36.1015 53.6845 36.4004 53.6048C36.6097 53.5549 36.8388 53.535 37.0082 53.3855C37.3072 53.1265 37.1976 52.678 36.8687 52.5087C36.6595 52.399 36.4004 52.3692 36.1812 52.3094C35.8623 52.2296 35.5434 52.14 35.2246 52.0602C34.9555 51.9905 34.6765 51.8809 34.4075 51.851C34.2481 51.7912 34.2281 51.8012 34.3377 51.8809L34.3078 51.7414C34.3078 51.5919 34.2281 51.4125 34.1982 51.2631C34.0687 50.6951 33.9392 50.1271 33.7996 49.5591C33.71 49.1805 33.4608 48.8018 33.0124 48.9812C32.5939 49.1606 32.564 49.8381 32.4744 50.2068C32.3249 50.7748 32.2252 51.3926 32.016 51.9407L32.1555 51.7613C32.006 51.851 31.7768 51.861 31.6074 51.9008C31.4281 51.9407 31.2487 51.9805 31.0594 52.0304C30.7007 52.1101 30.3419 52.1898 29.9932 52.2795C29.5946 52.3692 28.9768 52.5585 29.2259 53.1165C29.3056 53.2959 29.485 53.3855 29.6643 53.4453C30.0131 53.5649 30.3918 53.6347 30.7505 53.7243C31.0694 53.804 31.3882 53.8838 31.6971 53.9635L31.9662 54.0332C32.1256 54.103 32.1455 54.0831 32.026 53.9934C32.1156 54.1229 32.1156 54.4119 32.1555 54.5614C32.2452 54.94 32.3349 55.3286 32.4245 55.7073C32.4943 55.9963 32.5242 56.3151 32.6438 56.5842C32.8132 56.9728 33.3413 57.0724 33.6004 56.6938C33.7698 56.4447 33.7897 56.076 33.8694 55.787C33.9491 55.4681 34.0288 55.1493 34.1185 54.8304C34.1683 54.651 34.2082 54.4617 34.258 54.2823L34.3278 54.0033C34.2082 54.093 34.2281 54.113 34.3876 54.0532C34.7363 54.0532 35.1548 53.8738 35.5036 53.7941C35.8822 53.7044 35.7228 53.1265 35.3442 53.2062L35.3342 53.2161Z" fill="#002EA4"/>
<path d="M201.179 21.2954C199.959 22.5449 198.449 23.4731 196.784 23.9974C195.118 24.5216 193.349 24.6256 191.633 24.3001C189.918 23.9746 188.309 23.2296 186.952 22.1316C185.594 21.0337 184.529 19.6168 183.852 18.0074C183.607 17.4568 182.812 18.0074 183.041 18.4814C183.789 20.2252 184.956 21.7571 186.439 22.9411C187.921 24.125 189.674 24.9243 191.54 25.2678C193.406 25.6114 195.327 25.4885 197.135 24.9102C198.942 24.3319 200.578 23.3161 201.898 21.953C201.985 21.8658 202.034 21.7475 202.034 21.6242C202.034 21.5009 201.985 21.3826 201.898 21.2954C201.81 21.2082 201.692 21.1592 201.569 21.1592C201.445 21.1592 201.327 21.2082 201.24 21.2954H201.179Z" fill="#002EA4"/>
<path d="M196.728 15.8053H196.85H196.958H197.049L197.126 15.9124V16.0347V16.1571V16.2794L197.049 16.3712H196.958H196.85H196.728H196.621H196.514L196.438 16.2794V16.1571V16.0042C196.438 16.0042 196.438 16.0042 196.438 16.0959V15.9889L196.514 15.8818H196.606H196.728C196.605 15.8952 196.489 15.9429 196.392 16.0195C196.347 16.0607 196.315 16.1138 196.3 16.1724C196.286 16.2328 196.286 16.2955 196.3 16.3559C196.304 16.479 196.356 16.5957 196.444 16.6813C196.533 16.7669 196.651 16.8148 196.774 16.8147H196.958C197.054 16.7906 197.143 16.7434 197.217 16.677V16.677L197.309 16.5547C197.303 16.509 197.303 16.4628 197.309 16.4171C197.309 16.4171 197.309 16.2794 197.309 16.2183C197.302 16.0912 197.271 15.9666 197.217 15.8512V15.8512C197.217 15.8512 197.217 15.8512 197.126 15.7442L197.019 15.6524C196.919 15.6243 196.813 15.6243 196.713 15.6524C196.617 15.6317 196.518 15.6317 196.422 15.6524H196.346C196.302 15.6969 196.265 15.7486 196.239 15.8053C196.224 15.8604 196.224 15.9185 196.239 15.9736C196.231 16.0396 196.231 16.1063 196.239 16.1724C196.239 16.1724 196.239 16.2794 196.239 16.3253V16.4629C196.255 16.5125 196.288 16.5554 196.331 16.5853C196.366 16.5923 196.402 16.5923 196.438 16.5853V16.5853H196.56H196.728C196.788 16.6023 196.852 16.6023 196.912 16.5853L197.065 16.4782C197.109 16.4429 197.141 16.3948 197.156 16.3406C197.17 16.2802 197.17 16.2175 197.156 16.1571C197.15 16.0326 197.101 15.914 197.019 15.8206H196.927C196.847 15.7977 196.762 15.7977 196.682 15.8206L196.728 15.8053Z" fill="#002EA4" stroke="#002EA4" stroke-width="0.844595"/>
<path d="M189.25 14.2913H189.326H189.433H189.525L189.602 14.3831V14.4901C189.602 14.4901 189.602 14.4901 189.602 14.4137V14.6278V14.7348L189.525 14.8266H189.433H189.326H189.189H189.082H188.99V14.7348V14.6125V14.4595C188.99 14.4595 188.99 14.4595 188.99 14.5513V14.4442V14.3525H189.082H189.189H189.326C189.204 14.3534 189.085 14.3966 188.99 14.4748C188.946 14.5161 188.914 14.5691 188.898 14.6278C188.884 14.6882 188.884 14.7509 188.898 14.8113C188.902 14.932 188.951 15.0468 189.036 15.1324C189.079 15.1778 189.131 15.2136 189.189 15.2373C189.247 15.261 189.31 15.2722 189.372 15.2701H189.556C189.652 15.246 189.742 15.1988 189.816 15.1324V15.1324C189.859 15.1025 189.891 15.0596 189.908 15.0101V14.8572C189.908 14.8572 189.908 14.7195 189.908 14.6583C189.903 14.529 189.866 14.4029 189.801 14.2913V14.2913L189.709 14.169L189.586 14.0772C189.5 14.0219 189.398 13.9951 189.296 14.0007C189.194 14.0023 189.095 14.0285 189.005 14.0772V14.0772C188.956 14.1176 188.919 14.1704 188.898 14.2301C188.866 14.2884 188.841 14.3499 188.822 14.4137C188.822 14.4137 188.822 14.536 188.822 14.5972C188.822 14.6584 188.822 14.7042 188.822 14.7501V14.8877C188.849 14.9352 188.885 14.9768 188.929 15.0101H189.021H189.143H189.311C189.37 15.0324 189.436 15.0324 189.495 15.0101C189.554 14.9888 189.607 14.9518 189.648 14.903C189.692 14.8677 189.724 14.8196 189.739 14.7654C189.753 14.705 189.753 14.6423 189.739 14.5819C189.736 14.4612 189.687 14.3464 189.602 14.2607L189.51 14.1843C189.43 14.1613 189.345 14.1613 189.265 14.1843L189.25 14.2913Z" fill="#002EA4" stroke="#002EA4" stroke-width="0.844595"/>
<path d="M72.9689 3.34751L81.8672 1.7283C81.8672 1.7283 83.9225 1.37287 84.266 2.99862L84.8548 5.78509C85.2495 7.65278 85.286 9.00985 85.9759 12.0458C86.6657 15.0817 90.174 32.9898 90.174 32.9898C90.174 32.9898 91.4492 36.0766 88.9616 36.6789C86.4739 37.2811 71.7203 39.8163 71.7203 39.8163C71.7203 39.8163 69.8086 40.4701 69.2075 37.3565C68.6065 34.2428 64.9844 17.3759 64.6423 15.7568C63.5554 10.6131 63.5854 10.2977 63.1629 8.52702L62.7406 6.75724C62.7406 6.75724 62.6585 5.22468 64.6169 4.8683L72.9691 3.34845L72.9689 3.34751Z" fill="#FFF2F2"/>
<path d="M83.4849 38.3327C86.0578 37.8646 88.2721 37.4451 89.1185 37.2403C89.9207 37.0464 90.4875 36.6138 90.8021 35.9572C91.3834 34.7446 90.8469 33.18 90.7207 32.848C90.508 31.7652 87.193 14.8644 86.5276 11.9359C86.1261 10.1707 85.9481 8.97406 85.7902 7.91746C85.6792 7.17208 85.5741 6.46863 85.4079 5.68243L84.8189 2.89542C84.4543 1.16561 82.6566 1.0028 81.7572 1.15862L64.4955 4.29911C62.5765 4.64824 62.1403 6.06225 62.178 6.76133C62.1799 6.79716 62.1855 6.83233 62.1939 6.86794L62.6164 8.63807C62.8149 9.46924 62.9131 9.98328 63.0766 10.8335C63.2541 11.7584 63.523 13.1566 64.0932 15.8542C64.1616 16.1781 64.3607 17.1108 64.6413 18.4208C65.7894 23.7901 68.178 34.9615 68.6589 37.4475C68.9132 38.7633 69.4262 39.6643 70.1831 40.1269C70.9431 40.59 71.6639 40.4374 71.8696 40.3784C72.4983 40.2699 78.6311 39.2148 83.4865 38.3314L83.4849 38.3327ZM81.9914 2.28932C82.0464 2.28029 83.5033 2.05141 83.7238 3.09466L84.3128 5.88167C84.4716 6.63303 84.5693 7.28797 84.682 8.04576C84.8422 9.12245 85.0254 10.3436 85.4361 12.1521C86.1161 15.1454 89.597 32.9029 89.6321 33.0823C89.6402 33.1209 89.6513 33.1599 89.6666 33.1963C89.8185 33.5695 90.1386 34.6983 89.7898 35.4217C89.6191 35.7764 89.3014 36.0053 88.8196 36.1223C86.377 36.7134 71.7543 39.2271 71.6072 39.2538C71.5789 39.259 71.5519 39.2658 71.5244 39.2748C71.5155 39.2774 71.1182 39.3946 70.7134 39.1397C70.2702 38.8605 69.94 38.2137 69.7577 37.2701C69.2751 34.7717 66.8849 23.5927 65.7361 18.2197C65.4565 16.9105 65.2568 15.9788 65.1885 15.6559C64.6208 12.9696 64.3532 11.578 64.1767 10.6578C64.0105 9.79046 63.9094 9.26718 63.7054 8.40964L63.299 6.70697C63.3082 6.499 63.4293 5.66738 64.7345 5.42992L81.9916 2.29026L81.9914 2.28932Z" fill="#002EA4"/>
<path d="M80.9843 28.314C79.2883 24.6643 77.0648 21.4443 74.4985 18.447C74.4062 18.3395 74.317 18.2276 74.2157 18.1286C73.9804 17.8985 73.8527 17.655 73.846 17.297C73.8409 16.9967 73.6966 16.6735 73.5362 16.4074C72.9496 15.4339 72.1111 14.7289 71.0308 14.3484C70.6841 14.227 70.2797 14.1797 69.9142 14.2165C69.2214 14.2855 68.8357 14.8516 68.9534 15.5374C68.989 15.7439 69.0455 15.9578 69.1431 16.1425C69.7977 17.3731 70.8003 18.1889 72.1602 18.5571C72.3177 18.5997 72.5022 18.6399 72.6533 18.5996C73.0859 18.4869 73.3167 18.7093 73.5689 19.0056C76.1505 22.0367 78.4283 25.2644 80.0602 28.9053C80.4687 29.8162 80.7947 30.7635 81.1592 31.6936L81.073 31.7414C80.5053 31.4083 79.9413 31.0687 79.3695 30.7441C79.0807 30.5795 78.7816 30.4324 78.4784 30.2938C78.1559 30.1464 77.8456 30.2506 77.7163 30.527C77.5891 30.7991 77.6827 31.0879 77.9928 31.2368C79.3192 31.8723 80.5449 32.657 81.6913 33.574C81.8267 33.6827 82.1524 33.702 82.298 33.6136C82.4427 33.5254 82.5646 33.2311 82.5326 33.0578C82.4058 32.3853 82.2528 31.7132 82.0342 31.0655C81.8697 30.5791 81.8255 30.1087 81.8872 29.607C82.187 27.1871 83.1298 25.0314 84.6165 23.0977C84.6532 23.0509 84.6934 23.0073 84.729 22.9597C84.9341 22.682 84.909 22.3547 84.6701 22.1707C84.4392 21.9928 84.0992 22.0101 83.9117 22.2883C83.3091 23.1817 82.6531 24.0567 82.1794 25.0157C81.7115 25.9639 81.4385 27.0063 81.0813 28.0072C81.0542 28.083 81.0342 28.1603 80.9864 28.3145L80.9843 28.314ZM72.7554 17.5164C71.7489 17.6275 70.0495 16.2325 70.0364 15.2838C70.8709 14.9968 72.9541 16.7377 72.7554 17.5164V17.5164Z" fill="#002EA4"/>
<path d="M76.292 18.9692C76.3784 19.186 76.4599 19.4878 76.6115 19.7488C77.0215 20.4575 77.8011 20.5782 78.4316 20.0511C78.5489 19.9528 78.6671 19.8437 78.7496 19.7174C79.5825 18.4457 79.8443 17.0771 79.3376 15.635C78.9632 14.5698 77.8839 14.3938 77.1596 15.2734C76.2885 16.3305 76.1474 17.5827 76.292 18.9692ZM77.627 19.295C76.995 18.5235 77.3749 16.2685 78.1976 15.8167C78.8025 16.5742 78.4639 18.7062 77.627 19.295Z" fill="#002EA4"/>
<path d="M79.1109 23.2882C79.2339 23.5577 79.3633 23.9698 79.5923 24.3171C80.0908 25.0693 80.9539 25.0877 81.5464 24.3971C81.5544 24.3878 81.5614 24.3787 81.5693 24.3694C82.4413 23.3121 82.5405 20.9141 81.7591 19.7981C81.2096 19.0143 80.3231 18.9861 79.7346 19.7522C79.1646 20.4935 79.0394 21.3688 79.0338 22.267C79.0317 22.5601 79.0765 22.8536 79.1107 23.2873L79.1109 23.2882ZM80.7363 20.2746C81.4542 21.0312 81.3341 23.3029 80.569 23.7994C79.876 23.235 80.0005 20.7567 80.7363 20.2746Z" fill="#002EA4"/>
<path d="M73.6895 23.4883C73.9013 23.4092 74.1233 23.3522 74.3207 23.2489C74.9774 22.9059 75.1773 22.213 74.7744 21.6004C74.6093 21.3498 74.3881 21.112 74.1395 20.9434C73.1234 20.2529 71.9936 19.9584 70.7567 20.104C70.6976 20.1108 70.639 20.1203 70.5801 20.1338C70.0436 20.2533 69.564 20.4698 69.4016 21.0405C69.235 21.6246 69.5138 22.0867 69.9435 22.4429C71.0265 23.3405 72.2961 23.6163 73.6895 23.4883V23.4883ZM70.4664 21.3217C71.3672 20.8102 73.5472 21.4109 73.8683 22.2587C73.0019 22.7818 70.757 22.1629 70.4664 21.3217Z" fill="#002EA4"/>
<path d="M76.6477 27.9521C77.871 27.7077 78.2355 26.8242 77.6167 25.9304C76.8563 24.8325 74.7549 24.0348 73.4486 24.3485C72.4964 24.5775 72.1136 25.4327 72.6887 26.2173C72.9999 26.6411 73.4414 27.0076 73.8964 27.2836C74.7742 27.8157 75.7426 28.0878 76.6479 27.953L76.6477 27.9521ZM76.8182 26.7801C75.8729 27.1989 73.7207 26.3262 73.5414 25.4506C74.5326 25.0721 76.5461 25.8889 76.8182 26.7801V26.7801Z" fill="#002EA4"/>
<path d="M75.9253 30.4366C76.0159 30.3117 76.2239 30.1483 76.234 29.9754C76.2433 29.7988 76.0847 29.4773 75.9539 29.4518C75.2349 29.3125 74.5046 29.2198 73.7733 29.1766C73.6341 29.1681 73.4065 29.431 73.3442 29.6112C73.2619 29.8485 73.4016 30.1185 73.6645 30.1608C74.3767 30.2753 75.0974 30.3389 75.9262 30.4364L75.9253 30.4366Z" fill="#002EA4"/>
<path d="M72.7545 17.5177C72.9523 16.7392 70.87 14.9982 70.0355 15.2852C70.0486 16.2339 71.748 17.6288 72.7545 17.5177V17.5177Z" fill="#FFF2F2"/>
<path d="M77.6263 19.2946C78.4641 18.7056 78.8018 16.5738 78.1969 15.8163C77.374 16.2672 76.9931 18.5224 77.6263 19.2946V19.2946Z" fill="#FFF2F2"/>
<path d="M80.7415 20.2736C80.0055 20.7548 79.8801 23.2333 80.5742 23.7985C81.3395 23.3029 81.4596 21.0312 80.7415 20.2736Z" fill="#FFF2F2"/>
<path d="M70.4639 21.3202C70.7535 22.1617 72.9985 22.7806 73.8658 22.2573C73.5456 21.4093 71.3647 20.8088 70.4639 21.3202Z" fill="#FFF2F2"/>
<path d="M76.8239 26.7797C76.5519 25.8885 74.5384 25.0717 73.5472 25.4502C73.7274 26.3256 75.8787 27.1985 76.8239 26.7797V26.7797Z" fill="#FFF2F2"/>
<path d="M63.7399 10.4634L85.5093 6.20108C85.8203 6.14019 86.024 5.84052 85.9638 5.53266C85.9035 5.2248 85.6018 5.02409 85.2908 5.08498L63.5214 9.34727C63.2104 9.40816 63.0066 9.70784 63.0669 10.0157C63.1272 10.3236 63.4289 10.5243 63.7399 10.4634Z" fill="#002EA4"/>
<path d="M72.3738 6.66859L75.7082 6.01573C76.536 5.85366 77.0781 5.05508 76.9179 4.23661L76.8389 3.83295C76.6782 3.01262 75.8751 2.47839 75.0474 2.64046L71.7129 3.29332C70.8852 3.45539 70.343 4.25397 70.5035 5.07337L70.5825 5.47703C70.7429 6.29643 71.547 6.83047 72.3738 6.66859ZM75.2641 3.74726C75.4746 3.70605 75.6796 3.84166 75.7206 4.05093L75.7996 4.45459C75.8404 4.66292 75.7018 4.86679 75.4914 4.908L72.1569 5.56086C71.9464 5.60207 71.7414 5.46646 71.7004 5.25719L71.6213 4.85354C71.5806 4.6452 71.7192 4.44133 71.9296 4.40012L75.2641 3.74726V3.74726Z" fill="#002EA4"/>
<rect width="11.8607" height="22.9307" transform="matrix(-1 0 0 1 106.239 17.2886)" fill="#FFF2F2"/>
<path d="M89.0897 9.38159C88.8176 9.49381 88.5212 9.56766 88.2782 9.724C87.4811 10.2342 87.1916 11.2068 87.4957 12.1803C87.6942 12.8171 88.0138 13.3821 88.4815 13.8587C88.6432 14.0237 88.6684 14.1657 88.5687 14.3795C87.0647 17.5926 86.3132 21.0051 85.8687 24.4953C85.3128 28.8603 85.2944 33.2386 85.5511 37.6227C85.6092 38.6212 85.7041 39.6167 85.7544 40.6152C85.7622 40.7658 85.6508 40.9557 85.5375 41.0727C84.4868 42.1565 83.9503 43.4244 84.1343 44.9379C84.2563 45.946 84.726 46.7593 85.7138 47.1506C86.7597 47.5649 87.699 47.2446 88.5348 46.5809C89.3928 45.8999 89.8867 44.9849 90.1646 43.9165H90.5762C97.0617 43.9165 103.548 43.9193 110.034 43.9078C110.372 43.9078 110.483 44.0105 110.583 44.3231C110.966 45.5182 111.649 46.5051 112.838 47.0403C114.574 47.822 116.282 46.8341 116.487 44.9446C116.652 43.434 116.147 42.1507 115.071 41.0861C114.894 40.9106 114.826 40.7485 114.85 40.5058C115.166 37.2938 115.28 34.0731 115.203 30.8485C115.1 26.5181 114.673 22.2241 113.423 18.051C113.076 16.8953 112.63 15.7693 112.296 14.8179C112.661 14.3613 113.004 13.9547 113.322 13.5307C113.854 12.821 114.223 12.0518 114.112 11.132C114.006 10.2669 113.462 9.66069 112.609 9.44969C112.552 9.43626 112.499 9.40461 112.445 9.38159H111.622C111.604 9.39694 111.586 9.42187 111.565 9.42667C110.225 9.75085 109.212 10.4558 108.709 11.7813C108.671 11.8801 108.468 11.975 108.341 11.976C103.343 11.9856 98.3458 11.9827 93.3478 11.9894C93.1319 11.9894 93.0263 11.9089 92.9053 11.7391C92.5702 11.2691 92.2351 10.7915 91.8361 10.3762C91.319 9.83621 90.6169 9.59643 89.9138 9.38159C89.6398 9.38159 89.3647 9.38159 89.0907 9.38159H89.0897ZM115.199 44.3999C115.199 44.4862 115.21 44.5744 115.197 44.6588C115.119 45.17 115.003 45.6774 114.47 45.9143C113.931 46.1531 113.444 45.9584 113.006 45.6323C112.329 45.1288 111.923 44.4488 111.761 43.6316C111.57 42.661 111.505 42.6006 110.488 42.6006C103.652 42.6006 96.8157 42.6006 89.9806 42.6006C89.8431 42.6006 89.7046 42.5929 89.57 42.6111C89.2243 42.6562 88.9977 42.8365 88.9376 43.1914C88.9134 43.3372 88.896 43.4849 88.8621 43.6287C88.6326 44.5974 88.1523 45.3973 87.2284 45.8568C86.4323 46.2529 85.6963 45.9172 85.5065 45.0588C85.2218 43.7678 85.6586 42.6936 86.658 41.8572C87.0231 41.5513 87.179 41.2482 87.1102 40.7734C87.0153 40.1145 86.9698 39.447 86.9291 38.7823C86.7471 35.7486 86.6289 32.714 86.7616 29.6736C86.8962 26.5843 87.2013 23.519 87.8976 20.4997C88.3973 18.3301 89.0471 16.2115 90.1269 14.2424C90.2683 13.9844 90.2286 13.7369 90.0339 13.525C89.909 13.3888 89.754 13.2794 89.6204 13.1509C89.1071 12.657 88.6975 12.1074 88.7139 11.3535C88.7227 10.9593 88.9454 10.7061 89.3366 10.7138C89.6523 10.7205 89.9864 10.7752 90.275 10.896C91.0779 11.2317 91.5747 11.881 91.9049 12.6503C92.117 13.1442 92.4549 13.3073 92.9847 13.3053C97.575 13.2909 102.165 13.2977 106.757 13.2967C107.48 13.2967 108.203 13.2996 108.927 13.2957C109.412 13.2929 109.582 13.1672 109.765 12.7126C109.881 12.4268 109.971 12.1237 110.13 11.8628C110.579 11.1243 111.249 10.7176 112.127 10.7042C112.575 10.6975 112.823 10.9632 112.814 11.4053C112.81 11.5991 112.772 11.8014 112.706 11.9827C112.437 12.7097 111.931 13.2353 111.249 13.6036C110.598 13.9556 110.539 14.1753 110.815 14.8581C111.249 15.9333 111.72 16.9998 112.065 18.1028C113.283 21.9872 113.726 25.9935 113.865 30.04C113.988 33.6242 113.859 37.2017 113.503 40.7696C113.457 41.229 113.568 41.558 113.958 41.8534C114.791 42.4855 115.142 43.3803 115.199 44.3979V44.3999Z" fill="#002EA4"/>
<path d="M114.931 44.1547C114.875 43.1522 114.529 42.2717 113.711 41.6481C113.329 41.3571 113.22 41.033 113.264 40.5804C113.613 37.0648 113.741 33.5406 113.62 30.0108C113.483 26.0246 113.048 22.0781 111.852 18.2516C111.513 17.1641 111.051 16.1144 110.624 15.0553C110.353 14.3825 110.411 14.1662 111.051 13.8194C111.72 13.4566 112.218 12.9389 112.481 12.2227C112.547 12.0432 112.584 11.8448 112.588 11.6539C112.596 11.2184 112.353 10.9566 111.913 10.9633C111.051 10.9765 110.391 11.3771 109.951 12.1046C109.795 12.3616 109.706 12.6601 109.593 12.9417C109.413 13.3886 109.246 13.5124 108.769 13.5162C108.059 13.5209 107.348 13.5171 106.637 13.5171C102.128 13.5171 97.6189 13.5114 93.1087 13.5256C92.5883 13.5275 92.2563 13.3669 92.048 12.8803C91.7236 12.1225 91.2346 11.4829 90.4469 11.1522C90.1634 11.0332 89.8343 10.9793 89.5251 10.9727C89.1407 10.9642 88.9219 11.2136 88.9134 11.6029C88.8972 12.3446 89.3006 12.886 89.8038 13.3735C89.9351 13.5001 90.0873 13.6078 90.21 13.742C90.4012 13.9508 90.4402 14.1945 90.3013 14.4487C89.2416 16.3875 88.6023 18.4746 88.1114 20.6127C87.4284 23.587 87.1278 26.6075 86.9955 29.6498C86.8652 32.6449 86.9813 35.6343 87.1601 38.6228C87.1991 39.2785 87.2438 39.9351 87.338 40.5842C87.4055 41.0519 87.2524 41.3505 86.8937 41.6519C85.9129 42.4757 85.4829 43.5339 85.7626 44.8057C85.9491 45.6513 86.6721 45.9819 87.4541 45.5917C88.3616 45.1392 88.8335 44.3512 89.0589 43.3969C89.0922 43.2552 89.1093 43.1097 89.1331 42.9661C89.1921 42.6165 89.4147 42.4379 89.7543 42.3945C89.8875 42.3775 90.0236 42.3841 90.1577 42.3841C96.873 42.3841 103.588 42.3841 110.303 42.3841C111.301 42.3841 111.364 42.4436 111.554 43.3998C111.713 44.2047 112.111 44.8746 112.776 45.3707C113.206 45.6919 113.685 45.8837 114.215 45.6484C114.739 45.4151 114.852 44.9152 114.929 44.4117C114.941 44.3285 114.931 44.2416 114.931 44.1566V44.1547ZM98.6634 22.2217C98.6178 21.8145 98.516 21.361 98.5264 20.9112C98.5493 19.9551 99.0135 19.1699 99.6233 18.4632C100.323 17.6526 100.64 17.6469 101.339 18.466C102.129 19.391 102.627 20.4199 102.387 21.6784C102.35 21.8759 102.288 22.0677 102.225 22.3096C102.387 22.2595 102.497 22.2094 102.612 22.1915C103.202 22.0998 103.79 21.9827 104.384 21.9411C104.82 21.9099 105.077 22.1848 105.09 22.61C105.116 23.5397 104.942 24.426 104.447 25.229C104.323 25.4312 104.166 25.6136 103.996 25.8413C104.105 25.8488 104.162 25.8545 104.218 25.8564C104.914 25.88 105.102 26.0718 105.092 26.7691C105.078 27.7253 104.842 28.6181 104.279 29.4118C105.032 29.6243 105.116 29.7349 105.09 30.5172C105.082 30.7477 105.051 30.9773 105.018 31.206C104.78 32.8773 103.709 33.979 102.037 34.2794C101.751 34.3305 101.467 34.3834 101.164 34.4382C101.164 34.595 101.164 34.7273 101.164 34.8596C101.17 36.1984 101.177 37.5372 101.179 38.875C101.179 39.0319 101.169 39.1925 101.133 39.3437C101.064 39.6403 100.854 39.801 100.554 39.8114C100.236 39.8227 100.012 39.664 99.9249 39.3578C99.8859 39.2199 99.8792 39.0706 99.8782 38.9261C99.8725 37.5513 99.8716 36.1757 99.8697 34.801C99.8697 34.6744 99.8697 34.5468 99.8697 34.4212C98.9155 34.3229 98.0336 34.1698 97.2954 33.6086C96.3042 32.8547 95.9465 31.7917 95.8865 30.6051C95.8732 30.3339 95.8637 30.0127 95.9921 29.7982C96.112 29.5979 96.4193 29.5081 96.6523 29.3645C96.1938 28.7201 95.9455 27.9548 95.8884 27.1253C95.8161 26.0595 95.8922 25.9613 96.9415 25.8205C96.9149 25.7742 96.8978 25.7307 96.8683 25.6977C96.171 24.9088 95.9141 23.963 95.8694 22.9407C95.8352 22.1367 96.0568 21.8797 96.8673 21.9392C97.48 21.9845 98.086 22.1282 98.6625 22.2226L98.6634 22.2217Z" fill="#FFF2F2"/>
<path d="M99.4534 24.3891C99.0576 24.3211 98.6428 24.2176 98.2229 24.185C97.6672 24.1421 97.5146 24.3272 97.5388 24.9062C97.5688 25.6425 97.7455 26.3236 98.2235 26.8918C98.2437 26.9156 98.2548 26.9469 98.2737 26.9803C97.5544 27.0817 97.5022 27.1524 97.5518 27.92C97.5903 28.5174 97.7605 29.0686 98.0755 29.5327C97.9163 29.6361 97.7057 29.7007 97.6229 29.845C97.5342 30.0001 97.5407 30.2308 97.5505 30.4261C97.5916 31.2807 97.8368 32.0463 98.5163 32.5893C99.0224 32.9935 99.6269 33.1037 100.281 33.1745C100.281 33.265 100.281 33.3561 100.281 33.448C100.282 34.4381 100.283 35.4288 100.287 36.4189C100.287 36.523 100.291 36.6312 100.319 36.7298C100.379 36.951 100.532 37.0653 100.75 37.0564C100.956 37.049 101.099 36.9333 101.147 36.7196C101.171 36.6101 101.178 36.4944 101.178 36.3821C101.177 35.4179 101.172 34.4537 101.169 33.4902C101.169 33.3949 101.169 33.299 101.169 33.1867C101.376 33.1472 101.571 33.1091 101.767 33.0724C102.913 32.856 103.647 32.0626 103.81 30.8589C103.832 30.6942 103.854 30.5288 103.859 30.3628C103.877 29.7994 103.82 29.7198 103.304 29.5667C103.69 28.9944 103.851 28.3514 103.861 27.6634C103.868 27.1613 103.739 27.0231 103.262 27.0061C103.223 27.0048 103.184 27.0007 103.11 26.9952C103.226 26.8306 103.334 26.6992 103.419 26.5543C103.758 25.9759 103.877 25.3377 103.859 24.6681C103.851 24.3619 103.675 24.1639 103.375 24.1863C102.968 24.2169 102.565 24.3006 102.161 24.3666C102.082 24.3796 102.007 24.415 101.896 24.4517C101.939 24.2775 101.981 24.1394 102.007 23.9972C102.171 23.0908 101.83 22.3491 101.289 21.6836C100.809 21.0943 100.592 21.0977 100.112 21.6816C99.6941 22.1905 99.3758 22.756 99.3602 23.4446C99.353 23.7692 99.4228 24.0958 99.4541 24.3884L99.4534 24.3891ZM100.708 22.4192C101.311 23.1684 101.309 24.0101 100.705 24.7042C100.085 24.0795 100.087 23.0391 100.708 22.4192ZM102.926 30.5758C102.953 31.4563 102.31 32.1347 101.396 32.1905C101.372 31.2984 102.006 30.6296 102.926 30.5758ZM102.935 25.1328C102.909 26.0746 102.22 26.787 101.395 26.7455C101.45 25.6935 102.08 25.2193 102.935 25.1328ZM98.4687 25.141C99.4117 25.2288 100.086 25.9555 99.996 26.7693C99.0543 26.6713 98.4713 26.0576 98.4687 25.141ZM100.008 32.2082C99.0074 32.0442 98.3415 31.3148 98.4954 30.5683C99.3882 30.65 99.9614 31.2188 100.008 32.2082ZM100.023 29.5769C99.1613 29.566 98.455 28.9141 98.4857 27.9744C99.3393 27.9846 99.9008 28.5637 100.023 29.5769V29.5769ZM102.946 27.9765C102.841 28.9726 102.17 29.6517 101.392 29.5653C101.405 28.6651 102.083 27.9615 102.946 27.9765V27.9765Z" fill="#002EA4"/>
<path d="M111.372 30.7313L108.604 44.9641L123.233 46.9409C123.628 44.9641 125.367 35.8709 126 32.7081C126 29.5452 123.101 28.2274 121.651 27.9638L122.046 25.987H123.628L124.023 23.2195L116.907 22.0334L116.116 24.8009L117.302 25.1963C117.17 25.5917 116.907 26.5405 116.907 27.1731C113.111 27.1731 111.635 29.5452 111.372 30.7313Z" fill="#FFF2F2"/>
<path d="M117.302 25.1963C117.17 25.5917 116.907 26.5405 116.907 27.1731C113.111 27.1731 111.635 29.5452 111.372 30.7313L108.604 44.9641L123.233 46.9409C123.628 44.9641 125.367 35.8709 126 32.7081C126 29.5452 123.101 28.2274 121.651 27.9638L122.046 25.987M117.302 25.1963L116.116 24.8009L116.907 22.0334L124.023 23.2195L123.628 25.987H122.046M117.302 25.1963L122.046 25.987" stroke="#002EA4" stroke-width="1.35902"/>
<rect width="15.0235" height="9.48855" transform="matrix(-1 0 0 1 73.8154 34.6851)" fill="#FFF2F2"/>
<path d="M83.6967 22.429L83.3014 24.8012L91.2085 25.1965L90.8131 22.429L90.0224 22.0337L89.6271 17.2894L88.0456 16.894L84.4874 17.2894V22.0337L83.6967 22.429Z" fill="#FFF2F2"/>
<path d="M92.791 26.582C92.596 25.8591 92.2555 25.2363 91.621 24.7967C91.5458 24.7442 91.5201 24.5818 91.5181 24.4699C91.5082 23.8401 91.5141 23.2104 91.5131 22.5806C91.5131 21.8568 91.3765 21.7182 90.65 21.7033C90.5886 21.7023 90.5272 21.6954 90.4144 21.6875C90.4144 21.5548 90.4144 21.4241 90.4144 21.2924C90.4144 20.2923 90.4193 19.2912 90.4124 18.2911C90.4075 17.2277 89.6819 16.5068 88.6148 16.5019C87.5656 16.4969 86.5154 16.4979 85.4651 16.5019C84.3654 16.5058 83.6587 17.198 83.6448 18.303C83.632 19.2912 83.6418 20.2794 83.6418 21.2676C83.6418 21.4013 83.6418 21.534 83.6418 21.6489C83.5904 21.6736 83.5795 21.6815 83.5676 21.6835C82.8906 21.7641 82.5517 22.1555 82.551 22.8579C82.551 23.3639 82.5639 23.8708 82.5411 24.3768C82.5362 24.4887 82.4303 24.6293 82.3303 24.6996C81.8195 25.06 81.2425 25.3442 80.7842 25.7591C78.2878 28.0197 76.1863 30.612 74.4432 33.4944C74.3828 33.5954 74.3145 33.6915 74.1878 33.8856C74.1878 33.3023 74.1868 32.827 74.1878 32.3528C74.1928 30.9041 73.587 29.7842 72.3774 28.9911C71.4073 28.3554 70.4393 27.7167 69.4603 27.0929C69.2386 26.9513 69.1445 26.8008 69.1495 26.5305C69.1663 25.5551 69.1614 24.5788 69.1544 23.6035C69.1475 22.4687 68.3764 21.6994 67.245 21.6914C66.5165 21.6865 65.788 21.6875 65.0594 21.6914C63.9072 21.6984 63.1441 22.4668 63.1371 23.6282C63.1322 24.5917 63.1263 25.5551 63.1421 26.5186C63.1461 26.784 63.0679 26.9414 62.8402 27.085C61.8503 27.7137 60.8724 28.3603 59.8934 29.0049C58.7096 29.7842 58.1087 30.8863 58.1057 32.3042C58.0998 34.4529 58.1038 36.6026 58.1048 38.7513C58.1048 38.8127 58.0996 42.1353 58.1035 42.1967C58.1253 42.5532 58.3384 42.7165 58.6749 42.7125C59.0105 42.7086 59.2134 42.518 59.2164 42.1536C59.2243 41.2149 59.2164 37.0433 59.2164 36.1046C59.2164 35.9719 59.2164 35.8382 59.2164 35.6867H73.097C73.0544 35.8639 73.0455 36.0323 72.9762 36.1719C71.9052 38.3612 71.0559 40.6327 70.461 42.9972C70.4026 43.2279 70.3027 43.3072 70.0592 43.3072C66.5521 43.2992 63.0441 43.3022 59.5371 43.3002C59.441 43.3002 59.345 43.2854 59.2173 43.2745C59.2173 42.8903 59.2223 42.5219 59.2164 42.1536C59.2094 41.7555 59.0233 41.5525 58.6749 41.5466C58.3116 41.5397 58.1087 41.7506 58.1077 42.1655C58.1038 43.7834 58.1057 45.4014 58.1057 47.0194C58.1057 47.154 58.1057 47.2897 58.1057 47.4531C57.2238 47.6253 56.52 48.06 56.0667 48.8423C55.6103 49.6295 55.5925 50.4583 55.8835 51.2989C55.8519 51.3128 55.841 51.3217 55.8291 51.3227C55.1725 51.3847 54.8442 51.7475 54.8442 52.4109C54.8442 52.8307 54.861 53.2516 54.8392 53.6704C54.8214 54.012 54.9214 54.2715 55.2154 54.4517H63.1461C63.3866 54.2457 63.537 54.0011 63.4143 53.6773C63.2827 53.3278 62.9748 53.3377 62.6699 53.3377C60.5705 53.3407 58.471 53.3397 56.3725 53.3397H55.9865V52.4693H67.4954V53.3407C67.054 53.3407 66.6353 53.3318 66.2185 53.3437C65.8236 53.3545 65.5831 53.6328 65.6761 54.0031C65.7167 54.1665 65.8642 54.3031 65.9632 54.4517H90.8638C91.1607 54.314 91.4745 54.2031 91.7527 54.0338C92.3179 53.6902 92.5871 53.1258 92.791 52.5248V33.4014C92.5851 33.1607 92.3406 33.0112 92.017 33.133C91.6873 33.2568 91.6646 33.5439 91.6784 33.841C91.6834 33.94 91.6784 34.039 91.6784 34.1371C91.6784 40.0782 91.6784 46.0193 91.6784 51.9614C91.6784 52.802 91.1766 53.3387 90.3708 53.3387C84.1585 53.3417 77.9463 53.3417 71.734 53.3387C71.1143 53.3387 70.7026 53.0308 70.5422 52.4307C70.4729 52.1733 70.4581 51.895 70.4581 51.6257C70.4591 49.1225 70.7362 46.648 71.3044 44.2102C72.9347 37.2155 76.3932 31.2853 81.6849 26.4255C82.3907 25.7769 83.2172 25.4621 84.1764 25.465C86.1155 25.472 88.0546 25.465 89.9937 25.468C91.0558 25.468 91.6764 26.0859 91.6784 27.1424C91.6804 28.2296 91.6764 29.3168 91.6804 30.4031C91.6824 30.8457 91.9219 31.0992 92.305 31.0219C92.4802 30.9873 92.6297 30.8328 92.791 30.7328C92.791 29.3495 92.791 27.9652 92.791 26.582ZM59.2173 34.5371C59.2173 33.8024 59.2253 33.0993 59.2154 32.3973C59.1995 31.3051 59.6539 30.4764 60.5705 29.8862C61.5861 29.2317 62.5927 28.5633 63.6103 27.9108C63.736 27.8306 63.9023 27.7751 64.0508 27.7732C65.4455 27.7632 66.8392 27.7642 68.2339 27.7712C68.3626 27.7712 68.511 27.7969 68.616 27.8642C69.7246 28.5801 70.8302 29.299 71.927 30.0318C72.4823 30.4031 72.906 30.9249 72.9792 31.5814C73.0881 32.5528 73.0732 33.538 73.1128 34.5361H59.2183L59.2173 34.5371ZM63.6786 48.0858C62.8461 46.4005 60.7833 46.2331 59.6479 47.6917L59.2411 47.5342V44.4449H70.0473C69.8552 45.8638 69.6048 47.2501 69.4959 48.6482C69.3752 50.2048 69.0881 51.7802 69.6117 53.31H68.6308C68.6308 52.8614 68.6338 52.4416 68.6308 52.0228C68.6268 51.5425 68.4338 51.3474 67.9617 51.3385C67.8191 51.3356 67.6756 51.3385 67.5301 51.3385C67.6479 49.2641 65.9057 47.5808 63.6796 48.0858H63.6786ZM66.3898 51.2752C66.2938 51.288 66.2344 51.3039 66.174 51.3039C63.247 51.3049 60.321 51.3088 57.394 51.295C57.2624 51.295 57.0783 51.1623 57.008 51.0395C56.622 50.3642 56.7843 49.5037 57.3663 48.9819C57.9464 48.462 58.7699 48.4165 59.4539 48.868C59.9409 49.1888 60.2438 49.1027 60.4695 48.5799C60.7011 48.0412 61.1703 47.7501 61.691 47.8214C62.2483 47.8976 62.5927 48.2779 62.7105 48.8839C62.7452 49.0601 62.8521 49.2601 62.9897 49.37C63.2252 49.5582 63.4737 49.4097 63.7152 49.2997C64.3754 48.9997 65.0188 49.0492 65.6088 49.472C66.2086 49.9028 66.4581 50.5048 66.3898 51.2752ZM84.7604 21.6132C84.7604 20.4517 84.7495 19.3289 84.7663 18.207C84.7723 17.806 85.0177 17.6168 85.4622 17.6149C86.4995 17.6109 87.5359 17.6109 88.5733 17.6149C89.0771 17.6168 89.3008 17.8347 89.3028 18.3337C89.3077 19.3467 89.3048 20.3587 89.3028 21.3716C89.3028 21.4528 89.281 21.534 89.2691 21.6142H84.7604V21.6132ZM64.2527 26.6424C64.2527 25.57 64.2428 24.5352 64.2577 23.5015C64.2636 23.0678 64.5734 22.8084 65.0466 22.8034C65.7741 22.7965 66.5006 22.7975 67.2282 22.8034C67.7716 22.8074 68.0409 23.0797 68.0448 23.6282C68.0498 24.4541 68.0468 25.2799 68.0468 26.1057C68.0468 26.2839 68.0468 26.4621 68.0468 26.6424H64.2537H64.2527ZM83.6795 22.8401H90.3788V24.3283H83.6795V22.8401Z" fill="#002EA4"/>
<path d="M92.79 30.7329C92.6287 30.8329 92.4792 30.9874 92.305 31.022C91.9209 31.0993 91.6814 30.8458 91.6804 30.4032C91.6764 29.3159 91.6804 28.2287 91.6784 27.1425C91.6764 26.086 91.0558 25.4691 89.9937 25.4681C88.0546 25.4661 86.1155 25.473 84.1764 25.4651C83.2172 25.4612 82.3907 25.777 81.6849 26.4256C76.3932 31.2844 72.9347 37.2156 71.3044 44.2103C70.7362 46.6481 70.4591 49.1226 70.4581 51.6258C70.4581 51.8951 70.4729 52.1734 70.5422 52.4308C70.7026 53.0318 71.1143 53.3388 71.734 53.3388C77.9463 53.3418 84.1585 53.3418 90.3708 53.3388C91.1766 53.3388 91.6784 52.8021 91.6784 51.9615C91.6794 46.0204 91.6784 40.0792 91.6784 34.1372C91.6784 34.0381 91.6824 33.9391 91.6784 33.8411C91.6646 33.543 91.6873 33.2569 92.017 33.1331C92.3406 33.0113 92.5851 33.1608 92.791 33.4014C92.791 32.5123 92.791 31.6221 92.791 30.7329H92.79ZM90.3451 39.5307C90.3451 42.631 90.3451 45.7302 90.3441 48.8305C90.3441 49.0394 90.3451 49.2533 90.3085 49.4573C90.0818 50.698 89.1058 51.4753 87.7646 51.4773C83.8992 51.4812 80.0339 51.4792 76.1685 51.4782C75.6132 51.4782 75.0559 51.4941 74.5016 51.4713C73.0178 51.4109 71.9567 50.1494 72.1349 48.6998C72.4269 46.3293 72.9772 44.0172 73.6899 41.7408C74.0799 40.4961 74.9094 39.8941 76.2239 39.8921C77.2484 39.8901 78.2739 39.8872 79.2984 39.8931C79.8438 39.8971 80.2744 39.7069 80.5941 39.2475C82.1353 37.0265 83.6923 34.8174 85.2187 32.5865C85.4008 32.3202 85.4859 31.9518 85.5117 31.6221C85.5592 31.0329 85.5097 30.4368 85.5315 29.8447C85.5829 28.4307 86.9173 27.3584 88.309 27.597C89.5166 27.8049 90.3402 28.7674 90.3431 30.0081C90.3491 33.1826 90.3451 36.3562 90.3451 39.5307V39.5307ZM82.459 28.3515C83.0222 28.3822 83.6607 28.7496 84.0041 29.5229C84.3535 30.3091 84.2417 31.0745 83.6349 31.6815C82.0264 33.2905 80.6733 35.0838 79.5528 37.0641C79.0084 38.0256 77.9017 38.2543 76.9129 37.685C75.9309 37.1196 75.5884 36.0433 76.1408 35.0828C77.4335 32.8361 78.9906 30.7834 80.7861 28.9139C81.1633 28.5208 81.6364 28.3317 82.458 28.3515H82.459Z" fill="#FFF2F2"/>
<path d="M65.9575 54.453C65.8585 54.3045 65.711 54.1679 65.6704 54.0045C65.5774 53.6342 65.8179 53.3559 66.2128 53.345C66.6306 53.3332 67.0483 53.3421 67.4897 53.3421V52.4707H55.9808V53.3411H56.3668C58.4663 53.3411 60.5658 53.3421 62.6642 53.3391C62.9691 53.3391 63.277 53.3292 63.4086 53.6787C63.5304 54.0025 63.3799 54.2471 63.1404 54.453H65.9565H65.9575Z" fill="#FFF2F2"/>
<path d="M59.2161 34.5374H73.1106C73.072 33.5392 73.0858 32.554 72.977 31.5826C72.9037 30.9262 72.4801 30.4043 71.9248 30.033C70.828 29.3003 69.7223 28.5804 68.6137 27.8655C68.5088 27.7982 68.3603 27.7724 68.2316 27.7724C66.8369 27.7655 65.4432 27.7645 64.0485 27.7744C63.9001 27.7754 63.7338 27.8308 63.6081 27.912C62.5905 28.5646 61.5838 29.2329 60.5682 29.8875C59.6526 30.4776 59.1983 31.3064 59.2131 32.3986C59.223 33.1006 59.2151 33.8036 59.2151 34.5383L59.2161 34.5374Z" fill="#FFF2F2"/>
<path d="M63.6772 48.0862C65.9034 47.5812 67.6455 49.2655 67.5277 51.339C67.6732 51.339 67.8158 51.337 67.9593 51.339C68.4315 51.3479 68.6235 51.543 68.6284 52.0232C68.6324 52.442 68.6284 52.8619 68.6284 53.3104H69.6094C69.0858 51.7806 69.3738 50.2052 69.4936 48.6486C69.6015 47.2505 69.8529 45.8633 70.0449 44.4453H59.2387V47.5347L59.6456 47.6921C60.7809 46.2336 62.8438 46.4009 63.6762 48.0862H63.6772Z" fill="#FFF2F2"/>
<path d="M66.3874 51.2759C66.4557 50.5056 66.2073 49.9035 65.6064 49.4728C65.0175 49.05 64.3731 49.0015 63.7129 49.3005C63.4723 49.4094 63.2229 49.5589 62.9873 49.3708C62.8497 49.2609 62.7428 49.0609 62.7082 48.8846C62.5894 48.2786 62.2459 47.8984 61.6886 47.8222C61.168 47.7509 60.6988 48.042 60.4672 48.5806C60.2425 49.1035 59.9386 49.1896 59.4516 48.8688C58.7676 48.4182 57.944 48.4628 57.364 48.9826C56.781 49.5045 56.6196 50.3649 57.0057 51.0403C57.0759 51.162 57.26 51.2947 57.3917 51.2957C60.3187 51.3096 63.2447 51.3066 66.1717 51.3046C66.231 51.3046 66.2914 51.2888 66.3874 51.2759V51.2759Z" fill="#FFF2F2"/>
<path d="M64.2513 26.6427H68.0444C68.0444 26.4625 68.0444 26.2843 68.0444 26.106C68.0444 25.2802 68.0483 24.4544 68.0424 23.6286C68.0384 23.081 67.7692 22.8077 67.2258 22.8038C66.4982 22.7978 65.7717 22.7978 65.0441 22.8038C64.571 22.8077 64.2612 23.0672 64.2552 23.5019C64.2404 24.5356 64.2503 25.5703 64.2503 26.6427H64.2513Z" fill="#FFF2F2"/>
<path d="M90.3437 39.53C90.3437 36.3555 90.3476 33.182 90.3417 30.0074C90.3397 28.7677 89.5162 27.8043 88.3076 27.5963C86.9158 27.3577 85.5815 28.4301 85.53 29.8441C85.5083 30.4362 85.5568 31.0323 85.5102 31.6214C85.4835 31.9512 85.3994 32.3195 85.2173 32.5859C83.6909 34.8168 82.1339 37.0268 80.5927 39.2468C80.274 39.7063 79.8434 39.8964 79.297 39.8924C78.2725 39.8855 77.247 39.8895 76.2225 39.8914C74.908 39.8934 74.0785 40.4955 73.6885 41.7401C72.9758 44.0166 72.4254 46.3276 72.1334 48.6991C71.9553 50.1488 73.0174 51.4103 74.5002 51.4707C75.0555 51.4934 75.6118 51.4776 76.1671 51.4776C80.0324 51.4776 83.8978 51.4806 87.7631 51.4766C89.1044 51.4756 90.0804 50.6973 90.3071 49.4566C90.3447 49.2526 90.3427 49.0388 90.3427 48.8298C90.3447 45.7296 90.3437 42.6303 90.3437 39.53V39.53ZM89.2321 39.4746C89.2321 42.6352 89.2341 45.7969 89.2311 48.9576C89.2311 49.8101 88.7015 50.3617 87.8532 50.3626C83.4335 50.3686 79.0129 50.3706 74.5932 50.3617C73.7004 50.3597 73.1332 49.6745 73.2421 48.7922C73.5222 46.5207 74.0508 44.3047 74.7338 42.1233C74.9951 41.2876 75.3792 41.0054 76.2482 41.0034C77.2609 41.0005 78.2735 40.9985 79.2851 41.0034C80.1997 41.0084 80.9451 40.6786 81.4756 39.9182C83.0505 37.6616 84.6233 35.4029 86.1952 33.1453C86.4932 32.7176 86.6357 32.2403 86.6347 31.7185C86.6337 31.1254 86.6278 30.5332 86.6377 29.9401C86.6476 29.3707 86.9435 28.9737 87.4662 28.7964C88.4036 28.4776 89.2291 29.0668 89.2301 30.0639C89.2331 33.1998 89.2311 36.3367 89.2311 39.4726L89.2321 39.4746Z" fill="#002EA4"/>
<path d="M82.461 28.3518C81.6384 28.3319 81.1663 28.5211 80.7891 28.9142C78.9926 30.7836 77.4355 32.8363 76.1438 35.083C75.5914 36.0435 75.9329 37.1198 76.9159 37.6852C77.9057 38.2556 79.0124 38.0268 79.5558 37.0644C80.6763 35.084 82.0284 33.2908 83.6379 31.6817C84.2447 31.0748 84.3566 30.3103 84.0071 29.5231C83.6637 28.7498 83.0242 28.3824 82.462 28.3518H82.461ZM82.1274 29.3815C82.5481 29.4528 82.8332 29.6212 82.9925 29.9687C83.1598 30.3361 83.0876 30.6787 82.8055 30.9559C81.1544 32.5759 79.7785 34.4018 78.6491 36.4198C78.3759 36.9079 77.9067 37.0178 77.4514 36.7485C76.999 36.4812 76.8763 36.0197 77.1594 35.5385C78.3907 33.4433 79.8448 31.5154 81.5246 29.7588C81.683 29.5925 81.9255 29.5063 82.1284 29.3825L82.1274 29.3815Z" fill="#002EA4"/>
<path d="M89.2325 39.4746C89.2325 36.3387 89.2345 33.2017 89.2315 30.0658C89.2305 29.0677 88.404 28.4796 87.4676 28.7984C86.945 28.9766 86.649 29.3727 86.6391 29.9421C86.6292 30.5342 86.6341 31.1273 86.6361 31.7204C86.6371 32.2423 86.4946 32.7195 86.1966 33.1473C84.6238 35.4059 83.0509 37.6635 81.477 39.9201C80.9465 40.6816 80.2011 41.0113 79.2865 41.0054C78.2739 40.9994 77.2613 41.0024 76.2496 41.0054C75.3806 41.0074 74.9965 41.2896 74.7352 42.1253C74.0532 44.3067 73.5236 46.5227 73.2435 48.7942C73.1346 49.6764 73.7018 50.3616 74.5946 50.3636C79.0143 50.3725 83.435 50.3715 87.8546 50.3646C88.7039 50.3636 89.2315 49.8121 89.2325 48.9595C89.2355 45.7989 89.2335 42.6372 89.2335 39.4765L89.2325 39.4746Z" fill="#FFF2F2"/>
<path d="M82.1192 29.3816C81.9163 29.5054 81.6738 29.5915 81.5154 29.7579C79.8366 31.5135 78.3815 33.4423 77.1502 35.5376C76.8671 36.0188 76.9898 36.4802 77.4422 36.7476C77.8975 37.0169 78.3667 36.908 78.6399 36.4188C79.7693 34.4018 81.1452 32.5749 82.7963 30.955C83.0784 30.6787 83.1506 30.3352 82.9833 29.9678C82.825 29.6202 82.5389 29.4509 82.1182 29.3806L82.1192 29.3816Z" fill="#FFF2F2"/>
<path d="M125.556 43.0564H71.5552V83.4701H125.556V43.0564Z" fill="#FFF2F2"/>
<path d="M125.991 83.9055H71.1189V42.6208H125.991V83.9055ZM71.9899 83.0345H125.12V43.4918H71.9899V83.0345Z" fill="#002EA4"/>
<path d="M112.667 43.0564H58.6663V83.4701H112.667V43.0564Z" fill="#FFF2F2"/>
<path d="M113.102 83.9055H58.2297V42.6208H113.102V83.9055ZM59.1007 83.0345H112.231V43.4918H59.1007V83.0345Z" fill="#002EA4"/>
<path d="M106.044 56.9922L112.838 43.0564H58.4883L51.6946 56.9922H106.044Z" fill="#FFF2F2"/>
<path d="M106.318 57.4273H51L58.2183 42.6206H113.537L106.318 57.4273ZM52.3936 56.5564H105.774L112.143 43.4916H58.7627L52.3936 56.5564Z" fill="#002EA4"/>
<path d="M65.8032 71.3512C65.6896 71.3534 65.5767 71.3337 65.4712 71.2934C65.3658 71.253 65.27 71.1929 65.1895 71.1165C65.1093 71.0406 65.0457 70.9504 65.0023 70.851C64.9589 70.7516 64.9365 70.645 64.9365 70.5373C64.9365 70.4297 64.9589 70.3231 65.0023 70.2237C65.0457 70.1243 65.1093 70.034 65.1895 69.9581C65.27 69.8817 65.3658 69.8215 65.4712 69.7811C65.5767 69.7407 65.6895 69.721 65.8032 69.723C65.9149 69.7217 66.0258 69.7419 66.1293 69.7822C66.2327 69.8226 66.3265 69.8825 66.4051 69.9581C66.4853 70.034 66.5489 70.1243 66.5923 70.2237C66.6357 70.3231 66.6581 70.4297 66.6581 70.5373C66.6581 70.645 66.6357 70.7516 66.5923 70.851C66.5489 70.9504 66.4853 71.0406 66.4051 71.1165C66.3265 71.1921 66.2327 71.2519 66.1292 71.2922C66.0258 71.3326 65.9149 71.3526 65.8032 71.3512ZM65.0811 77.3506V71.9522H66.5256V77.3488L65.0811 77.3506Z" fill="#EC3A0E"/>
<path d="M67.6811 77.3492V71.9526H69.1139V72.8068C69.2582 72.524 69.4929 72.2966 69.818 72.1245C70.1432 71.9525 70.5224 71.8664 70.9557 71.8664C71.6777 71.8664 72.2415 72.0728 72.647 72.4855C73.0524 72.8983 73.255 73.464 73.2548 74.1828V77.3492H71.8103V74.3792C71.8103 73.9818 71.6959 73.6678 71.4672 73.4374C71.2385 73.207 70.9235 73.0923 70.5221 73.0935C70.1128 73.0935 69.7758 73.2177 69.5112 73.466C69.2466 73.7143 69.1141 74.0373 69.1139 74.435V77.3492H67.6811Z" fill="#EC3A0E"/>
<path d="M79.5509 75.0554V71.9511H81.0075V74.9396C81.0075 75.3754 81.1279 75.7002 81.3686 75.9142C81.6093 76.1281 81.9303 76.2352 82.3316 76.2354C82.7329 76.2354 83.054 76.1265 83.2949 75.9086C83.5359 75.6907 83.6562 75.3639 83.656 74.9281V71.9525H85.1126V75.0219C85.1126 75.8244 84.8477 76.4378 84.318 76.8622C83.7883 77.2866 83.1222 77.4987 82.3199 77.4987C81.5172 77.4987 80.8551 77.2885 80.3334 76.8681C79.8118 76.4477 79.5509 75.8435 79.5509 75.0554Z" fill="#EC3A0E"/>
<path d="M86.1961 77.3492V71.9526H87.6285V72.7897C87.7579 72.5059 87.9767 72.2675 88.2546 72.1074C88.5437 71.9356 88.8808 71.8496 89.266 71.8493C90.0925 71.8493 90.6582 72.1858 90.9631 72.8587C91.3081 72.1858 91.9702 71.8493 92.9496 71.8493C93.6157 71.8493 94.1334 72.0558 94.5024 72.4688C94.8715 72.8818 95.0562 73.4475 95.0564 74.166V77.3502H93.6116V74.3596C93.6116 73.9622 93.5174 73.6483 93.3289 73.4179C93.1404 73.1874 92.8735 73.0727 92.5281 73.0736C92.3631 73.0695 92.1992 73.1011 92.0489 73.166C91.8985 73.2309 91.7655 73.3274 91.6599 73.4482C91.4351 73.6966 91.3228 74.0195 91.3231 74.4172V77.3492H89.8903V74.3596C89.8903 73.9622 89.7961 73.6483 89.6076 73.4179C89.4192 73.1874 89.1522 73.0727 88.8068 73.0736C88.4699 73.0736 88.1892 73.1998 87.9646 73.452C87.7401 73.7043 87.6277 74.0255 87.6274 74.4154V77.3474L86.1961 77.3492Z" fill="#EC3A0E"/>
<path d="M96.7184 76.6714C96.1635 76.1282 95.8863 75.4562 95.8868 74.6554C95.8873 73.8545 96.1645 73.1842 96.7184 72.6445C97.2727 72.1046 97.959 71.8346 98.7773 71.8346C99.2433 71.8346 99.6409 71.9204 99.9702 72.092C100.3 72.2637 100.517 72.4782 100.624 72.7356V71.9525H102V75.7279C102 75.9567 102.033 76.1195 102.098 76.2162C102.163 76.313 102.272 76.3612 102.425 76.361C102.521 76.3602 102.617 76.353 102.712 76.3394V77.3788C102.559 77.436 102.333 77.4646 102.035 77.4646C101.706 77.4646 101.438 77.4074 101.232 77.293C101.111 77.2204 101.006 77.1248 100.926 77.0123C100.845 76.8997 100.789 76.7726 100.761 76.6386C100.356 77.2037 99.6949 77.4861 98.7773 77.4859C97.959 77.4863 97.2727 77.2148 96.7184 76.6714ZM97.7586 73.4939C97.4386 73.8038 97.2787 74.191 97.279 74.6554C97.2792 75.1197 97.4391 75.5068 97.7586 75.8165C98.0786 76.1267 98.4795 76.2816 98.9611 76.2811C99.4493 76.2811 99.8615 76.1262 100.198 75.8165C100.534 75.5068 100.701 75.1197 100.7 74.6554C100.7 74.1903 100.533 73.8031 100.198 73.4939C99.8627 73.1846 99.4505 73.0297 98.9611 73.0293C98.4792 73.0293 98.0784 73.1841 97.7586 73.4939Z" fill="#EC3A0E"/>
<path d="M78.2126 76.9425C77.1906 77.8291 75.0636 77.6282 74.2734 76.5549C74.2199 76.4827 74.1782 76.4032 74.1185 76.3052C74.4539 76.1291 74.7912 75.9118 75.1438 75.7245C75.4924 76.2989 76.0405 76.4548 76.6762 76.3778C76.8592 76.3561 77.0533 76.3244 77.2042 76.2257C77.355 76.127 77.4418 75.9868 77.4532 75.85C77.4498 75.8035 77.4362 75.7583 77.4132 75.7171C77.3807 75.6625 77.3379 75.614 77.2869 75.5741C77.2317 75.5287 77.1711 75.4896 77.1064 75.4576C77.0208 75.4178 76.9322 75.3842 76.8413 75.3572C76.7285 75.3223 76.6286 75.2902 76.5403 75.2613C76.4521 75.2323 76.3312 75.1978 76.1793 75.1566C76.0273 75.1155 75.8981 75.076 75.7937 75.0408C75.7882 75.0393 75.7828 75.0374 75.7776 75.0352C75.7763 75.0353 75.7749 75.0353 75.7736 75.0352C75.5929 74.9928 75.4155 74.9386 75.2426 74.873C74.3532 74.5187 74.0424 73.6467 74.4404 72.9065C74.4517 72.8849 74.4634 72.8622 74.477 72.8406L74.4799 72.835L74.4942 72.8106C74.4942 72.8078 74.4971 72.8061 74.4979 72.8043C74.5121 72.7816 74.5264 72.759 74.5418 72.7374C74.596 72.6609 74.6584 72.5899 74.7278 72.5256C74.7886 72.4674 74.8543 72.414 74.9244 72.3662C75.337 72.0805 75.8441 71.9376 76.4458 71.9376C77.0108 71.9376 77.4594 72.0614 77.8633 72.2731C78.3316 72.5201 78.6011 72.978 78.6011 72.9906C78.6011 72.9927 77.6523 73.5319 77.6523 73.5319L77.6011 73.4723C77.336 73.176 76.9426 73.0279 76.4209 73.0279C76.1969 73.0279 76.0183 73.072 75.8852 73.1601C75.7534 73.2487 75.6868 73.3634 75.6868 73.5047C75.6863 73.557 75.6966 73.609 75.7172 73.6575C75.7392 73.7063 75.7746 73.7486 75.8197 73.7799C75.8665 73.8143 75.9154 73.846 75.9662 73.8748C76.037 73.913 76.1114 73.9447 76.1884 73.9697C76.2891 74.0045 76.381 74.0349 76.4656 74.0603C76.5502 74.0858 76.6663 74.12 76.8142 74.165L76.8655 74.1814C76.9387 74.1985 77.009 74.2163 77.0804 74.2347C77.2979 74.2919 77.5198 74.3443 77.73 74.422C78.9639 74.88 79.195 76.091 78.2126 76.9425Z" fill="#EC3A0E"/>
<path d="M83.0411 60.2552L84.2164 62.5895C84.2848 62.7253 84.4241 62.8103 84.5761 62.8092L86.9861 62.7902C87.3432 62.7874 87.5236 63.2192 87.2711 63.471L85.4999 65.2426C85.4074 65.335 85.3661 65.4669 85.3891 65.5952L85.8584 68.2069C85.9166 68.5323 85.577 68.7832 85.2829 68.632L82.9258 67.4161C82.8094 67.3559 82.67 67.357 82.5546 67.419L80.2169 68.6718C79.9252 68.8276 79.5818 68.582 79.6348 68.2558L80.0631 65.637C80.084 65.5084 80.0407 65.3771 79.9467 65.2862L78.1472 63.5435C77.8906 63.2948 78.065 62.8611 78.4214 62.8583L80.8314 62.8393C80.9834 62.8382 81.1213 62.7509 81.1876 62.6141L82.3261 60.2616C82.4702 59.9644 82.8931 59.961 83.0411 60.256L83.0411 60.2552Z" fill="#FFB600"/>
</g>
</g>
<defs>
<clipPath id="clip0_292_4820">
<rect width="320" height="88" fill="white"/>
</clipPath>
<clipPath id="clip1_292_4820">
<path d="M0 8C0 3.58173 3.58172 0 8 0H312C316.418 0 320 3.58172 320 8V136C320 140.418 316.418 144 312 144H7.99999C3.58171 144 0 140.418 0 136V8Z" fill="white"/>
</clipPath>
</defs>
</svg>
