<svg width="84" height="53" viewBox="0 0 84 53" fill="none" xmlns="http://www.w3.org/2000/svg">
<path d="M22.0652 15.7583L27.1304 26.0392C27.4253 26.6371 28.0323 27.0151 28.6977 27.0151H39.25C40.8138 27.0151 41.5888 28.9153 40.4743 30.0114L32.6586 37.7221C32.2505 38.1241 32.0653 38.7014 32.1614 39.2649L34.1264 50.7381C34.3699 52.1676 32.8747 53.2568 31.5921 52.5833L21.3141 47.168C20.8066 46.9 20.1961 46.9 19.6886 47.168L9.41061 52.5833C8.12801 53.2568 6.63278 52.1676 6.87627 50.7381L8.84132 39.2649C8.93735 38.7014 8.75216 38.1241 8.34406 37.7221L0.524984 30.0148C-0.589577 28.9153 0.188901 27.0185 1.74929 27.0185H12.3016C12.9669 27.0185 13.5739 26.6405 13.8689 26.0426L18.9341 15.7617C19.5754 14.4629 21.4273 14.4629 22.0652 15.7617V15.7583Z" fill="#FFB600"/>
<path d="M47.5834 0.54055L50.3704 6.23629C50.5326 6.56744 50.8645 6.77782 51.2313 6.77782H57.037C57.8979 6.77782 58.3225 7.8297 57.7126 8.43745L53.4123 12.7073C53.1884 12.9294 53.088 13.2488 53.1382 13.5605L54.2191 19.9185C54.3542 20.7094 53.5281 21.3133 52.8255 20.9393L47.1703 17.9395C46.8885 17.7914 46.5565 17.7914 46.2747 17.9395L40.6195 20.9393C39.9131 21.3133 39.0909 20.7094 39.226 19.9185L40.3068 13.5605C40.3609 13.2488 40.2566 12.9294 40.0328 12.7073L35.7325 8.43745C35.1187 7.8297 35.5472 6.77782 36.408 6.77782H42.2138C42.5805 6.77782 42.9125 6.56744 43.0746 6.23629L45.8617 0.54055C46.213 -0.180183 47.2321 -0.180183 47.5834 0.54055Z" fill="#FFB600"/>
<path d="M76.6112 13.2789L78.5882 17.3371C78.7032 17.5731 78.9387 17.7229 79.1988 17.7229H83.317C83.9276 17.7229 84.2288 18.4724 83.7961 18.9054L80.7458 21.9477C80.587 22.1059 80.5158 22.3335 80.5514 22.5556L81.3181 27.0856C81.4139 27.6491 80.828 28.0793 80.3296 27.8129L76.3182 25.6755C76.1183 25.5701 75.8829 25.5701 75.683 25.6755L71.6716 27.8129C71.1705 28.0793 70.5873 27.6491 70.6831 27.0856L71.4498 22.5556C71.4881 22.3335 71.4142 22.1059 71.2554 21.9477L68.2051 18.9054C67.7697 18.4724 68.0736 17.7229 68.6842 17.7229H72.8024C73.0626 17.7229 73.298 17.5731 73.413 17.3371L75.39 13.2789C75.6392 12.7654 76.362 12.7654 76.6112 13.2789Z" fill="#FFB600"/>
</svg>
