<svg width="16" height="17" viewBox="0 0 16 17" fill="none" xmlns="http://www.w3.org/2000/svg">
<path d="M5.68401 6.29725L7.1223 0.872102L7.82397 0.61377L9.18943 6.11251L15.1679 8.40058L9.52156 9.95056L7.38112 15.7814L5.499 9.95056L0 7.92082L5.68401 6.29725Z" fill="#EC3A0E"/>
<path d="M11.0455 8.90237C10.3349 9.0871 9.59463 9.23824 8.8988 9.45656C8.41024 9.6077 8.2918 9.85961 8.15855 10.397C7.96609 11.1863 7.80323 11.9924 7.62557 12.7985C7.53674 13.168 7.46272 13.5542 7.37389 13.9237C7.32947 14.1084 7.22584 15.116 7.07779 15.2168C7.1074 15.2 6.67806 13.3695 6.63364 13.168C6.45598 12.2779 6.27832 11.4046 6.10066 10.5146C5.99703 9.97716 5.923 9.65808 5.46405 9.43977C4.76822 9.13748 3.95394 9.00313 3.24331 8.80161C2.59189 8.61688 1.92567 8.41535 1.27425 8.21383C1.24464 8.21383 0.933734 8.14665 0.933734 8.11306C0.933734 8.11306 1.4371 7.97871 1.40749 7.97871C1.80723 7.87795 2.20696 7.77719 2.59189 7.65964C3.25811 7.4917 3.90953 7.30697 4.57575 7.13903C5.07912 7.00468 5.74534 7.00468 6.01183 6.4337C6.29313 5.82912 6.36715 4.95585 6.5152 4.28411C6.70767 3.42763 6.90013 2.57115 7.0926 1.71467C7.0926 1.76505 7.22584 1.14369 7.22584 1.14369C7.28506 1.17727 7.29986 1.44597 7.31467 1.49635C7.4035 1.86582 7.46272 2.25207 7.55155 2.62153C7.72921 3.46121 7.89206 4.3009 8.06972 5.14058C8.18816 5.74516 8.20297 6.55125 8.73595 6.87033C9.34295 7.223 10.1868 7.30697 10.8531 7.50849C11.0603 7.57567 13.3403 8.14665 13.3255 8.24742C13.3255 8.39856 11.312 8.85199 11.0899 8.91916L11.6377 9.27183V9.22145C11.4897 8.58329 10.6162 8.85199 10.7642 9.49015V9.54053C10.8383 9.80923 11.0899 9.96037 11.3268 9.8932C12.1115 9.65808 13.059 9.54053 13.7992 9.15427C14.273 8.90237 14.5099 8.26421 14.199 7.72681C13.8289 7.10544 12.8961 7.03827 12.3336 6.87033C11.4304 6.60163 10.5125 6.33293 9.60944 6.06424C9.04685 5.8963 9.18009 6.04744 9.06166 5.40928C8.97283 4.93906 8.86919 4.46884 8.78036 3.99861C8.55829 2.94061 8.43985 1.74826 8.09933 0.740637C7.93648 0.236827 7.52194 -0.115841 7.03338 0.0353024C6.33754 0.236827 6.29313 1.19407 6.14508 1.84902C5.923 2.83985 5.68612 3.84747 5.46405 4.8383C5.40483 5.0902 5.37522 5.45966 5.27159 5.69478L5.24198 5.82912C5.24198 5.98027 5.19756 6.01385 5.09393 5.92989C4.7238 6.18179 4.02797 6.19858 3.61343 6.31614C2.72513 6.55125 1.83684 6.75278 0.948539 7.02147C0.430365 7.17262 -0.0581986 7.50849 0.0158262 8.19703C0.104656 8.93596 0.770879 9.07031 1.30386 9.22145C2.20696 9.49015 3.11006 9.75885 4.01316 10.0108C4.25004 10.0779 5.07912 10.1787 5.24198 10.3634C5.0199 10.1115 5.27159 10.8168 5.28639 10.8672C5.33081 11.0688 5.36042 11.2535 5.40483 11.455C5.64171 12.597 5.86378 13.7557 6.10066 14.8977C6.23391 15.5695 6.44118 16.3756 7.19623 16.258C7.95128 16.1404 8.02531 15.2336 8.17336 14.5618C8.42504 13.4367 8.67673 12.2947 8.92841 11.1695C8.97283 11.0016 9.01724 10.4474 9.12087 10.313C8.92841 10.5314 9.44658 10.2962 9.55022 10.2627C10.1424 10.1115 10.7346 9.96037 11.3268 9.80923C11.919 9.65808 11.6525 8.68405 11.0899 8.8184L11.0455 8.90237Z" fill="#EC3A0E"/>
</svg>
