<svg width="320" height="88" viewBox="0 0 320 88" fill="none" xmlns="http://www.w3.org/2000/svg">
<g clip-path="url(#clip0_292_4929)">
<g clip-path="url(#clip1_292_4929)">
<rect width="320" height="88" fill="#F2F7FF"/>
<path d="M78.9258 66.8362V66.8449L78.8333 66.823C78.7414 66.8012 78.6764 66.7475 78.6415 66.6769C78.6077 66.6084 78.6052 66.5302 78.6242 66.4606C78.6621 66.3221 78.7955 66.193 78.9863 66.2332L78.987 66.2333V66.2333C82.3034 66.9645 85.256 68.4187 88.0169 70.149C89.385 71.0064 90.878 71.4848 92.4212 71.8266C93.1929 71.9975 93.9762 72.134 94.7625 72.267C94.8625 72.2839 94.9625 72.3008 95.0626 72.3176C95.749 72.4332 96.4367 72.5491 97.1181 72.6853C98.7808 73.0164 100.439 73.4534 102.001 74.1476C102.663 74.4407 103.393 74.7828 104.047 75.2204C104.702 75.658 105.285 76.1941 105.65 76.8774M78.9258 66.8362L74.6775 78.5908C77.5977 77.5303 80.9023 77.6712 83.9842 77.8441L83.9843 77.8441C90.0036 78.1743 96.0013 79.1501 101.935 80.2017L101.935 80.2017C101.96 80.206 101.984 80.2103 102.009 80.2147C102.499 80.3014 103.045 80.3981 103.578 80.3972C104.139 80.3962 104.694 80.2875 105.163 79.9401C106.104 79.2423 106.172 77.8525 105.65 76.8774M78.9258 66.8362C81.892 67.5064 84.5817 68.6967 87.148 70.3136C87.1481 70.3136 87.1482 70.3137 87.1483 70.3137L87.1883 70.2502L78.9258 66.8362ZM105.65 76.8774L105.584 76.9128M105.65 76.8774C105.65 76.8774 105.65 76.8774 105.65 76.8774L105.584 76.9128M105.584 76.9128C104.87 75.5758 103.293 74.8021 101.971 74.2162L102.02 80.1404C103.028 80.3187 104.238 80.5328 105.118 79.8798C106.019 79.2113 106.095 77.8668 105.584 76.9128ZM82.7139 77.1833L82.714 77.1833C88.6988 77.3787 94.6825 78.3411 100.571 79.3551M82.7139 77.1833L103.538 75.6542C104.334 76.1646 105.127 76.7965 105.345 77.7409C105.562 78.6794 105.029 79.5738 104.076 79.7458C103.525 79.8449 102.932 79.7958 102.333 79.6968C102.034 79.6473 101.735 79.5856 101.439 79.5243L101.409 79.5182C101.125 79.4591 100.843 79.4007 100.571 79.3551M82.7139 77.1833C79.868 77.0931 76.8714 77.0769 74.1586 78.1424L74.1585 78.1424M82.7139 77.1833L74.1585 78.1424M100.571 79.3551L100.559 79.4291L100.571 79.355C100.571 79.3551 100.571 79.3551 100.571 79.3551ZM74.1585 78.1424C71.7137 79.1082 69.5197 80.6543 67.6513 82.4776M74.1585 78.1424L67.6513 82.4776M67.6513 82.4776C65.2288 84.8324 63.078 87.4647 61.0119 90.1168C58.9452 92.7697 56.8405 95.686 54.9911 98.618H54.9911C54.9401 98.6983 54.9317 98.7827 54.9566 98.8578C54.9807 98.9306 55.0339 98.9886 55.0961 99.0253C55.1584 99.0621 55.235 99.0807 55.3106 99.0684C55.3881 99.0557 55.46 99.0111 55.5089 98.9308C58.9546 93.4733 62.9248 88.1374 67.4493 83.5304C69.5104 81.4319 71.8898 79.6073 74.6774 78.5909L67.6513 82.4776Z" fill="#002EA4" stroke="#003D9F" stroke-width="0.150228"/>
<path d="M93.1748 68.3253C92.9859 68.3022 92.8947 68.1413 92.8947 67.9997C92.8947 67.9275 92.9177 67.8524 92.9699 67.7966C93.0239 67.7387 93.1027 67.7088 93.1971 67.7184M93.1748 68.3253L103.285 69.4006L103.301 69.3272C99.9707 68.6056 96.5953 68.0568 93.1971 67.7184M93.1748 68.3253L93.1747 68.3261C98.3759 68.8365 103.591 69.8046 108.596 71.3053C109.745 71.6507 110.9 72.0461 111.888 72.7152C112.604 73.1998 113.154 73.8048 112.969 74.7035L112.969 74.7036C112.853 75.2678 112.565 75.5991 112.186 75.7865C111.803 75.9762 111.321 76.0217 110.815 75.9957C109.358 75.92 107.914 75.7075 106.467 75.4947C105.619 75.3698 104.77 75.2449 103.917 75.1473L103.916 75.1472C103.822 75.1376 103.743 75.1667 103.69 75.2243C103.638 75.2799 103.616 75.3546 103.616 75.4263C103.618 75.5681 103.71 75.7298 103.899 75.7546L103.899 75.7546L103.9 75.7548C104.793 75.8571 105.681 75.9822 106.57 76.1074C107.116 76.1843 107.663 76.2613 108.21 76.333L93.1748 68.3253ZM93.1971 67.7184C93.1971 67.7184 93.1972 67.7184 93.1972 67.7184L93.1896 67.7932L93.197 67.7184C93.197 67.7184 93.1971 67.7184 93.1971 67.7184ZM111.159 71.6087L111.128 71.675L111.159 71.6088C111.159 71.6088 111.159 71.6087 111.159 71.6087Z" fill="#002EA4" stroke="#003D9F" stroke-width="0.150228"/>
<path d="M114.635 69.423C114.693 67.4129 111.6 66.6496 109.66 66.1707C109.316 66.0859 109.009 66.01 108.761 65.9377C103.66 64.4611 98.5297 63.4436 93.2299 63.0321L93.3115 63.1138M114.635 69.423L93.1281 62.4977L93.1224 62.5726C92.9085 62.5561 92.8508 62.7959 92.9492 62.9353L92.9187 62.933L93.0618 63.0763L93.0693 63.0839L93.1137 63.0395L93.1092 63.0982C93.1119 63.0984 93.1145 63.0986 93.1172 63.0988C93.182 63.1037 93.2467 63.1087 93.3115 63.1138M114.635 69.423C114.586 71.2054 112.774 71.043 111.482 70.9271C111.386 70.9184 111.292 70.91 111.202 70.9027L114.635 69.423ZM93.3115 63.1138L93.3189 63.1212L93.1167 63.1057C92.9216 63.0907 92.8276 62.9283 92.8276 62.7848C92.8276 62.7125 92.8506 62.6374 92.9021 62.5809C92.9554 62.5225 93.0336 62.4904 93.1282 62.4977C99.4359 62.9788 105.774 64.1968 111.768 66.2573C112.613 66.5479 113.7 67.0595 114.419 67.7755C114.779 68.1341 115.05 68.5479 115.149 69.0147C115.249 69.4833 115.172 69.997 114.85 70.5499L114.85 70.5501C114.545 71.0705 114.105 71.3269 113.614 71.4434C113.127 71.559 112.587 71.5372 112.076 71.5035L112.076 71.5035C111.065 71.4361 110.057 71.3182 109.05 71.2005C108.708 71.1605 108.366 71.1205 108.024 71.0825L108.023 71.0824L108.023 71.0824C107.834 71.0576 107.742 70.8958 107.741 70.7541C107.74 70.6824 107.762 70.6077 107.814 70.5521C107.868 70.4944 107.946 70.4653 108.04 70.475L108.041 70.4751C108.365 70.5118 108.687 70.5506 109.01 70.5893C109.743 70.6775 110.474 70.7653 111.209 70.8279L111.491 70.8524C112.09 70.906 112.786 70.9682 113.368 70.847C113.704 70.7771 113.994 70.6472 114.204 70.4255C114.412 70.2049 114.547 69.8854 114.56 69.4209L114.56 69.4208C114.576 68.8554 114.333 68.3913 113.925 68.0021C113.516 67.6115 112.944 67.2991 112.312 67.0429C111.428 66.6846 110.446 66.4422 109.649 66.2457C109.304 66.1603 108.993 66.0836 108.74 66.0098L108.761 65.9377L108.74 66.0098C103.672 64.5426 98.5744 63.5292 93.3115 63.1138Z" fill="#002EA4" stroke="#003D9F" stroke-width="0.150228"/>
<path d="M91.5834 58.2593C91.4856 58.3171 91.4095 58.4313 91.4273 58.5625H91.398L91.4567 58.6729C93.5699 62.6453 93.4229 67.6926 91.9779 71.8705C91.9465 71.9602 91.9573 72.044 91.9998 72.1107C92.041 72.1753 92.1076 72.2173 92.1775 72.2363C92.3164 72.2739 92.4979 72.2254 92.5629 72.0403L92.563 72.04C94.0625 67.7148 94.1857 62.5019 91.9877 58.3699C91.9441 58.2854 91.8756 58.2355 91.798 58.2197C91.7227 58.2043 91.6459 58.2224 91.5834 58.2593Z" fill="#002EA4" stroke="#003D9F" stroke-width="0.150228"/>
<path d="M58.7498 67.2694L58.7497 67.2695C58.3724 67.6303 57.9945 67.9903 57.6168 68.3504C56.1062 69.7901 54.5964 71.229 53.1249 72.7065C46.677 79.1844 40.5233 86.0868 35.5064 93.743L35.5139 93.7581L35.4902 93.7942C35.3839 93.9562 35.1987 93.9566 35.0758 93.8845C35.0139 93.8481 34.9611 93.7906 34.9376 93.718C34.9135 93.6433 34.9227 93.5596 34.9734 93.4798L34.9739 93.4791L34.9739 93.4791C40.6118 84.8569 47.6619 77.1608 55.0249 70.0007L55.025 70.0005C55.9415 69.1141 56.8658 68.2274 57.7976 67.3557C58.6599 66.5454 59.1257 65.8354 59.4822 64.677C59.5987 64.2935 59.7106 63.9086 59.8224 63.5235C60.2062 62.2019 60.5903 60.8794 61.1683 59.6125L61.1683 59.6125C62.1505 57.4668 63.6234 55.7226 65.4716 54.2666C67.2521 52.8596 69.2141 51.8857 71.2404 51.0507C72.223 50.6458 73.2216 50.2732 74.222 49.9L74.315 49.8653C75.3469 49.4803 76.3804 49.0935 77.4023 48.6678L77.4024 48.6678C79.5292 47.7841 81.4832 46.6311 83.2649 45.1638C83.9552 44.5947 84.6076 43.9931 85.2612 43.3903C85.5376 43.1353 85.8142 42.8802 86.0941 42.6272L86.0941 42.6272C86.775 42.0137 87.6065 41.2793 88.5276 41.0183C89.3549 40.7814 90.0589 41.0155 90.5895 41.4889C91.1176 41.96 91.4735 42.6668 91.6187 43.3816L91.6188 43.3818C92.0452 45.5061 91.1765 47.6679 90.0227 49.3948C89.3881 50.3467 88.6332 51.2071 87.8115 51.9986L87.8112 51.9989C87.6895 52.1148 87.5371 52.2336 87.3783 52.3555C87.3627 52.3674 87.3471 52.3794 87.3314 52.3914C87.1859 52.503 87.0359 52.6181 86.8948 52.7395C86.5796 53.0107 86.3263 53.2998 86.2711 53.6247C86.2004 54.0531 86.3371 54.4136 86.6049 54.7215C86.8749 55.0317 87.2774 55.2871 87.7316 55.4958C88.6397 55.9132 89.73 56.1334 90.3047 56.2424C94.8733 57.1065 99.4286 58.1438 103.857 59.5798M58.7498 67.2694L103.834 59.6512M58.7498 67.2694C59.5092 66.5406 59.814 65.621 60.1067 64.6454L60.1068 64.6451M58.7498 67.2694L60.1068 64.6451M103.857 59.5798L103.834 59.6512M103.857 59.5798C103.857 59.5798 103.857 59.5798 103.857 59.5797L103.834 59.6512M103.857 59.5798C103.993 59.6235 104.13 59.6674 104.268 59.7115C106.113 60.3022 108.102 60.9389 109.719 62.0149L109.719 62.0149C110.447 62.4998 111.156 63.1797 111.512 63.9491C111.691 64.3347 111.781 64.7446 111.739 65.164C111.697 65.5839 111.522 66.008 111.178 66.422L111.12 66.3739C112.464 64.759 111.12 63.0389 109.678 62.0774C108.069 61.0075 106.09 60.3738 104.243 59.7823C104.106 59.7385 103.969 59.6948 103.834 59.6512M60.1068 64.6451C60.1908 64.3608 60.2727 64.0765 60.3545 63.7927C60.7864 62.2948 61.2145 60.8099 61.9122 59.4144C64.1146 55.0096 68.6052 52.5694 73.0632 50.9107L73.0633 50.9107M60.1068 64.6451L73.0633 50.9107M73.0633 50.9107C73.2271 50.8496 73.3907 50.7887 73.554 50.7279C77.1619 49.3849 80.6395 48.0904 83.6759 45.5878C84.4889 44.9177 85.2715 44.2029 86.0379 43.4891L86.038 43.4889M73.0633 50.9107L86.038 43.4889M86.038 43.4889C86.127 43.4055 86.2195 43.3169 86.3152 43.2252C86.6715 42.8837 87.0725 42.4993 87.506 42.1831C88.0562 41.7819 88.644 41.5021 89.2399 41.5559L89.24 41.556M86.038 43.4889L89.24 41.556M89.24 41.556C89.9147 41.616 90.3632 41.9141 90.6512 42.3489C90.9416 42.7872 91.0727 43.3706 91.0954 44.0039C91.1409 45.2708 90.7518 46.7051 90.3952 47.4814L90.4635 47.5128M89.24 41.556L90.4635 47.5128M90.4635 47.5128L90.3952 47.4815C89.8955 48.5704 89.2088 49.5709 88.4239 50.4679L88.4239 50.468M90.4635 47.5128L88.4239 50.468M88.4239 50.468C88.0707 50.8732 87.6705 51.2307 87.2655 51.5887L87.2134 51.6348C86.8266 51.9766 86.437 52.3208 86.0888 52.7053C85.4797 53.3777 85.581 54.2529 86.0918 54.9341L86.092 54.9342M88.4239 50.468L86.092 54.9342M86.092 54.9342C86.6687 55.6993 87.5175 56.1377 88.4268 56.4253M86.092 54.9342L88.4268 56.4253M88.4268 56.4253C89.1339 56.649 89.885 56.7836 90.5796 56.908M88.4268 56.4253L90.5796 56.908M90.5796 56.908C90.7768 56.9433 90.9695 56.9779 91.1553 57.0134M90.5796 56.908L91.1553 57.0134M91.1553 57.0134C93.52 57.4713 95.8696 57.9968 98.2043 58.5898L91.1553 57.0134ZM110.739 66.0029L110.797 66.0509L110.739 66.0029C110.739 66.0029 110.739 66.0029 110.739 66.0029Z" fill="#002EA4" stroke="#003D9F" stroke-width="0.150228"/>
<path d="M125.037 24.2739C129.369 24.8673 133.989 26.3044 137.178 29.3679L137.178 29.368C140.402 32.4717 141.032 37.1534 138.578 40.9329L138.515 40.892L138.578 40.9329C135.859 45.117 130.985 47.4372 126.407 48.8956C120.21 50.8736 113.697 51.7685 107.2 51.6709H107.178H107.176C107.081 51.6684 107.006 51.6295 106.955 51.5695C106.906 51.5109 106.883 51.436 106.883 51.3638C106.883 51.2917 106.906 51.2169 106.956 51.159C107.007 51.0995 107.083 51.0624 107.178 51.0624H107.179C110.337 51.1075 113.488 50.9274 116.609 50.4923C122.187 49.7115 128.131 48.3312 132.955 45.3276C134.957 44.0809 136.899 42.3833 138.139 40.3709C139.379 38.3601 139.919 36.0372 139.127 33.5309L139.199 33.5083L139.127 33.5309C138.413 31.2691 136.799 29.5559 134.825 28.2681C132.852 26.9803 130.522 26.121 128.386 25.5663C127.451 25.3233 126.442 25.1025 125.399 24.9364C126.098 26.3269 126.497 27.8612 126.474 29.4906C126.448 31.5684 125.714 33.7326 124.426 35.3983C123.137 37.0648 121.291 38.2357 119.041 38.3155C117.041 38.3876 115.005 37.5854 113.557 36.2344C112.108 34.8826 111.245 32.9769 111.603 30.8443L111.603 30.8442C111.991 28.5558 113.631 26.6463 115.574 25.4892C118.066 24.0047 121.083 23.8409 123.883 24.1345L123.877 24.1982L123.883 24.1345C124.011 24.1479 124.139 24.162 124.267 24.1768C121.667 20.0668 116.558 18.053 111.772 17.8695C106.774 17.6739 101.986 19.0818 97.219 20.4832C95.9602 20.8533 94.7029 21.223 93.4438 21.5625C83.9617 24.1267 73.9181 24.6224 64.1491 24.2166C59.0685 24.0062 53.9951 23.5026 48.9814 22.6382L48.9814 22.6382C44.337 21.8341 39.6593 20.7664 35.2583 19.0285L35.2582 19.0285C31.2253 17.4334 27.312 15.0754 24.7389 11.4835C22.8289 8.81863 21.84 5.58014 21.9306 2.3039C22.0519 -2.25341 25.7952 -5.68322 29.7906 -7.21356C32.5957 -8.29188 35.5776 -8.66425 38.5869 -8.82496C39.8775 -8.89389 41.1745 -8.92392 42.4649 -8.95379C42.6788 -8.95875 42.8925 -8.9637 43.106 -8.96882C44.608 -9.00485 46.0986 -9.04942 47.5611 -9.16379M125.037 24.2739L47.567 -9.08891M125.037 24.2739C123.561 21.7766 121.113 19.8045 118.467 18.6718C112.77 16.2272 106.326 17.3234 100.585 18.8862L100.605 18.9587L100.585 18.8862C99.6313 19.1463 98.6821 19.4114 97.7352 19.6759C93.3175 20.9097 88.9485 22.13 84.3702 22.7602C73.5765 24.2463 62.4293 24.0288 51.6566 22.4448M125.037 24.2739L81.5411 -27.8749M47.5611 -9.16379L47.567 -9.08891M47.5611 -9.16379C47.5611 -9.16379 47.5611 -9.16379 47.5611 -9.16379L47.567 -9.08891M47.5611 -9.16379C56.3286 -9.85438 65.4905 -11.9332 72.602 -17.3511M47.567 -9.08891C56.3403 -9.77995 65.5193 -11.8606 72.6476 -17.2914M72.602 -17.3511L72.6476 -17.2914M72.602 -17.3511C77.3737 -20.9916 80.7744 -26.0478 82.3475 -31.8306L82.3478 -31.8318C82.3742 -31.9231 82.431 -31.9866 82.5023 -32.0205C82.5719 -32.0537 82.6506 -32.0565 82.7205 -32.0373C82.7904 -32.0182 82.8566 -31.9758 82.8995 -31.912C82.9435 -31.8466 82.9599 -31.7632 82.9357 -31.6716L82.9356 -31.671C82.5817 -30.3685 82.145 -29.0882 81.6101 -27.8453M72.602 -17.3511C72.602 -17.3511 72.6021 -17.3511 72.6021 -17.3511L72.6476 -17.2914M72.6476 -17.2914L81.6101 -27.8453M81.6101 -27.8453L81.5411 -27.8749M81.6101 -27.8453L82.4199 -31.8109C82.5026 -32.0963 82.9382 -31.9762 82.8631 -31.6907C82.5101 -30.3913 82.0744 -29.1143 81.5411 -27.8749M81.6101 -27.8453C78.9884 -21.7355 74.1527 -16.9762 68.3033 -13.9123L68.2711 -13.9737L68.3033 -13.9123C64.2766 -11.8049 59.8901 -10.4508 55.4456 -9.60103C52.7909 -9.08964 50.1065 -8.75129 47.4149 -8.5483M81.6101 -27.8453C81.6101 -27.8453 81.6101 -27.8453 81.6101 -27.8452L81.5411 -27.8749M51.6566 22.4448C51.6567 22.4448 51.6567 22.4448 51.6567 22.4448L51.6457 22.5191L51.6566 22.4448ZM51.6566 22.4448C46.7395 21.7166 41.8319 20.6884 37.1282 19.0605L37.1281 19.0604C32.4544 17.4475 27.7633 14.9308 24.9601 10.7296L24.96 10.7295C22.9395 7.70617 21.712 3.29258 23.015 -0.221867L23.0151 -0.221966C24.1026 -3.16803 26.3805 -5.04454 29.0891 -6.23339C31.7987 -7.42273 34.9344 -7.92133 37.7247 -8.1126L37.7248 -8.11261C39.269 -8.22059 40.8169 -8.26816 42.3675 -8.3158L42.5639 -8.32184C44.1796 -8.3716 45.798 -8.42422 47.4149 -8.5483M47.4149 -8.5483C47.4149 -8.5483 47.415 -8.54831 47.415 -8.54831L47.4093 -8.6232L47.4149 -8.5483ZM119.783 24.7485C121.369 24.552 123.037 24.617 124.648 24.8275C124.861 25.2213 125.051 25.6326 125.217 26.0616L125.288 26.0344L125.218 26.0616C126.044 28.1909 125.989 30.8021 125.111 33.0149C124.233 35.2266 122.537 37.0319 120.089 37.5662C117.638 38.1008 115.18 37.1577 113.657 35.4876C112.136 33.8196 111.55 31.4314 112.832 29.0673L112.766 29.0315L112.832 29.0673C114.323 26.3161 116.912 25.1043 119.783 24.7485ZM22.9446 -0.247978C25.1379 -6.1895 32.1311 -7.80445 37.7195 -8.18754L24.8976 10.7713C22.8695 7.73665 21.6301 3.29741 22.9446 -0.247978Z" fill="#002EA4" stroke="#003D9F" stroke-width="0.150228"/>
<path d="M127.131 65.4061L127.71 63.2217L127.993 63.1177L128.542 65.3317L130.95 66.253L128.676 66.8771L127.814 69.2249L127.056 66.8771L124.842 66.0598L127.131 65.4061Z" fill="#EC3A0E"/>
<path d="M32.06 54.6577C31.7084 54.7388 31.3387 54.8019 30.987 54.9011C30.7256 54.9732 30.6534 55.0995 30.5813 55.3519C30.4821 55.7036 30.401 56.0552 30.3108 56.4069C30.2747 56.5601 30.0043 57.4347 30.0854 57.4708C30.1485 57.4978 30.0403 57.1192 30.0313 57.0651C29.9952 56.9028 29.9592 56.7405 29.9141 56.5782C29.8239 56.1905 29.7338 55.8028 29.6436 55.4151C29.5895 55.1716 29.5444 54.9913 29.292 54.9101C28.9313 54.7929 28.5526 54.7208 28.1829 54.6306C27.8764 54.5495 27.5157 54.3872 27.2002 54.3782C27.1821 54.3782 26.9657 54.288 27.0288 54.4323C27.0288 54.4323 27.2813 54.3691 27.2633 54.3782C27.4616 54.3331 27.66 54.288 27.8583 54.2429C28.1829 54.1708 28.5165 54.0896 28.8411 54.0175C29.1026 53.9544 29.4633 53.9544 29.5895 53.6749C29.7157 53.3954 29.7608 53.0347 29.842 52.7282C29.9411 52.3495 30.0313 51.9798 30.1305 51.6011C30.1305 51.6191 30.1936 51.3486 30.1936 51.3486C30.0584 51.2945 30.1395 51.4749 30.1395 51.5019C30.1395 51.6552 30.2206 51.8445 30.2567 51.9978C30.3469 52.3675 30.428 52.7372 30.5092 53.1069C30.5723 53.3864 30.5813 53.765 30.8788 53.9003C31.1944 54.0446 31.5911 54.0896 31.9338 54.1798C32.3395 54.288 32.7543 54.4142 33.169 54.5044C33.0157 54.4773 33.2682 54.4413 32.9977 54.4593C32.8805 54.4683 32.7543 54.5224 32.6461 54.5495C32.4477 54.6036 32.2493 54.6487 32.06 54.7028L32.3936 54.8921V54.8651C32.3034 54.5224 31.7715 54.6667 31.8616 55.0093V55.0364C31.9067 55.1806 32.06 55.2618 32.2043 55.2257C32.4748 55.1536 32.7543 55.0815 33.0248 55.0093C33.2141 54.9642 33.4215 54.9462 33.5748 54.811C33.8452 54.5765 33.7461 54.1708 33.4485 54.0175C33.2592 53.9183 33.0248 53.8913 32.8264 53.8372C32.5379 53.7651 32.2493 53.6839 31.9608 53.6118C31.7174 53.5487 31.4649 53.4495 31.2215 53.4224C31.0772 53.3683 31.0592 53.3773 31.1584 53.4495L31.1313 53.3232C31.1313 53.188 31.0592 53.0257 31.0321 52.8905C30.9149 52.3765 30.7977 51.8626 30.6715 51.3486C30.5903 51.006 30.3649 50.6634 29.9592 50.8257C29.5805 50.988 29.5534 51.6011 29.4723 51.9347C29.337 52.4487 29.2469 53.0077 29.0575 53.5036L29.1838 53.3413C29.0485 53.4224 28.8411 53.4314 28.6879 53.4675C28.5256 53.5036 28.3633 53.5396 28.192 53.5847C27.8674 53.6569 27.5428 53.729 27.2272 53.8101C26.8665 53.8913 26.3075 54.0626 26.5329 54.5675C26.6051 54.7298 26.7674 54.811 26.9297 54.8651C27.2452 54.9733 27.5879 55.0364 27.9124 55.1175C28.201 55.1896 28.4895 55.2618 28.769 55.3339L29.0124 55.397C29.1567 55.4601 29.1747 55.4421 29.0665 55.361C29.1477 55.4782 29.1477 55.7396 29.1838 55.8749C29.2649 56.2175 29.3461 56.5692 29.4272 56.9118C29.4903 57.1733 29.5174 57.4618 29.6256 57.7052C29.7788 58.0569 30.2567 58.147 30.4911 57.8044C30.6444 57.579 30.6625 57.2454 30.7346 56.9839C30.8067 56.6954 30.8788 56.4069 30.96 56.1183C31.0051 55.956 31.0411 55.7847 31.0862 55.6224L31.1493 55.37C31.0411 55.4511 31.0592 55.4692 31.2034 55.4151C31.519 55.4151 31.8977 55.2528 32.2133 55.1806C32.5559 55.0995 32.4116 54.5765 32.069 54.6487L32.06 54.6577Z" fill="#002EA4"/>
<path d="M98.175 7.28818L100.656 17.8131C100.8 18.4253 101.279 18.9018 101.891 19.0433L111.607 21.2884C113.047 21.6211 113.357 23.5321 112.098 24.3022L103.265 29.7249C102.804 30.0075 102.511 30.4985 102.479 31.0368L101.852 41.9978C101.773 43.3632 100.165 44.046 99.1271 43.1542L90.814 35.9913C90.4036 35.637 89.8415 35.5071 89.3173 35.6454L78.7043 38.435C77.3804 38.781 76.235 37.4619 76.7627 36.2002L81.0082 26.0753C81.2163 25.5779 81.1684 25.008 80.878 24.5518L75.3154 15.8059C74.5227 14.5584 75.6422 12.981 77.0789 13.313L86.7946 15.5581C87.4071 15.6997 88.0463 15.4815 88.4448 14.9948L95.2915 6.62519C96.1578 5.56809 97.8628 5.96209 98.1743 7.29134L98.175 7.28818Z" fill="#FFB600"/>
<path d="M153.467 9.50443L154.267 6.48532L154.657 6.34155L155.417 9.40162L158.744 10.6749L155.602 11.5375L154.411 14.7824L153.364 11.5375L150.303 10.408L153.467 9.50443Z" fill="#002EA4"/>
<path d="M156.967 10.9542C156.519 11.057 156.051 11.1411 155.612 11.2626C155.304 11.3467 155.229 11.4869 155.145 11.786C155.023 12.2252 154.921 12.6738 154.808 13.1224C154.752 13.328 154.706 13.543 154.65 13.7486C154.622 13.8514 154.556 14.4121 154.463 14.4682C154.481 14.4589 154.21 13.4402 154.182 13.328C154.07 12.8327 153.958 12.3467 153.846 11.8514C153.78 11.5523 153.734 11.3748 153.444 11.2533C153.005 11.085 152.491 11.0103 152.042 10.8981C151.631 10.7953 151.21 10.6832 150.799 10.571C150.78 10.571 150.584 10.5336 150.584 10.5149C150.584 10.5149 150.902 10.4402 150.883 10.4402C151.136 10.3841 151.388 10.328 151.631 10.2626C152.051 10.1692 152.463 10.0664 152.883 9.97289C153.201 9.89813 153.622 9.89813 153.79 9.58037C153.967 9.24393 154.014 8.75795 154.107 8.38412C154.229 7.90749 154.35 7.43085 154.472 6.95422C154.472 6.98226 154.556 6.63647 154.556 6.63647C154.593 6.65516 154.603 6.80469 154.612 6.83273C154.668 7.03833 154.706 7.25328 154.762 7.45889C154.874 7.92618 154.977 8.39347 155.089 8.86075C155.164 9.1972 155.173 9.64579 155.509 9.82336C155.893 10.0196 156.425 10.0664 156.846 10.1785C156.977 10.2159 158.416 10.5336 158.407 10.5897C158.407 10.6738 157.136 10.9262 156.995 10.9635L157.341 11.1598V11.1318C157.248 10.7766 156.696 10.9262 156.79 11.2813V11.3093C156.836 11.4589 156.995 11.543 157.145 11.5056C157.64 11.3748 158.238 11.3093 158.706 11.0944C159.005 10.9542 159.154 10.5991 158.958 10.3C158.724 9.9542 158.136 9.91682 157.78 9.82336C157.21 9.67383 156.631 9.5243 156.061 9.37477C155.706 9.28131 155.79 9.36542 155.715 9.01028C155.659 8.7486 155.593 8.48692 155.537 8.22524C155.397 7.63646 155.322 6.97291 155.107 6.41217C155.005 6.13179 154.743 5.93553 154.435 6.01965C153.995 6.13179 153.967 6.6645 153.874 7.02899C153.734 7.58038 153.584 8.14113 153.444 8.69253C153.407 8.83272 153.388 9.03832 153.322 9.16916L153.304 9.24393C153.304 9.32804 153.276 9.34673 153.21 9.3C152.977 9.44019 152.537 9.44953 152.276 9.51495C151.715 9.64579 151.154 9.75794 150.593 9.90747C150.266 9.99159 149.958 10.1785 150.005 10.5617C150.061 10.9729 150.481 11.0477 150.818 11.1318C151.388 11.2813 151.958 11.4308 152.528 11.571C152.678 11.6084 153.201 11.6645 153.304 11.7673C153.164 11.6271 153.322 12.0196 153.332 12.0477C153.36 12.1598 153.379 12.2626 153.407 12.3748C153.556 13.0103 153.696 13.6551 153.846 14.2906C153.93 14.6645 154.061 15.1131 154.537 15.0476C155.014 14.9822 155.061 14.4775 155.154 14.1037C155.313 13.4775 155.472 12.842 155.631 12.2159C155.659 12.1224 155.687 11.814 155.752 11.7392C155.631 11.8607 155.958 11.7299 156.023 11.7112C156.397 11.6271 156.771 11.543 157.145 11.4589C157.519 11.3748 157.35 10.8327 156.995 10.9075L156.967 10.9542Z" fill="#002EA4"/>
<path d="M320.853 81.202L320.87 81.2715C324.172 80.4542 326.366 77.6117 326.187 74.1913L326.118 74.195L326.187 74.1913C325.988 70.4074 323.664 67.0328 321.21 64.3393C317.89 60.6901 313.952 57.6328 309.648 55.2333L309.633 55.2251L309.632 55.2241C309.565 55.1876 309.495 55.1842 309.434 55.2061C309.375 55.2274 309.328 55.2709 309.299 55.3215C309.27 55.3721 309.255 55.4344 309.267 55.4962C309.279 55.56 309.318 55.6175 309.385 55.6558L309.386 55.6564C311.476 56.8237 313.475 58.1357 315.358 59.6036C318.724 62.2299 322.1 65.3872 324.127 69.1841C324.969 70.7601 325.598 72.6076 325.65 74.3955C325.702 76.1815 325.177 77.9056 323.712 79.2465L323.755 79.2935L323.712 79.2465C322.389 80.457 320.685 80.9692 318.904 81.0664C317.123 81.1636 315.27 80.8452 313.658 80.4C312.963 80.208 312.229 79.9748 311.493 79.6944C312.469 79.0476 313.303 78.1957 313.902 77.1253C313.902 77.1253 313.902 77.1253 313.902 77.1252L313.836 77.0886C315.365 74.3614 315.18 70.3425 312.32 68.5535C309.776 66.9594 305.82 67.5817 304.689 70.6108L320.853 81.202ZM320.853 81.202L320.87 81.2715C317.614 82.0748 314.035 81.2677 310.966 80.0165M320.853 81.202L310.966 80.0165M310.966 80.0165C309.048 81.0956 306.692 81.4612 304.526 81.2019C299.853 80.6468 296.034 77.4802 292.857 74.2782C292.329 73.7457 291.806 73.2118 291.285 72.6792C288.852 70.1947 286.448 67.7386 283.682 65.5904C277.161 60.5246 269.761 56.4431 262.09 53.4003M310.966 80.0165L236.486 64.5779M262.09 53.4003C262.09 53.4003 262.09 53.4003 262.09 53.4003L262.118 53.3306L262.09 53.4003ZM262.09 53.4003C258.586 52.0148 254.976 50.8301 251.272 50.1163L251.272 50.1163C247.594 49.4039 243.565 49.2789 240.138 50.9719L240.138 50.9719C237.668 52.1895 235.195 54.6179 234.719 57.4112L234.719 57.4113C234.318 59.7514 235.1 61.8419 236.425 63.6464C237.752 65.4519 239.619 66.9664 241.378 68.1491L241.378 68.1491C242.35 68.8051 243.348 69.4228 244.348 70.0419C244.391 70.068 244.433 70.0941 244.475 70.1203C245.517 70.7653 246.56 71.4135 247.575 72.1081M247.575 72.1081C247.575 72.1081 247.575 72.1082 247.575 72.1082L247.532 72.1701L247.575 72.1081ZM247.575 72.1081C249.265 73.2619 250.9 74.502 252.449 75.8445C255.046 78.0878 257.414 80.6407 259.26 83.5523L259.197 83.5921L259.26 83.5523C261.941 87.7839 263.313 92.7455 262.718 97.7551C262.597 98.7747 262.399 99.7816 262.137 100.772L262.137 100.772C262.117 100.846 262.071 100.899 262.013 100.928C261.956 100.955 261.892 100.958 261.835 100.943C261.778 100.928 261.724 100.895 261.688 100.842C261.651 100.789 261.637 100.72 261.655 100.645L261.656 100.644C262.814 96.2553 262.498 91.6509 260.747 87.4559C258.134 81.2082 252.91 76.3732 247.417 72.5974C247.417 72.5974 247.417 72.5974 247.417 72.5974L247.459 72.5356M247.459 72.5356C246.411 71.8155 245.303 71.1417 244.19 70.4642C241.406 68.7693 238.583 67.0517 236.544 64.5307M247.459 72.5356C252.957 76.3147 258.195 81.1598 260.816 87.427L247.459 72.5356ZM236.544 64.5307L236.486 64.5779C236.486 64.5779 236.486 64.5779 236.486 64.5779M236.544 64.5307L236.486 64.5779M236.544 64.5307C234.508 62.0207 233.365 58.3754 234.997 55.3661M236.486 64.5779C234.44 62.0559 233.279 58.3774 234.931 55.3304M234.997 55.3661L234.931 55.3304M234.997 55.3661C236.174 53.1918 238.041 51.4492 240.294 50.4288M234.997 55.3661L234.931 55.3304C234.931 55.3304 234.931 55.3304 234.931 55.3304M234.931 55.3304L240.294 50.4288M240.294 50.4288C243.33 49.0523 246.781 48.9865 250.028 49.4671C253.57 49.9935 257.042 51.0641 260.394 52.296C264.011 53.6279 267.53 55.2193 270.943 57.0058C277.508 60.4408 283.908 64.57 289.156 69.8417C289.851 70.5398 290.535 71.2576 291.221 71.9769C293.82 74.7047 296.438 77.4529 299.802 79.2234L240.294 50.4288ZM240.104 50.9047C243.554 49.2009 247.602 49.3291 251.287 50.0426L240.104 50.9047ZM240.104 50.9047C237.623 52.1282 235.126 54.5728 234.646 57.3987L240.104 50.9047ZM289.209 69.7888C289.907 70.4897 290.593 71.2094 291.279 71.9297C293.877 74.6563 296.485 77.3928 299.837 79.157L299.837 79.1571C303.035 80.8433 307.128 81.4573 310.381 79.77C310.303 79.736 310.225 79.7017 310.147 79.6672L289.209 69.7888Z" fill="#002EA4" stroke="#003D9F" stroke-width="0.15"/>
<path d="M187.463 26.4375L186.822 28.8516L186.51 28.9666L185.903 26.5197L183.242 25.5015L185.755 24.8118L186.707 22.2171L187.545 24.8118L189.992 25.715L187.463 26.4375Z" fill="#EC3A0E"/>
<path d="M184.663 25.2783C185.021 25.1961 185.395 25.1288 185.746 25.0317C185.993 24.9644 186.053 24.8523 186.12 24.6132C186.217 24.262 186.299 23.9033 186.389 23.5446C186.434 23.3802 186.471 23.2083 186.516 23.0439C186.538 22.9617 186.591 22.5133 186.665 22.4685C186.65 22.4759 186.867 23.2905 186.89 23.3802C186.979 23.7762 187.069 24.1648 187.159 24.5609C187.211 24.8 187.248 24.942 187.48 25.0392C187.831 25.1737 188.242 25.2335 188.601 25.3231C188.93 25.4053 189.266 25.495 189.595 25.5847C189.61 25.5847 189.767 25.6146 189.767 25.6295C189.767 25.6295 189.513 25.6893 189.528 25.6893C189.326 25.7342 189.124 25.779 188.93 25.8313C188.593 25.906 188.265 25.9882 187.928 26.063C187.674 26.1228 187.338 26.1228 187.203 26.3768C187.061 26.6459 187.024 27.0345 186.949 27.3334C186.852 27.7145 186.755 28.0956 186.658 28.4767C186.658 28.4543 186.591 28.7308 186.591 28.7308C186.561 28.7159 186.553 28.5963 186.546 28.5739C186.501 28.4095 186.471 28.2376 186.426 28.0732C186.337 27.6995 186.254 27.3259 186.165 26.9523C186.105 26.6832 186.097 26.3245 185.828 26.1825C185.522 26.0256 185.096 25.9882 184.76 25.8986C184.655 25.8687 183.504 25.6146 183.512 25.5698C183.512 25.5025 184.528 25.3007 184.64 25.2708L184.364 25.1139L184.364 25.1363C184.438 25.4203 184.879 25.3007 184.805 25.0168L184.805 24.9943C184.767 24.8748 184.64 24.8075 184.521 24.8374C184.125 24.942 183.646 24.9943 183.273 25.1662C183.034 25.2783 182.914 25.5623 183.071 25.8014C183.258 26.0779 183.729 26.1078 184.012 26.1825C184.468 26.3021 184.932 26.4217 185.388 26.5412C185.671 26.616 185.604 26.5487 185.664 26.8327C185.709 27.0419 185.761 27.2512 185.806 27.4604C185.918 27.9312 185.978 28.4618 186.15 28.9102C186.232 29.1344 186.441 29.2913 186.688 29.224C187.039 29.1344 187.061 28.7084 187.136 28.417C187.248 27.9761 187.368 27.5277 187.48 27.0868C187.51 26.9747 187.525 26.8103 187.577 26.7056L187.592 26.6459C187.592 26.5786 187.614 26.5637 187.667 26.601C187.854 26.4889 188.205 26.4815 188.414 26.4291C188.862 26.3245 189.311 26.2348 189.759 26.1153C190.021 26.048 190.267 25.8986 190.23 25.5922C190.185 25.2634 189.849 25.2036 189.58 25.1363C189.124 25.0168 188.668 24.8972 188.212 24.7851C188.093 24.7552 187.674 24.7104 187.592 24.6282C187.704 24.7403 187.577 24.4264 187.57 24.404C187.547 24.3143 187.532 24.2321 187.51 24.1424C187.39 23.6343 187.278 23.1186 187.159 22.6105C187.091 22.3115 186.987 21.9528 186.606 22.0051C186.224 22.0575 186.187 22.461 186.112 22.7599C185.985 23.2606 185.858 23.7688 185.731 24.2695C185.709 24.3442 185.686 24.5908 185.634 24.6506C185.731 24.5534 185.47 24.658 185.417 24.673C185.118 24.7403 184.82 24.8075 184.521 24.8748C184.222 24.942 184.356 25.3755 184.64 25.3157L184.663 25.2783Z" fill="#EC3A0E"/>
<path d="M300.849 10.7157C301.237 10.6261 301.646 10.5563 302.034 10.4467C302.323 10.367 302.403 10.2275 302.483 9.94848C302.592 9.55986 302.682 9.17124 302.782 8.78262C302.822 8.61323 303.121 7.64665 303.031 7.60679C302.961 7.5769 303.081 7.99541 303.091 8.0552C303.131 8.23456 303.17 8.41393 303.22 8.59329C303.32 9.02177 303.42 9.45024 303.519 9.87872C303.579 10.1478 303.629 10.3471 303.908 10.4367C304.306 10.5663 304.725 10.646 305.133 10.7456C305.472 10.8353 305.871 11.0147 306.22 11.0247C306.24 11.0247 306.479 11.1243 306.409 10.9649C306.409 10.9649 306.13 11.0346 306.15 11.0247C305.931 11.0745 305.711 11.1243 305.492 11.1741C305.133 11.2538 304.765 11.3435 304.406 11.4232C304.117 11.493 303.718 11.493 303.579 11.8019C303.439 12.1108 303.39 12.5094 303.3 12.8482C303.19 13.2667 303.091 13.6752 302.981 14.0937C302.981 14.0738 302.911 14.3728 302.911 14.3728C303.061 14.4325 302.971 14.2332 302.971 14.2033C302.971 14.0339 302.881 13.8247 302.842 13.6553C302.742 13.2468 302.652 12.8382 302.563 12.4297C302.493 12.1207 302.483 11.7022 302.154 11.5528C301.805 11.3933 301.367 11.3435 300.988 11.2439C300.54 11.1243 300.081 10.9848 299.623 10.8852C299.792 10.915 299.513 10.9549 299.812 10.935C299.942 10.925 300.081 10.8652 300.201 10.8353C300.42 10.7755 300.639 10.7257 300.849 10.6659L300.48 10.4567L300.48 10.4866C300.58 10.8652 301.168 10.7058 301.068 10.3271L301.068 10.2972C301.018 10.1378 300.849 10.0481 300.689 10.088C300.39 10.1677 300.081 10.2474 299.782 10.3271C299.573 10.3769 299.344 10.3969 299.175 10.5463C298.876 10.8054 298.985 11.2538 299.314 11.4232C299.523 11.5328 299.782 11.5627 300.002 11.6225C300.321 11.7022 300.639 11.7919 300.958 11.8716C301.227 11.9414 301.506 12.051 301.775 12.0809C301.935 12.1407 301.955 12.1307 301.845 12.051L301.875 12.1905C301.875 12.34 301.955 12.5193 301.985 12.6688C302.114 13.2368 302.244 13.8048 302.383 14.3728C302.473 14.7514 302.722 15.1301 303.17 14.9507C303.589 14.7713 303.619 14.0937 303.709 13.7251C303.858 13.1571 303.958 12.5393 304.167 11.9912L304.027 12.1706C304.177 12.0809 304.406 12.0709 304.575 12.0311C304.755 11.9912 304.934 11.9514 305.123 11.9015C305.482 11.8218 305.841 11.7421 306.19 11.6524C306.588 11.5627 307.206 11.3734 306.957 10.8154C306.877 10.636 306.698 10.5463 306.519 10.4866C306.17 10.367 305.791 10.2972 305.432 10.2076C305.114 10.1278 304.795 10.0481 304.486 9.9684L304.217 9.89865C304.057 9.8289 304.037 9.84882 304.157 9.9385C304.067 9.80896 304.067 9.52 304.027 9.37053C303.938 8.99188 303.848 8.60325 303.758 8.22459C303.689 7.93562 303.659 7.61676 303.539 7.34772C303.37 6.9591 302.842 6.85946 302.583 7.23811C302.413 7.48722 302.393 7.85592 302.313 8.14489C302.234 8.46376 302.154 8.78262 302.064 9.10148C302.015 9.28085 301.975 9.47018 301.925 9.64954L301.855 9.92855C301.975 9.83886 301.955 9.81893 301.795 9.87872C301.447 9.87872 301.028 10.0581 300.679 10.1378C300.301 10.2275 300.46 10.8054 300.839 10.7257L300.849 10.7157Z" fill="#002EA4"/>
<path d="M155.119 33.642L155.708 37.022C155.742 37.2185 155.885 37.3784 156.076 37.4347L159.111 38.3274C159.561 38.4597 159.624 39.0708 159.211 39.2912L156.311 40.8435C156.16 40.9244 156.058 41.0745 156.038 41.2444L155.635 44.7043C155.584 45.1353 155.062 45.3215 154.75 45.0196L152.251 42.5954C152.127 42.4756 151.952 42.4239 151.783 42.4579L148.37 43.143C147.944 43.2278 147.606 42.7886 147.796 42.3989L149.33 39.2714C149.406 39.1178 149.401 38.9364 149.318 38.7864L147.719 35.9124C147.492 35.5024 147.876 35.0238 148.325 35.1558L151.36 36.0485C151.551 36.1048 151.758 36.0477 151.893 35.901L154.218 33.3781C154.512 33.0595 155.045 33.2162 155.119 33.643L155.119 33.642Z" fill="#FFB600"/>
</g>
</g>
<defs>
<clipPath id="clip0_292_4929">
<rect width="320" height="88" fill="white"/>
</clipPath>
<clipPath id="clip1_292_4929">
<path d="M0 8C0 3.58173 3.58172 0 8 0H312C316.418 0 320 3.58172 320 8V136C320 140.418 316.418 144 312 144H7.99999C3.58171 144 0 140.418 0 136V8Z" fill="white"/>
</clipPath>
</defs>
</svg>
