<svg width="320" height="88" viewBox="0 0 320 88" fill="none" xmlns="http://www.w3.org/2000/svg">
<g clip-path="url(#clip0_292_4900)">
<g clip-path="url(#clip1_292_4900)">
<rect width="320" height="88" fill="#FFF5DC"/>
<path d="M95.0006 77.242C94.628 77.3352 94.2421 77.4017 93.8695 77.5082C93.4969 77.6146 93.4569 77.7477 93.3638 78.0538L93.0844 79.1715L92.9513 79.6905L92.8714 80.0099C92.8714 80.1828 92.7118 80.276 92.9646 80.276C93.2174 80.276 93.111 80.276 93.071 80.103C93.0311 79.93 93.071 79.93 93.071 79.8502C93.071 79.7703 93.0045 79.5042 92.9646 79.3312C92.8581 78.9187 92.765 78.5195 92.6718 78.107C92.5787 77.6945 92.5255 77.6013 92.2194 77.4948C91.8389 77.377 91.4525 77.2793 91.0617 77.2021C90.7264 77.0762 90.3783 76.9869 90.0238 76.936H89.9572C89.8241 76.936 89.7842 76.936 89.8508 77.242L90.0903 77.1755L90.7157 77.0291L91.7537 76.7896C92.0863 76.723 92.4722 76.7097 92.6186 76.3504C92.7336 76.0299 92.8227 75.7006 92.8848 75.3657C92.9912 74.9665 93.0976 74.5673 93.1908 74.1814C93.2208 74.0948 93.243 74.0058 93.2574 73.9153H92.9513V74.035C92.9815 74.2114 93.026 74.3849 93.0844 74.554C93.1642 74.9532 93.2574 75.3391 93.3505 75.725C93.4437 76.1109 93.4436 76.4835 93.8162 76.6432C94.1764 76.7688 94.5456 76.8667 94.9207 76.936L95.5728 77.0956C95.7783 77.1776 95.9927 77.2356 96.2115 77.2686V77.1222C96.2115 76.9626 96.2115 76.9226 96.0651 77.0025C95.9371 77.0154 95.8115 77.0467 95.6925 77.0956L95.0671 77.2553L95.5728 77.5348C95.453 77.0424 94.6679 77.2553 94.801 77.761C94.832 77.8651 94.9016 77.9534 94.9956 78.0078C95.0896 78.0622 95.2009 78.0786 95.3066 78.0538L96.1716 77.8275C96.3955 77.7962 96.6094 77.7143 96.797 77.588C96.8722 77.5197 96.9293 77.4339 96.963 77.338C96.9968 77.2422 97.0062 77.1395 96.9903 77.0392C96.9745 76.9389 96.9339 76.8441 96.8723 76.7633C96.8106 76.6826 96.7299 76.6184 96.6373 76.5767C96.4208 76.4779 96.1928 76.4064 95.9587 76.3638L95.0405 76.1375C94.7889 76.0508 94.5308 75.984 94.2687 75.9379C94.0824 75.8581 94.0957 75.9379 94.2687 76.0444V75.9113C94.2522 75.7567 94.2164 75.6047 94.1622 75.4589C94.0425 74.9133 93.9227 74.381 93.7896 73.8354C93.6566 73.2898 93.3904 73.0237 92.898 73.21C92.4057 73.3963 92.4057 74.0483 92.2993 74.4609C92.1919 75.0192 92.0496 75.5703 91.8734 76.1109L92.0597 75.8714C91.9012 75.9315 91.7358 75.9718 91.5673 75.9912L91.0484 76.1109L90.0238 76.3371C89.7725 76.3677 89.5338 76.4641 89.3318 76.6166C89.2471 76.7082 89.1916 76.823 89.1727 76.9463C89.1537 77.0696 89.1721 77.1957 89.2253 77.3085C89.2752 77.4003 89.3435 77.4807 89.426 77.5449C89.5084 77.609 89.6032 77.6554 89.7044 77.6811C90.0371 77.7876 90.3963 77.8541 90.7423 77.9473L91.6472 78.1735H91.9C92.0863 78.24 92.0863 78.1735 91.9 78.0538C91.9 78.0538 92.0198 78.5594 92.0331 78.5993C92.1129 78.9586 92.1928 79.3179 92.2859 79.6905C92.3257 79.9713 92.3925 80.2476 92.4855 80.5155C92.5263 80.6239 92.5957 80.7192 92.6864 80.7912C92.7771 80.8632 92.8857 80.9091 93.0005 80.9241C93.1153 80.9392 93.2321 80.9227 93.3382 80.8765C93.4444 80.8303 93.536 80.7561 93.6033 80.6619C93.7379 80.3804 93.8278 80.0796 93.8695 79.7703C93.9493 79.4643 94.0292 79.1582 94.0957 78.8522C94.1622 78.5461 94.1888 78.5062 94.2287 78.3332L94.2953 78.0803C94.0957 78.2267 94.0824 78.2667 94.2953 78.2001C94.4721 78.1793 94.6462 78.1391 94.8142 78.0803L95.3466 77.9606C95.7191 77.9074 95.5062 77.1223 95.0006 77.242Z" fill="#002EA4"/>
<path d="M79.7504 71.1401L98.8059 73.8015C101.002 74.1075 103.716 74.8927 105.952 74.4934C109.106 73.9479 110.769 71.3663 111.181 68.4122L117.036 26.4953L118.048 19.243C118.407 16.688 118.207 14.2129 116.092 12.3899C113.976 10.5668 111.155 10.6999 108.706 10.3539L96.8099 8.69056C94.1485 8.31796 91.4871 7.89214 88.8257 7.57277C87.992 7.45446 87.1431 7.50182 86.3277 7.71214C85.5124 7.92246 84.7465 8.29161 84.074 8.79844C83.4016 9.30526 82.8357 9.93981 82.4089 10.6657C81.9821 11.3916 81.7027 12.1946 81.5867 13.0286C80.7617 18.1518 80.1496 23.3282 79.431 28.4647L76.0244 52.9495L74.8268 61.5458C74.3839 63.288 74.343 65.1082 74.7071 66.8686C75.08 67.9728 75.7487 68.9537 76.6402 69.7045C77.5317 70.4552 78.6121 70.9472 79.7637 71.1268C80.2694 71.2199 80.4823 70.4481 79.9766 70.355C78.5444 70.1402 77.2514 69.3778 76.3702 68.2285C75.489 67.0792 75.0884 65.6327 75.2527 64.1939C75.2527 63.768 75.3724 63.3555 75.4389 62.943L76.3571 56.2895L79.4843 33.8806L82.1456 15.2509C82.4517 13.002 82.638 10.7797 84.7139 9.30268C87.0426 7.66592 90.0367 8.55749 92.698 8.91677C99.2451 9.83495 105.805 10.6999 112.352 11.658C113.139 11.7254 113.903 11.9558 114.595 12.3347C115.287 12.7135 115.893 13.2325 116.374 13.8584C116.855 14.4844 117.2 15.2036 117.387 15.9703C117.575 16.737 117.6 17.5343 117.462 18.3115C117.236 20.1212 116.957 21.9177 116.704 23.7274L110.756 65.3915C110.583 66.5891 110.463 67.8134 110.25 69.011C110.026 70.4324 109.261 71.7121 108.115 72.5826C106.969 73.4531 105.532 73.8469 104.102 73.6817C103.41 73.6817 102.771 73.4954 102.053 73.4023L81.6267 70.5546L79.9234 70.3151C79.4576 70.3018 79.2314 71.0203 79.7504 71.1401Z" fill="#002EA4"/>
<path d="M107.709 67.0388L114.381 19.1976C114.654 17.2396 113.288 15.431 111.33 15.1579L89.0967 12.0569C87.1387 11.7838 85.3301 13.1497 85.057 15.1077L78.3845 62.9489C78.1114 64.9068 79.4773 66.7155 81.4352 66.9886L103.669 70.0896C105.627 70.3627 107.435 68.9968 107.709 67.0388Z" fill="#FF3B00"/>
<path d="M96.9435 17.0343C98.2742 17.3936 99.738 17.2872 101.069 17.6332C101.166 17.6426 101.263 17.6174 101.343 17.562C101.423 17.5066 101.481 17.4246 101.507 17.3306C101.532 17.2365 101.524 17.1364 101.482 17.0481C101.441 16.9598 101.37 16.8889 101.282 16.8481C99.9509 16.5021 98.5004 16.6085 97.1697 16.2492C97.0712 16.2352 96.971 16.2573 96.8874 16.3113C96.8039 16.3654 96.7428 16.4478 96.7152 16.5434C96.6877 16.639 96.6956 16.7414 96.7376 16.8316C96.7795 16.9218 96.8526 16.9938 96.9435 17.0343V17.0343Z" fill="#FFFCE0"/>
<path d="M105.605 24.7164L106.323 27.1317C106.364 27.2722 106.48 27.3755 106.622 27.3985L108.872 27.7626C109.205 27.8166 109.304 28.2575 109.027 28.4579L107.089 29.8686C106.988 29.9421 106.928 30.0615 106.929 30.1876L106.943 32.7558C106.944 33.0757 106.587 33.2615 106.337 33.0705L104.337 31.5356C104.238 31.4597 104.108 31.4386 103.991 31.4795L101.608 32.305C101.311 32.4075 101.031 32.1185 101.133 31.8154L101.957 29.3829C101.997 29.2634 101.978 29.1312 101.905 29.0295L100.51 27.08C100.311 26.8019 100.544 26.4154 100.877 26.4693L103.126 26.8334C103.268 26.8564 103.411 26.795 103.495 26.6748L104.938 24.6091C105.12 24.3482 105.515 24.4121 105.605 24.7172L105.605 24.7164Z" fill="#FEE200"/>
<path d="M104.981 9.95528C104.112 4.60154 101.617 -0.35534 97.8353 -4.24324C94.269 -7.83612 88.9462 -10.6971 83.7432 -9.95193C78.8862 -9.24666 76.3046 -4.96182 75.9852 -0.370924C75.5993 5.0317 78.0611 10.3545 81.2415 14.5728C85.0164 19.2381 89.5675 23.2175 94.6948 26.3361C100.27 29.9822 105.899 33.5086 111.435 37.2345C121.136 43.7549 131.395 50.9008 134.443 62.9702C135.92 68.945 134.443 75.1194 128.681 78.1534C121.814 81.7862 114.19 77.9139 108.947 73.2298C108.561 72.8839 107.988 73.4427 108.374 73.802C112.366 77.3949 117.583 80.4555 123.145 80.4555C125.396 80.405 127.596 79.7808 129.538 78.6421C131.481 77.5034 133.1 75.8879 134.243 73.9484C139.26 64.9662 132.167 53.3626 125.806 47.1083C121.895 43.4908 117.654 40.2475 113.138 37.4208C107.682 33.7481 102.187 30.1685 96.6376 26.6289C91.0886 23.0892 85.7259 19.2568 81.7871 13.974C78.3672 9.39638 75.7324 3.32841 77.1163 -2.47342C77.4262 -4.21539 78.2906 -5.81064 79.5806 -7.02155C80.8707 -8.23246 82.5174 -8.99424 84.2755 -9.19343C87.7724 -9.36342 91.224 -8.34576 94.0694 -6.30582C96.7773 -4.37652 99.0702 -1.92302 100.812 0.909142C102.554 3.7413 103.709 6.89442 104.209 10.1815C104.289 10.7005 105.074 10.4876 104.981 9.96859V9.95528Z" fill="#002EA4"/>
<path d="M97.2937 30.2498L98.908 35.6857C99.0021 36.0018 99.2633 36.2343 99.5825 36.286L104.646 37.1056C105.396 37.227 105.617 38.2192 104.995 38.6702L100.633 41.845C100.405 42.0105 100.271 42.2793 100.272 42.5631L100.304 48.343C100.308 49.063 99.5036 49.4811 98.9416 49.0511L94.4398 45.5969C94.2176 45.426 93.9247 45.3786 93.6598 45.4706L88.2982 47.3284C87.6294 47.5591 86.9984 46.9088 87.2287 46.2266L89.0824 40.752C89.1732 40.483 89.1302 40.1855 88.9663 39.9566L85.8263 35.5692C85.3788 34.9434 85.9029 34.0736 86.6516 34.1948L91.7149 35.0143C92.0342 35.066 92.3554 34.9277 92.5444 34.6574L95.791 30.0084C96.2019 29.4211 97.0905 29.565 97.2934 30.2515L97.2937 30.2498Z" fill="#FEE200"/>
<path d="M73.1241 25.0184L67.921 20.7203C67.8427 20.6492 67.7407 20.6099 67.6349 20.6099C67.5292 20.6099 67.4272 20.6492 67.3489 20.7203C67.2749 20.7972 67.2335 20.8997 67.2335 21.0064C67.2335 21.1131 67.2749 21.2156 67.3489 21.2925L72.5519 25.5773C72.5891 25.6156 72.6335 25.6459 72.6827 25.6667C72.7318 25.6874 72.7846 25.6981 72.838 25.6981C72.8913 25.6981 72.9441 25.6874 72.9933 25.6667C73.0424 25.6459 73.0869 25.6156 73.1241 25.5773C73.1619 25.5413 73.192 25.4979 73.2126 25.4499C73.2332 25.4019 73.2438 25.3501 73.2438 25.2979C73.2438 25.2456 73.2332 25.1939 73.2126 25.1459C73.192 25.0978 73.1619 25.0545 73.1241 25.0184V25.0184Z" fill="#002EA4"/>
<path d="M70.09 33.7603C68.1613 32.7582 66.1432 31.9385 64.0619 31.3118C63.5696 31.1522 63.3567 31.9373 63.849 32.0836C65.8645 32.6987 67.8199 33.496 69.6908 34.4656C70.1432 34.6918 70.5557 33.9998 70.09 33.7603Z" fill="#002EA4"/>
<path d="M69.504 41.4254L63.649 41.6383C63.13 41.6383 63.13 42.4767 63.649 42.4501L69.504 42.2372C70.023 42.2372 70.023 41.3988 69.504 41.4254Z" fill="#002EA4"/>
<path d="M72.8982 67.0277C75.8257 64.8188 88.7867 48.398 90.6231 48.1984C95.1208 47.573 95.1474 50.2743 93.6171 55.0382C92.0602 59.0303 84.8346 68.3451 84.7414 68.4915C82.1466 72.0178 79.2722 74.8389 79.5251 77.6733C79.7779 80.5077 78.9263 84.6594 79.911 82.9029L61.2812 62.9425C65.331 62.7184 69.3927 63.0226 73.3639 63.8474C74.8277 64.22 72.8982 67.0277 72.8982 67.0277Z" fill="#FFF5DC"/>
<path d="M73.1771 67.2943C77.1772 63.4481 80.9075 59.331 84.3417 54.9721C85.9917 52.8829 87.7483 49.9287 90.2233 48.7178C91.248 48.2254 92.8847 48.0658 93.59 49.1436C94.2953 50.2215 93.9626 52.0578 93.7098 53.2289C92.725 57.7266 89.6378 61.4526 86.8966 65.0188C85.1268 67.3342 83.49 69.7561 81.8 72.1247C80.4693 73.9345 79.0455 76.0104 79.1386 78.3391C79.2318 83.4623 86.6172 81.3864 89.5979 81.3464C92.5787 81.3065 96.2514 82.1316 98.447 84.4869C100.35 86.5362 98.9261 88.479 96.4776 88.9314C93.6964 89.4105 90.7556 88.9314 87.9478 89.0512C85.5007 89.1025 83.0818 89.5844 80.802 90.475C76.8099 92.0851 73.5497 95.0127 69.5044 96.5164C67.0027 97.4479 64.1816 97.4079 61.7997 98.7386C59.962 99.8871 58.3031 101.299 56.8761 102.93C54.1475 105.839 51.5756 108.89 49.1714 112.072C48.852 112.498 49.5573 112.897 49.8633 112.485C52.2311 109.359 54.763 106.36 57.4483 103.503C58.8971 101.803 60.6252 100.363 62.5582 99.2443C63.8112 98.7363 65.1272 98.4006 66.4704 98.2463C67.8646 97.9247 69.2273 97.4794 70.5424 96.9156C74.7473 95.1857 78.1938 91.992 82.5186 90.6347C85.5585 89.858 88.705 89.5838 91.8335 89.823C93.9094 89.823 96.451 90.129 98.3672 89.0911C102.359 86.9354 98.8196 83.1429 96.1316 81.8521C93.3869 80.6426 90.3627 80.2099 87.389 80.6013C84.9937 80.8275 79.8306 81.932 79.9105 78.0463C79.977 74.9059 82.8646 72.0316 84.5812 69.623C85.9784 67.6536 87.3623 65.6975 88.8394 63.7946C91.6605 60.1884 94.9606 55.5576 94.7876 50.7538C94.7876 48.9174 93.896 47.5468 91.9399 47.4669C89.4648 47.3738 87.6285 49.5961 86.1913 51.3127C84.009 53.974 81.9996 56.6354 79.7641 59.2968C77.5285 61.9582 75.0933 64.3135 72.6182 66.6955C72.2456 67.0548 72.8178 67.627 73.1904 67.2677L73.1771 67.2943Z" fill="#002EA4"/>
<path d="M75.3331 63.8352C74.1176 62.6703 72.5855 61.8899 70.9286 61.5916C69.2717 61.2934 67.5636 61.4906 66.0183 62.1585L66.5771 62.2915C66.1577 61.742 65.6315 61.2831 65.03 60.9423C64.4286 60.6016 63.7644 60.3861 63.0774 60.3088C61.645 60.2456 60.2127 60.4348 58.8458 60.8677C58.1538 61.0008 58.1938 60.8677 57.5151 60.5084C56.7653 60.1968 55.9581 60.0471 55.1465 60.0693C53.5752 60.0827 52.0498 60.6005 50.7951 61.5464C48.1337 63.5424 46.9893 67.2417 46.0977 70.289C44.94 74.1746 44.2082 78.18 42.9307 82.0391C42.2969 84.2531 41.279 86.3385 39.9233 88.2002C38.0341 90.2631 35.9029 92.0905 33.5759 93.6427C33.1634 93.9621 33.5759 94.654 33.9884 94.348C36.9026 92.1523 40.0963 89.9301 41.8794 86.6566C43.4315 83.4577 44.5802 80.0785 45.2993 76.5965C46.0352 73.0181 47.1045 69.5164 48.493 66.1373C49.1624 64.3391 50.3707 62.7915 51.9528 61.706C53.696 60.6814 56.5038 60.2955 58.074 61.8258C58.1443 61.8808 58.2309 61.9107 58.3202 61.9107C58.4094 61.9107 58.4961 61.8808 58.5664 61.8258C60.7487 60.6016 64.2484 60.3886 65.8985 62.5976C65.9562 62.6878 66.0457 62.7529 66.1493 62.7801C66.2529 62.8072 66.3629 62.7943 66.4574 62.744C67.8589 62.1694 69.3979 62.0169 70.8849 62.3054C72.372 62.5938 73.7423 63.3105 74.8275 64.3674C75.1867 64.7533 75.7456 64.1811 75.3996 63.7952L75.3331 63.8352Z" fill="#002EA4"/>
<path d="M66.5231 61.9053C65.8407 62.1802 65.2139 62.577 64.6734 63.0763C64.1921 63.5288 63.7676 64.0382 63.4093 64.5933C63.3563 64.6868 63.3427 64.7975 63.3714 64.9011C63.4001 65.0047 63.4688 65.0926 63.5623 65.1455C63.6558 65.1985 63.7666 65.2121 63.8701 65.1834C63.9737 65.1547 64.0616 65.086 64.1146 64.9925L64.3674 64.6332L64.4472 64.5401C64.4472 64.5401 64.5271 64.4336 64.4472 64.5401L64.5803 64.3804C64.7658 64.1505 64.9659 63.9328 65.1791 63.7283C65.3849 63.5318 65.6075 63.3536 65.8444 63.196C66.1199 63.0218 66.4092 62.8705 66.7094 62.7436C66.811 62.7099 66.8962 62.6391 66.948 62.5454C66.9998 62.4517 67.0143 62.3419 66.9888 62.2379C66.9579 62.1374 66.8897 62.0524 66.7982 62.0004C66.7066 61.9485 66.5987 61.9335 66.4965 61.9585L66.5231 61.9053Z" fill="#002EA4"/>
<path d="M58.3129 61.0802C57.4985 61.6567 56.7838 62.3624 56.1971 63.1694C56.1291 63.2519 56.0915 63.3553 56.0907 63.4622C56.0912 63.5651 56.129 63.6644 56.1971 63.7416C56.2343 63.7798 56.2788 63.8102 56.3279 63.831C56.3771 63.8517 56.4299 63.8624 56.4832 63.8624C56.5366 63.8624 56.5894 63.8517 56.6385 63.831C56.6877 63.8102 56.7321 63.7798 56.7693 63.7416C57.0754 63.369 57.3682 62.9831 57.7008 62.6371L58.1799 62.1581L58.446 61.9452L58.6057 61.8254C58.6949 61.7701 58.7597 61.683 58.7869 61.5816C58.8141 61.4802 58.8017 61.3723 58.7521 61.2798C58.7273 61.233 58.693 61.1918 58.6516 61.1588C58.6101 61.1257 58.5623 61.1016 58.5112 61.0879C58.46 61.0742 58.4065 61.0711 58.3541 61.079C58.3017 61.0868 58.2514 61.1053 58.2065 61.1334L58.3129 61.0802Z" fill="#002EA4"/>
<path d="M136.996 46.4772C137.269 46.5773 137.549 46.653 137.835 46.7034C138.021 46.7699 137.994 46.7034 137.755 46.557V46.7566L137.821 47.076C137.821 47.3554 137.941 47.6349 137.994 47.9143C138.024 48.1469 138.082 48.3748 138.167 48.593C138.218 48.6845 138.292 48.7608 138.382 48.8139C138.472 48.867 138.575 48.895 138.68 48.895C138.784 48.895 138.887 48.867 138.977 48.8139C139.067 48.7608 139.141 48.6845 139.192 48.593C139.305 48.3528 139.381 48.0972 139.418 47.8345C139.498 47.555 139.565 47.2889 139.645 47.0227C139.683 46.9006 139.715 46.7762 139.738 46.6502C139.551 46.73 139.538 46.7433 139.738 46.6502H139.951L140.722 46.4772C141.122 46.384 141.787 46.3707 141.96 45.9316C142 45.8309 142.01 45.7207 141.989 45.6144C141.968 45.5081 141.916 45.4102 141.84 45.3328C141.662 45.1855 141.445 45.0931 141.215 45.0666L140.456 44.8537L140.057 44.7473C139.928 44.734 139.801 44.698 139.684 44.6408L139.871 44.8803C139.724 44.4678 139.671 44.0021 139.565 43.5497C139.458 43.0972 139.485 42.6714 139.112 42.4984C138.74 42.3254 138.354 42.6315 138.247 43.0307C138.141 43.4299 138.021 43.8823 137.901 44.3614L137.821 44.6674V44.8271C138.034 44.6674 138.061 44.6142 137.821 44.6674C137.609 44.6913 137.4 44.7358 137.196 44.8005L136.517 44.9602C136.303 44.9866 136.093 45.0403 135.892 45.1199C135.808 45.1599 135.736 45.2198 135.68 45.2942C135.625 45.3687 135.588 45.4554 135.574 45.5471C135.559 45.6388 135.568 45.7326 135.597 45.8204C135.627 45.9083 135.678 45.9875 135.746 46.0513C135.9 46.1721 136.084 46.2502 136.278 46.2776L136.957 46.4772C137.007 46.4933 137.061 46.4987 137.113 46.4931C137.166 46.4876 137.218 46.4712 137.264 46.445C137.31 46.4187 137.35 46.3832 137.382 46.3407C137.414 46.2981 137.437 46.2495 137.449 46.1977C137.458 46.1007 137.433 46.0035 137.378 45.9233C137.322 45.8431 137.24 45.7851 137.146 45.7596C137.052 45.7341 136.952 45.7427 136.864 45.7839C136.775 45.8251 136.705 45.8963 136.664 45.9848V45.9848L137.156 45.7054L136.571 45.5324C136.571 45.5324 136.344 45.4259 136.278 45.4525C136.127 45.7719 136.154 45.8917 136.358 45.8118H136.451L137.702 45.5324C137.899 45.512 138.091 45.4627 138.274 45.386C138.345 45.3341 138.405 45.2685 138.451 45.1931C138.497 45.1178 138.527 45.034 138.54 44.9469C138.673 44.521 138.78 44.0952 138.886 43.6162L138.979 43.3101V43.1504C138.66 43.0174 138.527 43.0174 138.58 43.1504C138.61 43.3673 138.659 43.581 138.726 43.7892C138.798 44.2063 138.891 44.6194 139.006 45.0267C139.126 45.4392 139.658 45.4658 140.017 45.559L140.629 45.7187L140.922 45.7985H141.068C141.175 45.7985 141.188 45.7985 141.135 45.7985V45.5856C141.228 45.5058 141.241 45.4791 141.135 45.5058H141.042H140.776L140.257 45.6255C139.924 45.676 139.595 45.7471 139.272 45.8384C138.953 45.9715 138.913 46.2909 138.833 46.5836L138.553 47.6482C138.553 47.7546 138.407 47.9675 138.434 48.0873C138.753 48.2071 138.886 48.1805 138.819 48.0075V48.1139V47.8611C138.74 47.5018 138.66 47.1558 138.593 46.8099C138.527 46.4639 138.5 46.1578 138.167 46.0247C137.845 45.9114 137.516 45.8181 137.183 45.7453C137.104 45.7584 137.03 45.7943 136.971 45.8485C136.912 45.9027 136.871 45.9728 136.851 46.0504C136.831 46.128 136.834 46.2097 136.86 46.2855C136.886 46.3613 136.933 46.4279 136.996 46.4772V46.4772Z" fill="#EC3A0E"/>
<path d="M47.7034 25.2531C48.0971 25.3978 48.5029 25.5073 48.916 25.5803C49.1855 25.6765 49.147 25.5803 48.8005 25.3686V25.6573L48.8967 26.1192C48.8967 26.5234 49.07 26.9276 49.1469 27.3318C49.1893 27.6682 49.2733 27.9979 49.3972 28.3135C49.4704 28.4458 49.5778 28.5562 49.7081 28.633C49.8384 28.7098 49.987 28.7504 50.1382 28.7504C50.2895 28.7504 50.438 28.7098 50.5683 28.633C50.6986 28.5562 50.806 28.4458 50.8792 28.3135C51.0424 27.9661 51.1527 27.5963 51.2065 27.2163C51.322 26.8121 51.4182 26.4272 51.5337 26.0422C51.59 25.8656 51.635 25.6856 51.6684 25.5033C51.3989 25.6188 51.3797 25.638 51.6684 25.5033H51.9764L53.0927 25.2531C53.6702 25.1183 54.6326 25.0991 54.8828 24.4639C54.9411 24.3183 54.9557 24.1589 54.9249 24.0051C54.8942 23.8513 54.8194 23.7098 54.7096 23.5978C54.4515 23.3848 54.1373 23.2511 53.8049 23.2128L52.7078 22.9049L52.1303 22.7509C51.943 22.7317 51.7606 22.6796 51.5914 22.5969L51.8609 22.9434C51.6492 22.3467 51.5722 21.673 51.4182 21.0186C51.2642 20.3642 51.3027 19.7482 50.7638 19.498C50.2248 19.2478 49.6666 19.6905 49.5127 20.2679C49.3587 20.8453 49.1854 21.4997 49.0122 22.1927L48.8967 22.6354V22.8663C49.2047 22.6354 49.2432 22.5584 48.8967 22.6354C48.5896 22.6699 48.2866 22.7343 47.9921 22.8278L47.0105 23.0588C46.7003 23.0971 46.3963 23.1747 46.1058 23.2898C45.9848 23.3478 45.8796 23.4343 45.7994 23.542C45.7193 23.6497 45.6665 23.7752 45.6457 23.9078C45.6248 24.0404 45.6365 24.1761 45.6798 24.3031C45.7231 24.4302 45.7966 24.5448 45.8941 24.6371C46.1176 24.8119 46.3831 24.9247 46.664 24.9643L47.6456 25.2531C47.7189 25.2763 47.7962 25.2842 47.8727 25.2762C47.9491 25.2681 48.0231 25.2444 48.09 25.2065C48.1569 25.1685 48.2151 25.1172 48.2612 25.0556C48.3073 24.9941 48.3402 24.9237 48.3578 24.8489C48.3715 24.7085 48.3351 24.5679 48.2549 24.4519C48.1748 24.3359 48.0562 24.252 47.9201 24.2151C47.784 24.1782 47.6393 24.1907 47.5115 24.2503C47.3838 24.31 47.2813 24.4129 47.2222 24.5409V24.5409L47.9343 24.1367L47.0874 23.8865C47.0874 23.8865 46.7602 23.7325 46.664 23.771C46.4458 24.2329 46.4843 24.4062 46.7795 24.2907H46.9142L48.7235 23.8865C49.0083 23.8571 49.2872 23.7857 49.5511 23.6748C49.6542 23.5997 49.7413 23.5048 49.8074 23.3958C49.8734 23.2868 49.9172 23.1657 49.9361 23.0396C50.1286 22.4236 50.2826 21.8077 50.4366 21.1148L50.5713 20.6721V20.4411C50.1093 20.2487 49.9169 20.2487 49.9939 20.4411C50.0369 20.7548 50.1077 21.064 50.2056 21.365C50.3086 21.9684 50.4435 22.5659 50.6098 23.1551C50.783 23.7517 51.5529 23.7902 52.0726 23.925L52.958 24.1559L53.3815 24.2714H53.5932C53.7472 24.2714 53.7664 24.2714 53.6894 24.2714V23.9635C53.8241 23.848 53.8434 23.8095 53.6894 23.848H53.5547H53.1697L52.4191 24.0212C51.9384 24.0942 51.4626 24.197 50.9947 24.3292C50.5328 24.5216 50.4751 24.9836 50.3596 25.4071L49.9554 26.9469C49.9554 27.1008 49.7436 27.4088 49.7821 27.582C50.244 27.7553 50.4365 27.7168 50.3403 27.4666V27.6205V27.2548C50.2248 26.7351 50.1094 26.2347 50.0131 25.7343C49.9169 25.2338 49.8784 24.7911 49.3972 24.5986C48.9312 24.4348 48.4555 24.2998 47.9729 24.1944C47.8586 24.2135 47.7524 24.2654 47.6671 24.3437C47.5819 24.4221 47.5212 24.5236 47.4927 24.6358C47.4641 24.7481 47.4688 24.8662 47.5062 24.9758C47.5436 25.0854 47.6121 25.1817 47.7034 25.2531V25.2531Z" fill="#003D9F"/>
<rect x="184" y="27" width="79" height="1" rx="0.5" fill="#003D9F"/>
<rect x="184" y="47" width="79" height="1" rx="0.5" fill="#003D9F"/>
<rect x="184" y="67" width="79" height="1" rx="0.5" fill="#003D9F"/>
</g>
</g>
<defs>
<clipPath id="clip0_292_4900">
<rect width="320" height="88" fill="white"/>
</clipPath>
<clipPath id="clip1_292_4900">
<path d="M0 8C0 3.58173 3.58172 0 8 0H312C316.418 0 320 3.58172 320 8V136C320 140.418 316.418 144 312 144H7.99999C3.58171 144 0 140.418 0 136V8Z" fill="white"/>
</clipPath>
</defs>
</svg>
