<svg width="34" height="34" viewBox="0 0 34 34" fill="none" xmlns="http://www.w3.org/2000/svg">
<path d="M3.03284 24.9082L1.30169 32.2656L8.61973 30.7705C10.941 32.2262 13.8525 33.1312 17.0001 33.1312C25.8132 33.1312 33.0132 25.9312 33.0132 17C33.0132 8.06887 25.8132 0.868866 17.0001 0.868866C8.14759 0.868866 0.986938 8.06887 0.986938 17C0.986938 19.9508 1.77382 22.7049 3.03284 24.9082ZM6.10169 24.082C4.88202 22.1935 4.13448 19.7148 4.13448 17C4.13448 9.56395 9.68202 3.85903 17.0001 3.85903C24.2787 3.85903 29.8656 9.6033 29.8656 17C29.8656 24.3967 24.2787 30.141 17.0001 30.141C14.0886 30.141 11.4919 29.118 9.4853 27.7017L4.76399 28.882L6.10169 24.082ZM18.141 24.1607C23.0197 25.9312 25.3017 22.7836 25.3017 21.2492C25.3017 20.659 25.0263 20.0295 24.2394 19.8328L21.0132 18.9672C20.5804 18.8492 19.8722 19.0066 19.6755 19.282L18.7312 20.423C18.4164 20.7771 18.1017 20.8558 17.8263 20.7377C16.1738 20.1869 14.7968 18.9672 13.6164 17C13.4591 16.7639 13.4197 16.4885 13.7345 16.0951L14.5214 15.1902C14.8361 14.8361 14.9935 14.0885 14.6394 13.3017L13.4197 10.5869C12.7902 9.20985 10.2328 9.76067 9.1312 12.7508C8.69841 13.9312 9.20989 15.6623 10.2328 17.3148C11.964 20.423 14.4427 22.7836 18.141 24.1607Z" fill="#FCFCFC"/>
</svg>
