<svg width="23" height="22" viewBox="0 0 23 22" fill="none" xmlns="http://www.w3.org/2000/svg">
<path d="M17.6943 11.7772C16.5791 12.0239 15.4066 12.2158 14.2914 12.5173C13.4621 12.7366 13.2333 13.1204 13.0046 13.888C12.69 14.9572 12.4326 16.0263 12.1467 17.0955C12.0323 17.5615 11.1744 20.2207 11.4318 20.3303C11.6319 20.4126 11.2888 19.2612 11.2602 19.0967C11.1458 18.6033 11.0314 18.1098 10.8884 17.6163C10.6025 16.4375 10.3165 15.2588 10.0306 14.08C9.85897 13.3398 9.71599 12.7915 8.9153 12.5448C7.77145 12.1884 6.57041 11.9691 5.39797 11.695C4.42569 11.4482 3.28185 10.9547 2.28098 10.9273C2.22379 10.9273 1.53747 10.6532 1.73764 11.0918C1.73764 11.0918 2.53834 10.8999 2.48115 10.9273C3.11027 10.7903 3.73938 10.6532 4.3685 10.5161C5.39796 10.2968 6.45602 10.0501 7.48549 9.83078C8.31478 9.63888 9.45862 9.63887 9.85897 8.78904C10.2593 7.9392 10.4023 6.84268 10.6597 5.9106C10.9742 4.75922 11.2602 3.63524 11.5747 2.48386C11.5747 2.53868 11.7749 1.71623 11.7749 1.71623C11.346 1.55174 11.6033 2.10006 11.6033 2.1823C11.6033 2.64834 11.8607 3.224 11.9751 3.69004C12.2611 4.81401 12.5184 5.93801 12.7758 7.06198C12.976 7.91182 13.0046 9.06318 13.9482 9.47439C14.9491 9.91301 16.2073 10.0501 17.294 10.3243C18.5808 10.6532 19.8962 11.037 21.2117 11.3111C20.7255 11.2289 21.5262 11.1193 20.6683 11.1741C20.2966 11.2015 19.8962 11.366 19.5531 11.4482C18.924 11.6127 18.2949 11.7497 17.6943 11.9142L18.7524 12.4899V12.4077C18.4664 11.366 16.7793 11.8046 17.0652 12.8463V12.9286C17.2082 13.3672 17.6943 13.6139 18.1519 13.5042C19.0098 13.2849 19.8962 13.0656 20.7541 12.8463C21.3546 12.7093 22.0124 12.6544 22.4985 12.2432C23.3564 11.5305 23.0418 10.2968 22.0982 9.83078C21.4976 9.52923 20.7541 9.44699 20.125 9.28251C19.2099 9.0632 18.2949 8.81647 17.3798 8.59716C16.6077 8.40526 15.807 8.10369 15.0349 8.02145C14.5773 7.85696 14.5202 7.88438 14.8347 8.10369L14.7489 7.71989C14.7489 7.30868 14.5202 6.81524 14.4344 6.40403C14.0626 4.84144 13.6909 3.27882 13.2905 1.71623C13.0331 0.674496 12.3182 -0.367198 11.0314 0.126254C9.83037 0.619705 9.74459 2.48384 9.48723 3.49816C9.05828 5.06076 8.77231 6.76044 8.17179 8.26821L8.57215 7.77473C8.1432 8.02146 7.48548 8.04887 6.99935 8.15853C6.48462 8.26818 5.96989 8.37785 5.42656 8.51492C4.39709 8.73423 3.36763 8.95355 2.36676 9.20027C1.22292 9.447 -0.550051 9.96785 0.164854 11.503C0.393624 11.9965 0.908362 12.2432 1.42309 12.4077C2.42396 12.7367 3.51062 12.9286 4.54008 13.1753C5.45516 13.3946 6.37023 13.6139 7.25671 13.8332L8.02881 14.0251C8.48635 14.217 8.54355 14.1622 8.20039 13.9155C8.45776 14.2719 8.45776 15.0668 8.57215 15.4781C8.82951 16.5198 9.08688 17.589 9.34425 18.6307C9.54442 19.4257 9.6302 20.3029 9.97336 21.0431C10.4595 22.1122 11.9751 22.3864 12.7186 21.3446C13.2047 20.6593 13.2619 19.645 13.4907 18.85C13.7195 17.9727 13.9482 17.0955 14.2056 16.2182C14.3486 15.7248 14.463 15.2039 14.6059 14.7105L14.8061 13.9429C14.463 14.1896 14.5202 14.2444 14.9777 14.08C15.9786 14.08 17.1796 13.5865 18.1805 13.3672C19.2671 13.1204 18.8096 11.5304 17.7229 11.7497L17.6943 11.7772Z" fill="#002EA4"/>
</svg>
