<svg width="336" height="123" viewBox="0 0 336 123" fill="none" xmlns="http://www.w3.org/2000/svg">
<path d="M284.845 14.0551L292.945 43.9856C293.417 45.7264 294.832 47.0457 296.598 47.3918L324.615 52.8809C328.767 53.6944 329.836 59.1425 326.307 61.4729L301.545 77.8792C300.253 78.7343 299.461 80.1706 299.422 81.7167L298.672 113.2C298.574 117.122 294.038 119.236 290.983 116.781L266.512 97.0569C265.304 96.0813 263.683 95.7637 262.196 96.2113L232.091 105.243C228.336 106.364 224.933 102.694 226.323 99.0253L237.508 69.5861C238.056 68.1399 237.865 66.5109 236.99 65.2312L220.24 40.7012C217.853 37.2021 220.906 32.5712 225.049 33.3829L253.065 38.872C254.832 39.2181 256.64 38.5303 257.734 37.0964L276.53 12.4355C278.908 9.32061 283.825 10.2839 284.843 14.0642L284.845 14.0551Z" fill="url(#paint0_linear_1003_4016)" fill-opacity="0.2"/>
<path d="M67.3786 55.5392L70.2205 61.2206C70.3858 61.551 70.7243 61.7608 71.0982 61.7608H77.0181C77.8959 61.7608 78.3289 62.81 77.707 63.4163L73.3221 67.6754C73.0939 67.8969 72.9915 68.2156 73.0427 68.5265L74.1448 74.8686C74.2826 75.6574 73.4402 76.2598 72.7239 75.8867L66.9575 72.8944C66.6701 72.7468 66.3316 72.7468 66.0443 72.8944L60.2779 75.8867C59.5576 76.2598 58.7192 75.6574 58.857 74.8686L59.9591 68.5265C60.0142 68.2156 59.9079 67.8969 59.6796 67.6754L55.2948 63.4163C54.6689 62.81 55.1059 61.7608 55.9836 61.7608H61.9035C62.2774 61.7608 62.6159 61.551 62.7813 61.2206L65.6231 55.5392C65.9813 54.8203 67.0204 54.8203 67.3786 55.5392Z" fill="url(#paint1_linear_1003_4016)" fill-opacity="0.2"/>
<path d="M135.333 92.3501L138.606 94.8325C138.797 94.9768 139.053 95.0017 139.27 94.8948L142.703 93.2019C143.212 92.9508 143.763 93.4356 143.576 93.965L142.251 97.6891C142.182 97.8828 142.214 98.0969 142.332 98.2626L144.785 101.626C145.091 102.044 144.774 102.634 144.252 102.622L140.052 102.536C139.843 102.533 139.647 102.629 139.523 102.797L137.034 106.182C136.723 106.604 136.064 106.494 135.919 105.997L134.744 102.004C134.687 101.808 134.535 101.654 134.339 101.59L130.578 100.374C130.041 100.202 129.995 99.4681 130.504 99.2171L133.937 97.5242C134.154 97.4173 134.29 97.1988 134.292 96.9599L134.315 92.8521C134.317 92.3328 134.92 92.0356 135.333 92.3501Z" fill="url(#paint2_linear_1003_4016)" fill-opacity="0.08"/>
<path d="M83.1694 11.4762L82.8997 14.6593C82.8841 14.8444 82.9743 15.0232 83.1348 15.1212L85.6753 16.673C86.052 16.9031 85.9627 17.4669 85.5369 17.564L82.5388 18.2424C82.3827 18.2776 82.2553 18.3875 82.1957 18.5344L81.0062 21.5449C80.8586 21.9196 80.3392 21.9573 80.1296 21.6094L78.4393 18.8137C78.3547 18.675 78.2095 18.5863 78.0474 18.5743L74.7885 18.3469C74.3815 18.3182 74.1797 17.8399 74.4456 17.5375L76.581 15.1047C76.6861 14.9858 76.724 14.8212 76.6841 14.6663L75.9189 11.6891C75.8092 11.2649 76.2717 10.9291 76.6484 11.1592L79.1889 12.711C79.3494 12.809 79.5497 12.8077 79.7072 12.7093L82.4161 11.016C82.7582 10.8014 83.2042 11.0738 83.1694 11.4762Z" fill="url(#paint3_linear_1003_4016)" fill-opacity="0.2"/>
<path d="M10.7508 97.1231L11.7239 101.114C11.7805 101.346 11.9637 101.527 12.1994 101.581L15.9312 102.434C16.4846 102.56 16.6064 103.284 16.127 103.577L12.7493 105.63C12.5735 105.737 12.463 105.923 12.4505 106.126L12.2317 110.283C12.2049 110.8 11.5871 111.058 11.1893 110.72L7.98524 108.003C7.82538 107.869 7.61199 107.82 7.40958 107.871L3.34346 108.927C2.83564 109.058 2.3939 108.558 2.59438 108.081L4.20274 104.241C4.28227 104.053 4.26118 103.837 4.14917 103.665L1.99857 100.348C1.69138 99.8757 2.11795 99.2772 2.67128 99.4036L6.40312 100.256C6.63884 100.31 6.88246 100.227 7.03426 100.042L9.64418 96.8702C9.97354 96.4686 10.6286 96.6183 10.7508 97.1231Z" fill="url(#paint4_linear_1003_4016)" fill-opacity="0.08"/>
<path d="M164.083 13.9806L168.051 28.1678C168.282 28.9926 168.949 29.6104 169.78 29.7606L182.952 32.138C184.905 32.4905 185.433 35.0737 183.798 36.216L172.277 44.235C171.677 44.652 171.318 45.3426 171.303 46.077L171.126 61.0825C171.106 62.9492 168.982 63.9941 167.543 62.8497L155.953 53.663C155.375 53.2085 154.622 53.0726 153.921 53.2963L139.851 57.8515C138.094 58.4188 136.478 56.699 137.112 54.9429L142.193 40.8227C142.444 40.1309 142.34 39.3565 141.924 38.7562L133.933 27.2153C132.792 25.572 134.199 23.3381 136.152 23.6906L149.323 26.068C150.155 26.2182 150.995 25.8723 151.5 25.1802L160.177 13.2756C161.272 11.7686 163.584 12.1859 164.083 13.9806Z" fill="url(#paint5_linear_1003_4016)" fill-opacity="0.1"/>
<defs>
<linearGradient id="paint0_linear_1003_4016" x1="210.329" y1="24.2042" x2="318.244" y2="109.473" gradientUnits="userSpaceOnUse">
<stop stop-color="white" stop-opacity="0.16"/>
<stop offset="1" stop-color="white" stop-opacity="0.8"/>
</linearGradient>
<linearGradient id="paint1_linear_1003_4016" x1="52.6201" y1="60.4974" x2="77.8177" y2="73.6589" gradientUnits="userSpaceOnUse">
<stop stop-color="white" stop-opacity="0.16"/>
<stop offset="1" stop-color="white" stop-opacity="0.8"/>
</linearGradient>
<linearGradient id="paint2_linear_1003_4016" x1="128.192" y1="99.4462" x2="146.569" y2="99.8737" gradientUnits="userSpaceOnUse">
<stop stop-color="white" stop-opacity="0.16"/>
<stop offset="1" stop-color="white" stop-opacity="0.8"/>
</linearGradient>
<linearGradient id="paint3_linear_1003_4016" x1="75.5362" y1="9.73534" x2="82.8995" y2="21.9886" gradientUnits="userSpaceOnUse">
<stop stop-color="white" stop-opacity="0.16"/>
<stop offset="1" stop-color="white" stop-opacity="0.8"/>
</linearGradient>
<linearGradient id="paint4_linear_1003_4016" x1="0.732969" y1="98.1227" x2="14.7213" y2="110.049" gradientUnits="userSpaceOnUse">
<stop stop-color="white" stop-opacity="0.16"/>
<stop offset="1" stop-color="white" stop-opacity="0.8"/>
</linearGradient>
<linearGradient id="paint5_linear_1003_4016" x1="129.192" y1="19.4388" x2="180.809" y2="58.4431" gradientUnits="userSpaceOnUse">
<stop stop-color="white" stop-opacity="0.16"/>
<stop offset="1" stop-color="white" stop-opacity="0.8"/>
</linearGradient>
</defs>
</svg>
