<svg width="16" height="18" viewBox="0 0 16 18" fill="none" xmlns="http://www.w3.org/2000/svg">
<path d="M1.01639 12.954L0.150816 16.6327L3.80983 15.8851C4.97049 16.613 6.42623 17.0655 8 17.0655C12.4066 17.0655 16.0066 13.4655 16.0066 8.9999C16.0066 4.53433 12.4066 0.934326 8 0.934326C3.57377 0.934326 -0.00656128 4.53433 -0.00656128 8.9999C-0.00656128 10.4753 0.386881 11.8524 1.01639 12.954ZM2.55082 12.5409C1.94098 11.5966 1.56721 10.3573 1.56721 8.9999C1.56721 5.28187 4.34098 2.42941 8 2.42941C11.6393 2.42941 14.4328 5.30154 14.4328 8.9999C14.4328 12.6983 11.6393 15.5704 8 15.5704C6.54426 15.5704 5.2459 15.0589 4.24262 14.3507L1.88196 14.9409L2.55082 12.5409ZM8.57049 12.5802C11.0098 13.4655 12.1508 11.8917 12.1508 11.1245C12.1508 10.8294 12.0131 10.5147 11.6197 10.4163L10.0066 9.98351C9.79016 9.92449 9.43606 10.0032 9.3377 10.1409L8.86557 10.7114C8.70819 10.8884 8.55082 10.9278 8.41311 10.8688C7.58688 10.5933 6.89836 9.98351 6.30819 8.9999C6.2295 8.88187 6.20983 8.74416 6.36721 8.54744L6.76065 8.09498C6.91803 7.91793 6.99672 7.54416 6.81967 7.15072L6.20983 5.79334C5.89508 5.10482 4.61639 5.38023 4.06557 6.87531C3.84918 7.46547 4.10491 8.33105 4.61639 9.15728C5.48196 10.7114 6.72131 11.8917 8.57049 12.5802Z" fill="#EC3A0E"/>
</svg>
