<svg width="590" height="225" viewBox="0 0 590 225" fill="none" xmlns="http://www.w3.org/2000/svg">
<rect width="590" height="225" rx="8" fill="#FFF5DC"/>
<path d="M265.083 20.6206L285.339 16.9346C285.339 16.9346 290.017 16.1256 290.799 19.8264L292.14 26.1694C293.038 30.421 293.121 33.5102 294.692 40.4211C296.262 47.332 304.248 88.0975 304.248 88.0975C304.248 88.0975 307.151 95.1242 301.488 96.4951C295.825 97.8661 262.241 103.637 262.241 103.637C262.241 103.637 257.889 105.125 256.521 98.0375C255.152 90.9496 246.907 52.5545 246.129 48.8687C243.654 37.1598 243.723 36.4419 242.761 32.4111L241.8 28.3824C241.8 28.3824 241.613 24.8937 246.071 24.0825L265.084 20.6227L265.083 20.6206Z" fill="#FFF5DC"/>
<path d="M289.022 100.26C294.879 99.1941 299.919 98.2392 301.846 97.773C303.672 97.3317 304.962 96.3469 305.678 94.8522C307.001 92.0919 305.78 88.5303 305.493 87.7746C305.009 85.3098 297.463 46.8373 295.948 40.1708C295.034 36.1527 294.629 33.4286 294.269 31.0234C294.017 29.3266 293.777 27.7253 293.399 25.9356L292.058 19.5914C291.228 15.6537 287.136 15.2831 285.089 15.6378L245.795 22.7867C241.426 23.5814 240.433 26.8002 240.519 28.3916C240.524 28.4732 240.536 28.5532 240.555 28.6343L241.517 32.6638C241.969 34.5558 242.192 35.726 242.565 37.6614C242.969 39.7669 243.581 42.9496 244.879 49.0903C245.035 49.8276 245.488 51.9509 246.127 54.9329C248.74 67.1553 254.178 92.5857 255.272 98.2447C255.851 101.24 257.019 103.291 258.742 104.344C260.472 105.398 262.113 105.051 262.581 104.917C264.012 104.67 277.972 102.268 289.025 100.257L289.022 100.26ZM285.622 18.2117C285.747 18.1911 289.063 17.6701 289.565 20.0449L290.906 26.3892C291.268 28.0996 291.49 29.5904 291.747 31.3154C292.111 33.7664 292.528 36.5462 293.463 40.6629C295.011 47.4769 302.935 87.8995 303.015 88.3078C303.033 88.3957 303.059 88.4846 303.093 88.5673C303.439 89.4169 304.168 91.9864 303.374 93.6333C302.985 94.4407 302.262 94.9618 301.165 95.2281C295.605 96.5736 262.318 102.296 261.984 102.357C261.919 102.368 261.858 102.384 261.795 102.404C261.775 102.41 260.87 102.677 259.949 102.097C258.94 101.461 258.188 99.9889 257.773 97.8409C256.675 92.1536 251.234 66.7061 248.619 54.4751C247.982 51.4948 247.528 49.3741 247.372 48.6389C246.08 42.524 245.471 39.3562 245.069 37.2614C244.691 35.2871 244.46 34.0959 243.996 32.1438L243.071 28.2679C243.092 27.7945 243.368 25.9014 246.339 25.3608L285.622 18.2138L285.622 18.2117Z" fill="#002EA4"/>
<path d="M283.329 77.4534C279.468 69.1454 274.406 61.8156 268.564 54.9924C268.354 54.7478 268.151 54.493 267.921 54.2677C267.385 53.7439 267.094 53.1896 267.079 52.3748C267.067 51.6912 266.739 50.9553 266.374 50.3497C265.038 48.1336 263.13 46.5288 260.671 45.6626C259.881 45.3863 258.961 45.2785 258.129 45.3623C256.552 45.5194 255.674 46.808 255.942 48.3692C256.023 48.8392 256.151 49.3262 256.374 49.7466C257.864 52.5479 260.146 54.405 263.241 55.2432C263.6 55.3401 264.02 55.4315 264.364 55.34C265.349 55.0834 265.874 55.5895 266.448 56.2641C272.325 63.1639 277.51 70.5114 281.225 78.7996C282.155 80.873 282.897 83.0294 283.727 85.1467L283.53 85.2555C282.238 84.4972 280.954 83.7241 279.653 82.9853C278.995 82.6106 278.314 82.2757 277.624 81.9601C276.89 81.6246 276.184 81.8619 275.889 82.4911C275.6 83.1105 275.813 83.7679 276.519 84.1067C279.538 85.5535 282.328 87.3396 284.938 89.4272C285.246 89.6746 285.988 89.7185 286.319 89.5173C286.648 89.3165 286.926 88.6466 286.853 88.252C286.564 86.7213 286.216 85.1913 285.719 83.7168C285.344 82.6096 285.243 81.539 285.384 80.3969C286.066 74.8882 288.212 69.9812 291.597 65.5791C291.68 65.4726 291.772 65.3734 291.853 65.2652C292.32 64.633 292.263 63.8879 291.719 63.469C291.193 63.0641 290.419 63.1035 289.992 63.7366C288.621 65.7705 287.127 67.7622 286.049 69.9453C284.984 72.1038 284.362 74.4766 283.549 76.755C283.488 76.9276 283.442 77.1036 283.333 77.4547L283.329 77.4534ZM264.596 52.8741C262.305 53.127 258.437 49.9516 258.407 47.792C260.307 47.1387 265.049 51.1016 264.596 52.8741V52.8741Z" fill="#002EA4"/>
<path d="M272.649 56.1812C272.846 56.6748 273.032 57.3617 273.377 57.9558C274.31 59.5692 276.085 59.8438 277.52 58.6439C277.787 58.4202 278.056 58.1718 278.244 57.8844C280.14 54.9895 280.736 51.8742 279.582 48.5914C278.73 46.1664 276.273 45.7659 274.624 47.7683C272.641 50.1746 272.32 53.0251 272.649 56.1812ZM275.688 56.9229C274.25 55.1667 275.114 50.0334 276.987 49.005C278.364 50.7293 277.593 55.5826 275.688 56.9229Z" fill="#002EA4"/>
<path d="M279.066 66.0129C279.346 66.6264 279.641 67.5645 280.162 68.355C281.297 70.0674 283.261 70.1092 284.61 68.5371C284.628 68.516 284.644 68.4953 284.662 68.4741C286.647 66.0674 286.873 60.6086 285.094 58.0682C283.843 56.284 281.826 56.2197 280.486 57.9636C279.188 59.651 278.903 61.6436 278.891 63.6884C278.886 64.3554 278.988 65.0235 279.066 66.0108L279.066 66.0129ZM282.766 59.1528C284.4 60.8751 284.127 66.0464 282.385 67.1767C280.808 65.8917 281.091 60.2501 282.766 59.1528Z" fill="#002EA4"/>
<path d="M266.723 66.4684C267.205 66.2883 267.71 66.1586 268.16 65.9233C269.655 65.1426 270.11 63.5652 269.193 62.1707C268.817 61.6002 268.313 61.059 267.747 60.6752C265.434 59.1034 262.862 58.433 260.047 58.7644C259.912 58.7798 259.779 58.8015 259.645 58.8321C258.423 59.1043 257.332 59.5972 256.962 60.8963C256.583 62.2258 257.217 63.2777 258.196 64.0886C260.661 66.1318 263.551 66.7597 266.723 66.4684V66.4684ZM259.386 61.5363C261.436 60.372 266.399 61.7394 267.13 63.6694C265.158 64.8601 260.047 63.4513 259.386 61.5363Z" fill="#002EA4"/>
<path d="M273.458 76.6296C276.242 76.0734 277.072 74.0621 275.663 72.0274C273.933 69.5282 269.149 67.7124 266.175 68.4266C264.008 68.9477 263.136 70.8946 264.445 72.6806C265.154 73.6454 266.159 74.4797 267.195 75.1079C269.193 76.3192 271.397 76.9385 273.458 76.6317L273.458 76.6296ZM273.846 73.9617C271.694 74.915 266.795 72.9285 266.387 70.9353C268.643 70.0736 273.227 71.933 273.846 73.9617V73.9617Z" fill="#002EA4"/>
<path d="M271.813 82.2853C272.02 82.0009 272.493 81.629 272.516 81.2354C272.537 80.8333 272.176 80.1016 271.878 80.0434C270.242 79.7263 268.579 79.5154 266.914 79.4171C266.598 79.3978 266.08 79.996 265.938 80.4063C265.75 80.9464 266.068 81.5612 266.667 81.6573C268.288 81.9181 269.929 82.0629 271.815 82.2849L271.813 82.2853Z" fill="#002EA4"/>
<path d="M264.596 52.877C265.046 51.1049 260.306 47.1416 258.406 47.7949C258.436 49.9545 262.305 53.13 264.596 52.877V52.877Z" fill="#FFF5DC"/>
<path d="M275.685 56.9219C277.592 55.5812 278.361 50.7284 276.984 49.004C275.111 50.0303 274.244 55.164 275.685 56.9219V56.9219Z" fill="#FFF5DC"/>
<path d="M282.777 59.1505C281.102 60.2458 280.816 65.8878 282.396 67.1744C284.138 66.0463 284.412 60.875 282.777 59.1505Z" fill="#FFF5DC"/>
<path d="M259.381 61.533C260.04 63.4484 265.15 64.8572 267.125 63.6661C266.396 61.7357 261.431 60.3687 259.381 61.533Z" fill="#FFF5DC"/>
<path d="M273.859 73.9607C273.239 71.9319 268.656 70.0726 266.399 70.9343C266.81 72.927 271.707 74.914 273.859 73.9607V73.9607Z" fill="#FFF5DC"/>
<path d="M244.075 36.8188L293.63 27.1162C294.338 26.9776 294.802 26.2955 294.665 25.5947C294.528 24.8939 293.841 24.437 293.133 24.5756L243.578 34.2781C242.87 34.4168 242.406 35.0989 242.543 35.7997C242.68 36.5005 243.367 36.9574 244.075 36.8188Z" fill="#002EA4"/>
<path d="M263.729 28.1804L271.319 26.6943C273.204 26.3254 274.438 24.5075 274.073 22.6443L273.893 21.7255C273.528 19.8581 271.699 18.642 269.815 19.0109L262.225 20.4971C260.34 20.866 259.106 22.6839 259.471 24.5491L259.651 25.468C260.017 27.3333 261.847 28.5489 263.729 28.1804ZM270.308 21.5304C270.788 21.4366 271.254 21.7453 271.348 22.2217L271.528 23.1405C271.62 23.6148 271.305 24.0789 270.826 24.1727L263.235 25.6588C262.756 25.7526 262.289 25.4439 262.196 24.9676L262.016 24.0487C261.923 23.5744 262.239 23.1104 262.718 23.0166L270.308 21.5304V21.5304Z" fill="#002EA4"/>
<rect width="26.9993" height="52.1987" transform="matrix(-1 0 0 1 340.817 52.3555)" fill="#FFF5DC"/>
<path d="M301.78 34.3562C301.161 34.6116 300.486 34.7798 299.933 35.1356C298.118 36.2972 297.459 38.511 298.151 40.7271C298.603 42.1768 299.331 43.4628 300.396 44.5479C300.764 44.9234 300.821 45.2465 300.594 45.7334C297.17 53.0475 295.46 60.8156 294.448 68.7607C293.183 78.6969 293.141 88.6637 293.725 98.6435C293.857 100.916 294.073 103.183 294.188 105.455C294.205 105.798 293.952 106.231 293.694 106.497C291.302 108.964 290.081 111.85 290.5 115.296C290.777 117.59 291.847 119.442 294.095 120.332C296.476 121.276 298.614 120.546 300.517 119.036C302.47 117.485 303.594 115.403 304.227 112.97H305.164C319.927 112.97 334.693 112.977 349.456 112.951C350.226 112.951 350.479 113.184 350.706 113.896C351.579 116.616 353.133 118.863 355.841 120.081C359.791 121.861 363.68 119.612 364.147 115.311C364.522 111.872 363.373 108.951 360.924 106.527C360.521 106.128 360.366 105.759 360.419 105.207C361.14 97.8947 361.398 90.5631 361.224 83.2229C360.99 73.3653 360.018 63.5906 357.172 54.0911C356.383 51.4602 355.367 48.897 354.606 46.7312C355.437 45.6919 356.218 44.7662 356.943 43.8012C358.153 42.1855 358.993 40.4345 358.739 38.3407C358.499 36.3714 357.26 34.9915 355.318 34.5112C355.188 34.4806 355.069 34.4086 354.946 34.3562H353.072C353.03 34.3911 352.99 34.4479 352.942 34.4588C349.893 35.1968 347.587 36.8015 346.441 39.8188C346.355 40.0437 345.892 40.2599 345.603 40.262C334.226 40.2839 322.85 40.2773 311.473 40.2926C310.982 40.2926 310.741 40.1092 310.466 39.7228C309.703 38.6529 308.94 37.5657 308.032 36.6203C306.855 35.3911 305.256 34.8453 303.656 34.3562C303.032 34.3562 302.406 34.3562 301.782 34.3562H301.78ZM361.215 114.071C361.215 114.267 361.239 114.468 361.211 114.66C361.032 115.824 360.768 116.979 359.555 117.518C358.327 118.062 357.218 117.619 356.222 116.876C354.681 115.73 353.757 114.182 353.389 112.322C352.953 110.112 352.805 109.975 350.49 109.975C334.929 109.975 319.367 109.975 303.808 109.975C303.495 109.975 303.18 109.957 302.873 109.999C302.086 110.102 301.571 110.512 301.434 111.32C301.379 111.652 301.339 111.988 301.262 112.315C300.74 114.521 299.646 116.341 297.543 117.387C295.731 118.289 294.056 117.525 293.623 115.571C292.975 112.632 293.97 110.187 296.245 108.283C297.076 107.586 297.431 106.896 297.274 105.816C297.058 104.316 296.954 102.796 296.862 101.283C296.447 94.3774 296.178 87.4694 296.48 80.5483C296.787 73.5159 297.481 66.5381 299.066 59.665C300.204 54.7264 301.683 49.9035 304.141 45.4212C304.463 44.8339 304.372 44.2706 303.929 43.7881C303.645 43.478 303.292 43.2291 302.988 42.9366C301.82 41.8122 300.887 40.5611 300.925 38.8451C300.945 37.9477 301.452 37.3713 302.342 37.3888C303.061 37.4041 303.821 37.5285 304.478 37.8036C306.306 38.5678 307.437 40.0459 308.188 41.7969C308.671 42.9213 309.441 43.2925 310.646 43.2881C321.096 43.2553 331.545 43.2706 341.996 43.2684C343.643 43.2684 345.29 43.275 346.937 43.2663C348.041 43.2597 348.429 42.9737 348.846 41.9388C349.108 41.2882 349.313 40.5983 349.675 40.0044C350.697 38.3233 352.223 37.3975 354.222 37.367C355.241 37.3517 355.805 37.9565 355.785 38.963C355.777 39.404 355.691 39.8647 355.539 40.2773C354.928 41.9323 353.775 43.1287 352.223 43.9671C350.742 44.7684 350.607 45.2683 351.235 46.8229C352.223 49.2703 353.294 51.6982 354.081 54.209C356.852 63.0513 357.862 72.171 358.177 81.3823C358.457 89.5413 358.164 97.6851 357.353 105.807C357.249 106.853 357.503 107.602 358.389 108.274C360.285 109.713 361.085 111.75 361.215 114.066V114.071Z" fill="#002EA4"/>
<path d="M360.604 113.513C360.476 111.231 359.69 109.226 357.827 107.807C356.957 107.144 356.708 106.407 356.81 105.376C357.604 97.3734 357.895 89.3511 357.62 81.3159C357.308 72.2419 356.318 63.2582 353.596 54.5476C352.823 52.0721 351.77 49.6826 350.8 47.2716C350.183 45.7403 350.315 45.2478 351.77 44.4584C353.295 43.6325 354.428 42.4539 355.027 40.8237C355.177 40.415 355.261 39.9634 355.27 39.5289C355.289 38.5374 354.735 37.9416 353.735 37.9567C351.77 37.9868 350.27 38.8987 349.267 40.5548C348.912 41.1398 348.71 41.8195 348.453 42.4604C348.044 43.4777 347.662 43.7594 346.577 43.768C344.96 43.7788 343.342 43.7702 341.724 43.7702C331.46 43.7702 321.195 43.7573 310.928 43.7895C309.744 43.7938 308.988 43.4282 308.514 42.3206C307.775 40.5957 306.662 39.1396 304.869 38.3869C304.224 38.1159 303.474 37.9933 302.771 37.9782C301.896 37.9589 301.398 38.5266 301.378 39.4128C301.341 41.1011 302.259 42.3335 303.405 43.4433C303.704 43.7315 304.05 43.9767 304.33 44.2821C304.765 44.7574 304.854 45.3123 304.538 45.8908C302.125 50.3042 300.67 55.0552 299.553 59.9223C297.998 66.6929 297.313 73.5689 297.012 80.4943C296.716 87.3122 296.98 94.1172 297.387 100.92C297.476 102.413 297.578 103.907 297.792 105.385C297.946 106.45 297.597 107.129 296.781 107.815C294.548 109.691 293.569 112.1 294.206 114.995C294.63 116.919 296.276 117.672 298.056 116.784C300.122 115.754 301.196 113.96 301.709 111.788C301.785 111.465 301.824 111.134 301.878 110.807C302.013 110.011 302.519 109.605 303.292 109.506C303.596 109.467 303.905 109.482 304.211 109.482C319.497 109.482 334.784 109.482 350.068 109.482C352.34 109.482 352.485 109.618 352.916 111.794C353.278 113.627 354.185 115.152 355.699 116.281C356.678 117.012 357.767 117.449 358.973 116.913C360.166 116.382 360.424 115.244 360.599 114.098C360.628 113.908 360.604 113.711 360.604 113.517V113.513ZM323.573 63.5851C323.469 62.6581 323.237 61.6257 323.261 60.602C323.313 58.4254 324.37 56.6381 325.758 55.0294C327.352 53.184 328.073 53.1711 329.665 55.0358C331.462 57.1414 332.594 59.4836 332.049 62.3484C331.964 62.7979 331.824 63.2345 331.681 63.7851C332.049 63.6711 332.3 63.5571 332.562 63.5163C333.905 63.3076 335.243 63.0409 336.594 62.9463C337.588 62.8753 338.173 63.5012 338.201 64.469C338.262 66.5854 337.865 68.6028 336.739 70.4309C336.456 70.8912 336.098 71.3063 335.713 71.8246C335.96 71.8418 336.09 71.8547 336.217 71.859C337.8 71.9128 338.229 72.3494 338.208 73.9367C338.175 76.1132 337.638 78.1457 336.356 79.9523C338.071 80.4362 338.262 80.6879 338.201 82.4687C338.184 82.9935 338.112 83.5161 338.039 84.0366C337.497 87.8413 335.059 90.3491 331.252 91.033C330.602 91.1491 329.955 91.2696 329.266 91.3943C329.266 91.7513 329.266 92.0525 329.266 92.3536C329.279 95.4012 329.294 98.4488 329.299 101.494C329.299 101.851 329.277 102.217 329.195 102.561C329.036 103.236 328.56 103.602 327.876 103.626C327.152 103.651 326.644 103.29 326.444 102.593C326.356 102.279 326.34 101.939 326.338 101.61C326.325 98.481 326.323 95.3496 326.319 92.2202C326.319 91.932 326.319 91.6417 326.319 91.3556C324.147 91.1319 322.139 90.7835 320.459 89.506C318.202 87.7897 317.388 85.3701 317.252 82.6687C317.221 82.0514 317.2 81.3202 317.492 80.832C317.765 80.376 318.464 80.1717 318.995 79.8448C317.951 78.378 317.386 76.6358 317.256 74.7475C317.091 72.3214 317.265 72.0978 319.653 71.7773C319.593 71.6719 319.554 71.573 319.486 71.4977C317.899 69.7018 317.314 67.5489 317.213 65.2218C317.135 63.3915 317.639 62.8065 319.484 62.942C320.879 63.0452 322.258 63.3722 323.571 63.5872L323.573 63.5851Z" fill="#FFF5DC"/>
<path d="M325.373 68.5189C324.472 68.364 323.528 68.1285 322.572 68.0542C321.307 67.9566 320.959 68.3779 321.014 69.6961C321.083 71.3721 321.485 72.9226 322.573 74.216C322.619 74.2702 322.644 74.3414 322.687 74.4173C321.05 74.6481 320.931 74.8092 321.044 76.5565C321.132 77.9165 321.519 79.1711 322.236 80.2275C321.874 80.463 321.394 80.6101 321.206 80.9385C321.004 81.2917 321.019 81.8168 321.041 82.2613C321.135 84.2068 321.693 85.9494 323.24 87.1855C324.392 88.1056 325.768 88.3565 327.257 88.5176C327.257 88.7236 327.257 88.9312 327.257 89.1403C327.26 91.394 327.261 93.6493 327.27 95.9031C327.27 96.1401 327.28 96.3864 327.343 96.611C327.479 97.1144 327.828 97.3746 328.324 97.3545C328.793 97.3374 329.12 97.0741 329.228 96.5877C329.283 96.3383 329.299 96.075 329.299 95.8194C329.296 93.6245 329.286 91.4297 329.277 89.2363C329.277 89.0195 329.277 88.8011 329.277 88.5455C329.749 88.4556 330.193 88.3689 330.638 88.2852C333.248 87.7927 334.92 85.9866 335.291 83.2465C335.341 82.8716 335.39 82.4952 335.402 82.1173C335.444 80.8347 335.313 80.6535 334.137 80.305C335.016 79.0023 335.384 77.5385 335.407 75.9725C335.423 74.8294 335.129 74.5149 334.042 74.4762C333.953 74.4731 333.866 74.4638 333.696 74.4514C333.961 74.0766 334.206 73.7776 334.4 73.4477C335.172 72.1311 335.444 70.6781 335.402 69.154C335.383 68.4569 334.982 68.0062 334.301 68.0573C333.374 68.127 332.457 68.3175 331.536 68.4678C331.357 68.4972 331.185 68.5777 330.932 68.6614C331.03 68.2648 331.127 67.9504 331.185 67.6267C331.559 65.5634 330.782 63.8751 329.55 62.3602C328.459 61.0188 327.965 61.0265 326.872 62.3555C325.921 63.5142 325.196 64.8013 325.161 66.3689C325.144 67.1078 325.303 67.8513 325.374 68.5173L325.373 68.5189ZM328.229 64.0346C329.601 65.74 329.598 67.6561 328.222 69.236C326.811 67.8141 326.814 65.4457 328.229 64.0346ZM333.278 82.6021C333.34 84.6065 331.876 86.1508 329.795 86.2778C329.74 84.2471 331.183 82.7245 333.278 82.6021ZM333.297 70.2119C333.239 72.3557 331.672 73.9774 329.792 73.8829C329.918 71.4882 331.351 70.4086 333.297 70.2119ZM323.131 70.2305C325.278 70.4303 326.813 72.0846 326.608 73.9372C324.464 73.7141 323.137 72.3169 323.131 70.2305ZM326.635 86.3181C324.357 85.9448 322.842 84.2843 323.192 82.585C325.224 82.7709 326.529 84.0659 326.635 86.3181ZM326.67 80.3282C324.708 80.3034 323.1 78.8195 323.17 76.6804C325.113 76.7036 326.391 78.0218 326.67 80.3282V80.3282ZM333.322 76.685C333.083 78.9527 331.556 80.4986 329.785 80.3019C329.814 78.2526 331.36 76.651 333.322 76.685V76.685Z" fill="#002EA4"/>
<path d="M352.503 82.9559L346.203 115.355L379.502 119.855C380.402 115.355 384.362 94.6556 385.802 87.4558C385.802 80.2559 379.202 77.256 375.902 76.656L376.802 72.1561H380.402L381.302 65.8563L365.103 63.1564L363.303 69.4562L366.003 70.3562C365.703 71.2562 365.103 73.4161 365.103 74.8561C356.463 74.8561 353.103 80.2559 352.503 82.9559Z" fill="#FFF5DC"/>
<path d="M366.003 70.3562C365.703 71.2562 365.103 73.4161 365.103 74.8561C356.463 74.8561 353.103 80.2559 352.503 82.9559L346.203 115.355L379.502 119.855C380.402 115.355 384.362 94.6556 385.802 87.4558C385.802 80.2559 379.202 77.256 375.902 76.656L376.802 72.1561M366.003 70.3562L363.303 69.4562L365.103 63.1564L381.302 65.8563L380.402 72.1561H376.802M366.003 70.3562L376.802 72.1561" stroke="#002EA4" stroke-width="1.35902"/>
<rect width="34.1991" height="21.5995" transform="matrix(-1 0 0 1 267.011 91.9562)" fill="#FFF5DC"/>
<path d="M289.505 64.057L288.605 69.4568L306.605 70.3568L305.705 64.057L303.905 63.157L303.005 52.3573L299.405 51.4573L291.305 52.3573V63.157L289.505 64.057Z" fill="#FFF5DC"/>
<path d="M310.206 73.5105C309.762 71.8651 308.987 70.4473 307.543 69.4465C307.372 69.327 307.313 68.9574 307.309 68.7027C307.286 67.2691 307.3 65.8355 307.297 64.402C307.297 62.7543 306.986 62.4387 305.332 62.4049C305.193 62.4027 305.053 62.3869 304.796 62.3688C304.796 62.0668 304.796 61.7693 304.796 61.4695C304.796 59.1929 304.807 56.9141 304.792 54.6375C304.78 52.2167 303.129 50.5758 300.7 50.5645C298.311 50.5532 295.921 50.5555 293.53 50.5645C291.027 50.5735 289.418 52.1491 289.386 54.6646C289.357 56.9141 289.379 59.1636 289.379 61.4131C289.379 61.7174 289.379 62.0195 289.379 62.2809C289.262 62.3373 289.237 62.3553 289.21 62.3598C287.669 62.5432 286.898 63.4342 286.896 65.0331C286.896 66.1849 286.926 67.339 286.874 68.4908C286.863 68.7455 286.621 69.0656 286.394 69.2256C285.231 70.0461 283.917 70.693 282.874 71.6374C277.192 76.7833 272.408 82.6844 268.44 89.2458C268.302 89.4758 268.147 89.6944 267.859 90.1362C267.859 88.8086 267.856 87.7266 267.859 86.647C267.87 83.3493 266.491 80.8 263.737 78.9945C261.529 77.5475 259.325 76.0936 257.097 74.6736C256.592 74.3512 256.378 74.0086 256.389 73.3933C256.428 71.1731 256.416 68.9506 256.401 66.7304C256.385 64.1473 254.63 62.3959 252.054 62.3779C250.396 62.3666 248.737 62.3688 247.079 62.3779C244.456 62.3936 242.719 64.1428 242.703 66.7867C242.692 68.9799 242.678 71.1731 242.714 73.3662C242.723 73.9703 242.545 74.3287 242.027 74.6555C239.774 76.0868 237.548 77.5587 235.319 79.0261C232.624 80.8 231.257 83.3087 231.25 86.5365C231.236 91.4277 231.245 96.3212 231.248 101.212C231.248 101.352 231.236 108.916 231.245 109.055C231.294 109.867 231.779 110.239 232.545 110.23C233.309 110.221 233.771 109.787 233.778 108.957C233.796 106.82 233.778 97.3243 233.778 95.1875C233.778 94.8854 233.778 94.5811 233.778 94.2363H265.375C265.279 94.6397 265.258 95.0229 265.101 95.3407C262.662 100.324 260.729 105.495 259.375 110.878C259.242 111.403 259.014 111.583 258.46 111.583C250.477 111.565 242.491 111.572 234.508 111.567C234.289 111.567 234.071 111.534 233.78 111.509C233.78 110.634 233.791 109.796 233.778 108.957C233.762 108.051 233.339 107.589 232.545 107.576C231.718 107.56 231.257 108.04 231.254 108.984C231.245 112.667 231.25 116.351 231.25 120.034C231.25 120.34 231.25 120.649 231.25 121.021C229.242 121.413 227.64 122.403 226.608 124.183C225.569 125.975 225.529 127.862 226.191 129.775C226.119 129.807 226.094 129.827 226.067 129.83C224.573 129.971 223.825 130.797 223.825 132.307C223.825 133.262 223.864 134.22 223.814 135.174C223.773 135.952 224.001 136.542 224.67 136.952H242.723C243.271 136.483 243.613 135.927 243.334 135.19C243.034 134.394 242.334 134.417 241.64 134.417C236.86 134.423 232.081 134.421 227.304 134.421H226.426V132.44H252.624V134.423C251.619 134.423 250.666 134.403 249.717 134.43C248.818 134.455 248.271 135.088 248.483 135.931C248.575 136.303 248.911 136.614 249.136 136.952H305.819C306.495 136.639 307.209 136.387 307.843 136.001C309.129 135.219 309.742 133.934 310.206 132.566V89.034C309.738 88.4862 309.181 88.1459 308.444 88.4231C307.694 88.7049 307.642 89.3585 307.674 90.0348C307.685 90.2602 307.674 90.4856 307.674 90.7087C307.674 104.233 307.674 117.757 307.674 131.283C307.674 133.197 306.531 134.419 304.697 134.419C290.556 134.426 276.414 134.426 262.273 134.419C260.862 134.419 259.925 133.718 259.56 132.352C259.402 131.766 259.368 131.132 259.368 130.519C259.37 124.821 260.001 119.188 261.295 113.639C265.006 97.7165 272.879 84.2171 284.925 73.1544C286.531 71.678 288.413 70.9612 290.596 70.968C295.01 70.9837 299.424 70.968 303.839 70.9747C306.256 70.9747 307.669 72.3812 307.674 74.7863C307.678 77.2612 307.669 79.7361 307.678 82.2088C307.683 83.2163 308.228 83.7934 309.1 83.6175C309.499 83.5387 309.839 83.187 310.206 82.9594C310.206 79.8105 310.206 76.6594 310.206 73.5105ZM233.78 91.6193C233.78 89.9468 233.798 88.3465 233.776 86.7484C233.74 84.2622 234.774 82.3756 236.86 81.0322C239.172 79.5423 241.464 78.0208 243.78 76.5354C244.066 76.3528 244.445 76.2266 244.783 76.2221C247.958 76.1995 251.13 76.2018 254.305 76.2176C254.598 76.2176 254.936 76.2762 255.175 76.4295C257.699 78.0591 260.215 79.6955 262.712 81.3635C263.976 82.2088 264.941 83.3967 265.107 84.8911C265.355 87.1023 265.321 89.345 265.411 91.6171H233.782L233.78 91.6193ZM243.936 122.461C242.041 118.625 237.345 118.244 234.76 121.564L233.834 121.206V114.173H258.433C257.996 117.403 257.426 120.559 257.178 123.741C256.903 127.285 256.25 130.871 257.442 134.353H255.209C255.209 133.332 255.215 132.377 255.209 131.423C255.2 130.33 254.76 129.886 253.685 129.866C253.361 129.859 253.034 129.866 252.703 129.866C252.971 125.143 249.005 121.312 243.938 122.461H243.936ZM250.107 129.721C249.889 129.751 249.754 129.787 249.616 129.787C242.953 129.789 236.293 129.798 229.63 129.766C229.33 129.766 228.911 129.464 228.751 129.185C227.872 127.648 228.242 125.689 229.567 124.501C230.887 123.318 232.762 123.214 234.319 124.242C235.427 124.972 236.117 124.776 236.631 123.586C237.158 122.36 238.226 121.697 239.411 121.859C240.68 122.033 241.464 122.898 241.732 124.278C241.811 124.679 242.054 125.134 242.367 125.385C242.904 125.813 243.469 125.475 244.019 125.225C245.522 124.542 246.987 124.654 248.329 125.617C249.695 126.597 250.263 127.968 250.107 129.721ZM291.926 62.1998C291.926 59.5558 291.901 56.9998 291.939 54.4459C291.953 53.5331 292.511 53.1025 293.523 53.098C295.885 53.089 298.244 53.089 300.605 53.098C301.752 53.1025 302.261 53.5984 302.266 54.7345C302.277 57.0403 302.27 59.3439 302.266 61.6498C302.266 61.8346 302.216 62.0195 302.189 62.202H291.926V62.1998ZM245.243 73.648C245.243 71.2069 245.22 68.8514 245.254 66.4982C245.267 65.511 245.973 64.9204 247.05 64.9091C248.706 64.8934 250.36 64.8956 252.016 64.9091C253.253 64.9181 253.866 65.538 253.875 66.7867C253.886 68.6666 253.879 70.5464 253.879 72.4263C253.879 72.832 253.879 73.2378 253.879 73.648H245.245H245.243ZM289.465 64.9925H304.715V68.3803H289.465V64.9925Z" fill="#002EA4"/>
<path d="M310.204 82.9596C309.837 83.1873 309.497 83.5389 309.1 83.6178C308.226 83.7936 307.68 83.2166 307.678 82.209C307.669 79.7341 307.678 77.2592 307.674 74.7865C307.669 72.3815 306.256 70.9772 303.839 70.975C299.424 70.9705 295.01 70.9863 290.596 70.9682C288.413 70.9592 286.531 71.6782 284.925 73.1546C272.879 84.2151 265.006 97.7167 261.295 113.639C260.001 119.189 259.37 124.821 259.368 130.52C259.368 131.133 259.402 131.766 259.56 132.352C259.925 133.72 260.862 134.419 262.273 134.419C276.414 134.426 290.556 134.426 304.697 134.419C306.531 134.419 307.674 133.197 307.674 131.284C307.676 117.76 307.674 104.235 307.674 90.709C307.674 90.4836 307.683 90.2582 307.674 90.035C307.642 89.3566 307.694 88.7051 308.444 88.4234C309.181 88.1462 309.738 88.4865 310.206 89.0342C310.206 87.0101 310.206 84.9838 310.206 82.9596H310.204ZM304.638 102.987C304.638 110.044 304.638 117.099 304.636 124.156C304.636 124.632 304.638 125.119 304.555 125.583C304.039 128.408 301.817 130.177 298.764 130.181C289.965 130.19 281.166 130.186 272.367 130.184C271.103 130.184 269.835 130.22 268.573 130.168C265.195 130.03 262.78 127.159 263.185 123.859C263.85 118.463 265.103 113.2 266.725 108.018C267.613 105.184 269.501 103.814 272.493 103.809C274.826 103.805 277.16 103.798 279.492 103.812C280.734 103.821 281.714 103.388 282.442 102.342C285.95 97.2862 289.494 92.2575 292.969 87.1792C293.383 86.5728 293.577 85.7343 293.636 84.9838C293.744 83.6426 293.631 82.2857 293.681 80.9378C293.798 77.719 296.835 75.2779 300.004 75.8211C302.753 76.2945 304.627 78.4854 304.634 81.3097C304.648 88.5361 304.638 95.7602 304.638 102.987V102.987ZM286.687 77.5387C287.969 77.6086 289.422 78.4448 290.204 80.2052C290.999 81.9949 290.745 83.7373 289.364 85.119C285.702 88.7818 282.622 92.8638 280.071 97.3719C278.832 99.5605 276.313 100.081 274.062 98.7852C271.827 97.4981 271.047 95.048 272.304 92.8616C275.247 87.7472 278.791 83.0746 282.879 78.819C283.737 77.9241 284.814 77.4936 286.685 77.5387H286.687Z" fill="#FFF5DC"/>
<path d="M249.122 136.955C248.897 136.617 248.561 136.306 248.468 135.934C248.257 135.091 248.804 134.458 249.703 134.433C250.654 134.406 251.605 134.426 252.61 134.426V132.443H226.411V134.424H227.29C232.069 134.424 236.848 134.426 241.625 134.42C242.319 134.42 243.02 134.397 243.32 135.193C243.597 135.93 243.254 136.487 242.709 136.955H249.12H249.122Z" fill="#FFF5DC"/>
<path d="M233.777 91.6199H265.406C265.318 89.3478 265.35 87.1051 265.102 84.8939C264.935 83.3995 263.971 82.2116 262.707 81.3663C260.21 79.6983 257.693 78.0597 255.17 76.4323C254.931 76.279 254.593 76.2204 254.3 76.2204C251.125 76.2046 247.952 76.2023 244.777 76.2249C244.44 76.2271 244.061 76.3534 243.775 76.5382C241.458 78.0236 239.167 79.5451 236.855 81.035C234.771 82.3784 233.737 84.265 233.77 86.7512C233.793 88.3493 233.775 89.9496 233.775 91.6221L233.777 91.6199Z" fill="#FFF5DC"/>
<path d="M243.933 122.462C249 121.313 252.966 125.147 252.698 129.867C253.029 129.867 253.354 129.862 253.68 129.867C254.755 129.887 255.192 130.331 255.204 131.424C255.213 132.378 255.204 133.333 255.204 134.354H257.436C256.245 130.872 256.9 127.286 257.173 123.742C257.418 120.56 257.991 117.402 258.428 114.174H233.829V121.207L234.755 121.565C237.34 118.245 242.035 118.626 243.93 122.462H243.933Z" fill="#FFF5DC"/>
<path d="M250.102 129.723C250.257 127.97 249.692 126.599 248.324 125.619C246.983 124.656 245.516 124.546 244.014 125.226C243.466 125.474 242.898 125.815 242.362 125.386C242.049 125.136 241.805 124.681 241.726 124.28C241.456 122.9 240.674 122.035 239.406 121.861C238.22 121.699 237.152 122.362 236.625 123.588C236.114 124.778 235.422 124.974 234.313 124.244C232.756 123.218 230.882 123.319 229.561 124.503C228.234 125.691 227.867 127.649 228.745 129.187C228.905 129.464 229.325 129.766 229.624 129.768C236.287 129.8 242.948 129.793 249.611 129.789C249.746 129.789 249.883 129.752 250.102 129.723V129.723Z" fill="#FFF5DC"/>
<path d="M245.24 73.6488H253.874C253.874 73.2385 253.874 72.8328 253.874 72.4271C253.874 70.5472 253.883 68.6674 253.87 66.7875C253.861 65.5411 253.248 64.9189 252.011 64.9099C250.355 64.8964 248.701 64.8964 247.045 64.9099C245.968 64.9189 245.262 65.5095 245.249 66.499C245.215 68.8522 245.237 71.2077 245.237 73.6488H245.24Z" fill="#FFF5DC"/>
<path d="M304.635 102.985C304.635 95.7587 304.644 88.5345 304.63 81.3081C304.626 78.4861 302.751 76.2929 300 75.8196C296.832 75.2763 293.794 77.7175 293.677 80.9362C293.627 82.2841 293.738 83.641 293.632 84.9822C293.571 85.7328 293.38 86.5713 292.965 87.1776C289.49 92.2559 285.946 97.2869 282.438 102.34C281.712 103.386 280.732 103.819 279.488 103.81C277.156 103.794 274.822 103.803 272.49 103.808C269.497 103.812 267.609 105.183 266.721 108.016C265.099 113.198 263.846 118.459 263.181 123.857C262.776 127.157 265.193 130.029 268.569 130.166C269.833 130.218 271.099 130.182 272.363 130.182C281.162 130.182 289.961 130.189 298.76 130.18C301.813 130.178 304.035 128.406 304.551 125.582C304.637 125.117 304.632 124.63 304.632 124.155C304.637 117.098 304.635 110.042 304.635 102.985V102.985ZM302.104 102.859C302.104 110.054 302.109 117.251 302.102 124.446C302.102 126.386 300.896 127.642 298.965 127.644C288.905 127.658 278.841 127.662 268.781 127.642C266.748 127.637 265.457 126.078 265.705 124.069C266.343 118.898 267.546 113.854 269.101 108.888C269.696 106.986 270.57 106.344 272.548 106.339C274.853 106.332 277.158 106.328 279.461 106.339C281.543 106.35 283.24 105.6 284.448 103.869C288.033 98.7317 291.613 93.5903 295.191 88.4511C295.869 87.4774 296.194 86.3909 296.192 85.2031C296.189 83.8529 296.176 82.505 296.198 81.1548C296.221 79.8588 296.895 78.9549 298.084 78.5514C300.218 77.8256 302.097 79.1668 302.1 81.4366C302.106 88.5751 302.102 95.7158 302.102 102.854L302.104 102.859Z" fill="#002EA4"/>
<path d="M286.692 77.5392C284.819 77.4941 283.745 77.9247 282.886 78.8195C278.796 83.0751 275.252 87.7477 272.311 92.8621C271.054 95.0485 271.832 97.4986 274.069 98.7857C276.322 100.084 278.841 99.5633 280.078 97.3724C282.629 92.8643 285.707 88.7823 289.371 85.1195C290.752 83.7378 291.007 81.9977 290.211 80.2057C289.429 78.4453 287.974 77.6091 286.694 77.5392H286.692ZM285.932 79.8834C286.89 80.0457 287.539 80.4289 287.902 81.22C288.283 82.0563 288.118 82.8362 287.476 83.4673C283.717 87.1549 280.585 91.3113 278.014 95.905C277.393 97.0162 276.325 97.2664 275.288 96.6534C274.258 96.0448 273.979 94.9944 274.623 93.8989C277.426 89.1294 280.736 84.7408 284.56 80.7422C284.921 80.3635 285.473 80.1674 285.935 79.8857L285.932 79.8834Z" fill="#002EA4"/>
<path d="M302.106 102.859C302.106 95.7203 302.11 88.5795 302.104 81.4411C302.101 79.169 300.22 77.8301 298.088 78.5559C296.899 78.9616 296.225 79.8632 296.202 81.1593C296.18 82.5072 296.191 83.8574 296.196 85.2075C296.198 86.3954 295.873 87.4818 295.195 88.4556C291.615 93.597 288.034 98.7362 284.452 103.873C283.244 105.606 281.547 106.357 279.465 106.344C277.16 106.33 274.855 106.337 272.552 106.344C270.574 106.348 269.7 106.99 269.105 108.893C267.552 113.858 266.347 118.903 265.709 124.074C265.461 126.082 266.752 127.642 268.785 127.646C278.846 127.667 288.909 127.664 298.969 127.649C300.903 127.646 302.104 126.391 302.106 124.45C302.113 117.255 302.108 110.058 302.108 102.863L302.106 102.859Z" fill="#FFF5DC"/>
<path d="M285.913 79.8836C285.451 80.1654 284.899 80.3615 284.539 80.7401C280.717 84.7365 277.405 89.1274 274.602 93.8969C273.957 94.9923 274.237 96.0427 275.267 96.6513C276.303 97.2644 277.371 97.0164 277.993 95.903C280.564 91.3115 283.696 87.1528 287.454 83.4652C288.097 82.8364 288.261 82.0542 287.88 81.218C287.52 80.4268 286.869 80.0414 285.911 79.8813L285.913 79.8836Z" fill="#FFF5DC"/>
<path d="M384.792 111.013H261.866V203.009H384.792V111.013Z" fill="#FFF5DC"/>
<path d="M385.782 204H260.873V110.021H385.782V204ZM262.855 202.018H383.799V112.004H262.855V202.018Z" fill="#002EA4"/>
<path d="M355.452 111.013H232.526V203.009H355.452V111.013Z" fill="#FFF5DC"/>
<path d="M356.441 204H231.532V110.021H356.441V204ZM233.514 202.018H354.458V112.004H233.514V202.018Z" fill="#002EA4"/>
<path d="M340.374 142.736L355.839 111.013H232.12L216.655 142.736H340.374Z" fill="#FFF5DC"/>
<path d="M341 143.726H215.074L231.506 110.021H357.431L341 143.726ZM218.247 141.743H339.76L354.259 112.003H232.745L218.247 141.743Z" fill="#002EA4"/>
<path d="M248.772 175.422C248.513 175.427 248.256 175.382 248.016 175.29C247.776 175.199 247.558 175.062 247.375 174.888C247.192 174.715 247.048 174.51 246.949 174.283C246.85 174.057 246.799 173.814 246.799 173.569C246.799 173.324 246.85 173.082 246.949 172.855C247.048 172.629 247.192 172.424 247.375 172.251C247.558 172.077 247.776 171.94 248.016 171.848C248.256 171.756 248.513 171.711 248.772 171.716C249.026 171.713 249.279 171.759 249.514 171.851C249.75 171.942 249.963 172.079 250.142 172.251C250.325 172.424 250.469 172.629 250.568 172.855C250.667 173.082 250.718 173.324 250.718 173.569C250.718 173.814 250.667 174.057 250.568 174.283C250.469 174.51 250.325 174.715 250.142 174.888C249.963 175.06 249.75 175.196 249.514 175.288C249.279 175.38 249.026 175.425 248.772 175.422ZM247.128 189.079V176.79H250.416V189.075L247.128 189.079Z" fill="#EC3A0E"/>
<path d="M253.047 189.076V176.791H256.308V178.735C256.637 178.092 257.171 177.574 257.911 177.182C258.651 176.791 259.515 176.595 260.501 176.595C262.145 176.595 263.428 177.065 264.351 178.004C265.274 178.944 265.735 180.232 265.735 181.868V189.076H262.446V182.315C262.446 181.41 262.186 180.696 261.665 180.171C261.145 179.646 260.428 179.386 259.514 179.388C258.582 179.388 257.815 179.671 257.213 180.236C256.61 180.801 256.309 181.537 256.308 182.442V189.076H253.047Z" fill="#EC3A0E"/>
<path d="M280.067 183.854V176.788H283.383V183.591C283.383 184.583 283.657 185.322 284.204 185.809C284.752 186.296 285.483 186.54 286.397 186.54C287.31 186.54 288.041 186.292 288.59 185.796C289.138 185.3 289.412 184.556 289.411 183.564V176.791H292.727V183.778C292.727 185.605 292.124 187.001 290.918 187.967C289.713 188.933 288.196 189.416 286.37 189.416C284.543 189.416 283.036 188.938 281.848 187.981C280.661 187.024 280.067 185.648 280.067 183.854Z" fill="#EC3A0E"/>
<path d="M295.194 189.076V176.791H298.454V178.697C298.749 178.051 299.247 177.508 299.88 177.144C300.538 176.752 301.305 176.557 302.182 176.556C304.063 176.556 305.351 177.322 306.045 178.854C306.83 177.322 308.338 176.556 310.567 176.556C312.084 176.556 313.262 177.026 314.102 177.966C314.942 178.906 315.363 180.194 315.363 181.83V189.078H312.074V182.27C312.074 181.366 311.86 180.651 311.431 180.127C311.002 179.602 310.394 179.341 309.608 179.343C309.232 179.334 308.859 179.405 308.517 179.553C308.175 179.701 307.872 179.921 307.631 180.196C307.12 180.761 306.864 181.496 306.865 182.401V189.076H303.603V182.27C303.603 181.366 303.389 180.651 302.96 180.127C302.531 179.602 301.923 179.341 301.137 179.343C300.37 179.343 299.731 179.63 299.22 180.204C298.708 180.779 298.452 181.51 298.452 182.397V189.072L295.194 189.076Z" fill="#EC3A0E"/>
<path d="M319.146 187.533C317.883 186.296 317.252 184.767 317.253 182.944C317.254 181.121 317.885 179.595 319.146 178.366C320.408 177.137 321.971 176.523 323.833 176.523C324.894 176.523 325.799 176.718 326.549 177.109C327.298 177.499 327.794 177.987 328.037 178.573V176.791H331.17V185.385C331.17 185.906 331.244 186.276 331.392 186.497C331.541 186.717 331.788 186.827 332.136 186.826C332.355 186.824 332.573 186.808 332.789 186.777V189.143C332.441 189.273 331.927 189.338 331.248 189.338C330.5 189.338 329.891 189.208 329.421 188.948C329.145 188.782 328.908 188.565 328.723 188.309C328.539 188.053 328.412 187.763 328.35 187.458C327.428 188.744 325.922 189.387 323.833 189.387C321.971 189.388 320.408 188.77 319.146 187.533ZM321.514 180.3C320.786 181.005 320.422 181.886 320.422 182.944C320.423 184.001 320.787 184.882 321.514 185.587C322.243 186.293 323.155 186.645 324.252 186.644C325.363 186.644 326.301 186.292 327.066 185.587C327.831 184.882 328.213 184.001 328.21 182.944C328.21 181.885 327.829 181.004 327.066 180.3C326.304 179.596 325.366 179.243 324.252 179.242C323.155 179.242 322.242 179.595 321.514 180.3Z" fill="#EC3A0E"/>
<path d="M277.02 188.15C274.694 190.168 269.852 189.711 268.053 187.268C267.932 187.103 267.837 186.922 267.701 186.699C268.464 186.298 269.232 185.804 270.035 185.377C270.828 186.685 272.076 187.04 273.523 186.864C273.94 186.815 274.381 186.743 274.725 186.518C275.068 186.293 275.266 185.974 275.292 185.663C275.284 185.557 275.253 185.454 275.201 185.361C275.127 185.236 275.029 185.126 274.913 185.035C274.787 184.932 274.65 184.843 274.502 184.77C274.307 184.679 274.106 184.603 273.899 184.541C273.642 184.462 273.414 184.389 273.214 184.323C273.013 184.257 272.738 184.178 272.392 184.085C272.046 183.991 271.752 183.901 271.514 183.821C271.502 183.817 271.489 183.813 271.477 183.808C271.474 183.809 271.471 183.809 271.468 183.808C271.057 183.712 270.653 183.588 270.26 183.439C268.235 182.632 267.527 180.647 268.433 178.963C268.459 178.913 268.486 178.862 268.517 178.812L268.523 178.8L268.556 178.744C268.556 178.738 268.563 178.734 268.564 178.73C268.597 178.678 268.629 178.627 268.664 178.577C268.788 178.403 268.93 178.242 269.088 178.096C269.226 177.963 269.376 177.842 269.535 177.733C270.474 177.082 271.629 176.757 272.999 176.757C274.285 176.757 275.306 177.039 276.225 177.521C277.291 178.083 277.905 179.125 277.905 179.154C277.905 179.159 275.745 180.386 275.745 180.386L275.628 180.25C275.025 179.576 274.129 179.239 272.942 179.239C272.432 179.239 272.025 179.339 271.722 179.54C271.422 179.741 271.271 180.003 271.271 180.324C271.27 180.443 271.293 180.562 271.34 180.672C271.39 180.783 271.471 180.879 271.573 180.951C271.68 181.029 271.791 181.101 271.907 181.167C272.068 181.254 272.237 181.326 272.413 181.383C272.642 181.462 272.851 181.531 273.044 181.589C273.236 181.647 273.5 181.725 273.837 181.827L273.954 181.865C274.12 181.904 274.28 181.944 274.443 181.986C274.938 182.116 275.443 182.235 275.922 182.412C278.731 183.455 279.257 186.212 277.02 188.15Z" fill="#EC3A0E"/>
<path d="M557.981 119.515C558.74 108.692 556.377 98.5376 551.168 90.2402C545.96 81.9428 538.121 75.8451 528.569 72.6604C518.561 69.5402 507.293 69.4242 495.954 72.3246C484.615 75.225 473.625 81.0342 464.145 89.1392C451.486 99.4529 435.199 115.854 433.138 131.589C431.907 141.917 436.801 153.901 448.244 153.786C459.687 153.672 465.507 140.986 462.943 132.394C459.309 120.465 444.051 115.984 431.879 115.512C417.669 114.796 402.595 119.015 389.055 127.498C387.429 128.495 388.55 130.75 390.176 129.753C410.559 117.094 437.388 113.15 453.677 125.468C456.385 126.969 458.421 129.333 459.539 132.276C460.657 135.219 460.81 138.614 459.979 142.051C456.801 151.637 446.597 153.202 441.006 148.037C433.077 140.747 434.804 126.662 441.952 116.367C461.407 88.3869 493.737 67.0417 523.805 74.2777C533.789 76.7759 542.122 82.457 547.715 90.5801C553.309 98.7031 555.904 108.891 555.162 119.816C555.006 121.574 557.76 121.28 557.888 119.493L557.981 119.515Z" fill="#003D9F"/>
<path d="M33.0956 115.846C32.2803 104.223 34.8179 93.3179 40.4115 84.407C46.0051 75.4961 54.4235 68.9475 64.6819 65.5275C75.4296 62.1765 87.5309 62.0519 99.7084 65.1668C111.886 68.2816 123.688 74.5204 133.869 83.2246C147.465 94.3009 164.955 111.914 167.169 128.813C168.49 139.904 163.235 152.775 150.946 152.652C138.657 152.528 132.406 138.905 135.161 129.677C139.062 116.866 155.449 112.055 168.52 111.547C183.781 110.778 199.97 115.309 214.511 124.419C216.257 125.49 215.054 127.912 213.307 126.841C191.417 113.246 162.605 109.011 145.111 122.24C142.203 123.851 140.017 126.39 138.816 129.551C137.615 132.711 137.45 136.357 138.343 140.049C141.756 150.343 152.715 152.024 158.719 146.477C167.234 138.648 165.379 123.521 157.703 112.466C136.809 82.4167 102.089 59.4933 69.7982 67.2643C59.0755 69.9472 50.1272 76.0483 44.1202 84.772C38.1132 93.4956 35.3261 104.437 36.1226 116.169C36.2904 118.058 33.3322 117.742 33.1951 115.823L33.0956 115.846Z" fill="#003D9F"/>
<path d="M68.5412 166.504L69.3416 163.485L69.7321 163.342L70.492 166.402L73.8191 167.675L70.6768 168.538L69.4857 171.782L68.4383 168.538L65.3781 167.408L68.5412 166.504Z" fill="#002EA4"/>
<path d="M72.0416 167.954C71.593 168.057 71.1257 168.141 70.6865 168.263C70.3781 168.347 70.3033 168.487 70.2192 168.786C70.0977 169.225 69.9949 169.674 69.8828 170.122C69.8267 170.328 69.78 170.543 69.7239 170.749C69.6959 170.851 69.6304 171.412 69.537 171.468C69.5557 171.459 69.2846 170.44 69.2566 170.328C69.1445 169.833 69.0323 169.347 68.9202 168.851C68.8547 168.552 68.808 168.375 68.5183 168.253C68.079 168.085 67.565 168.01 67.1164 167.898C66.7052 167.795 66.2847 167.683 65.8734 167.571C65.8547 167.571 65.6585 167.534 65.6585 167.515C65.6585 167.515 65.9762 167.44 65.9576 167.44C66.2099 167.384 66.4622 167.328 66.7052 167.263C67.1258 167.169 67.537 167.066 67.9575 166.973C68.2753 166.898 68.6959 166.898 68.8641 166.58C69.0416 166.244 69.0884 165.758 69.1818 165.384C69.3033 164.907 69.4248 164.431 69.5463 163.954C69.5463 163.982 69.6304 163.636 69.6304 163.636C69.6678 163.655 69.6772 163.805 69.6865 163.833C69.7426 164.038 69.78 164.253 69.836 164.459C69.9482 164.926 70.051 165.393 70.1631 165.861C70.2379 166.197 70.2472 166.646 70.5837 166.823C70.9669 167.02 71.4996 167.066 71.9201 167.179C72.051 167.216 73.4902 167.534 73.4809 167.59C73.4809 167.674 72.2099 167.926 72.0697 167.964L72.4155 168.16V168.132C72.322 167.777 71.7706 167.926 71.8641 168.281V168.309C71.9108 168.459 72.0697 168.543 72.2192 168.506C72.7145 168.375 73.3127 168.309 73.7799 168.094C74.079 167.954 74.2285 167.599 74.0323 167.3C73.7986 166.954 73.2099 166.917 72.8547 166.823C72.2846 166.674 71.7052 166.524 71.1351 166.375C70.78 166.281 70.8641 166.365 70.7893 166.01C70.7332 165.749 70.6678 165.487 70.6117 165.225C70.4715 164.636 70.3968 163.973 70.1818 163.412C70.079 163.132 69.8173 162.936 69.5089 163.02C69.0697 163.132 69.0416 163.665 68.9482 164.029C68.808 164.58 68.6585 165.141 68.5183 165.693C68.4809 165.833 68.4622 166.038 68.3968 166.169L68.3781 166.244C68.3781 166.328 68.3501 166.347 68.2846 166.3C68.051 166.44 67.6117 166.45 67.3501 166.515C66.7893 166.646 66.2286 166.758 65.6678 166.907C65.3407 166.992 65.0323 167.179 65.0791 167.562C65.1351 167.973 65.5557 168.048 65.8921 168.132C66.4622 168.281 67.0323 168.431 67.6024 168.571C67.7519 168.608 68.2753 168.664 68.3781 168.767C68.2379 168.627 68.3968 169.02 68.4061 169.048C68.4342 169.16 68.4529 169.263 68.4809 169.375C68.6304 170.01 68.7706 170.655 68.9202 171.291C69.0043 171.664 69.1351 172.113 69.6117 172.048C70.0884 171.982 70.1351 171.478 70.2286 171.104C70.3874 170.478 70.5463 169.842 70.7052 169.216C70.7332 169.122 70.7613 168.814 70.8267 168.739C70.7052 168.861 71.0323 168.73 71.0977 168.711C71.4715 168.627 71.8454 168.543 72.2192 168.459C72.593 168.375 72.4248 167.833 72.0697 167.907L72.0416 167.954Z" fill="#002EA4"/>
<path d="M44.5412 40.5044L45.3416 37.4853L45.7321 37.3416L46.492 40.4016L49.8191 41.6749L46.6768 42.5375L45.4857 45.7824L44.4383 42.5375L41.3781 41.408L44.5412 40.5044Z" fill="#002EA4"/>
<path d="M48.0416 41.9542C47.593 42.057 47.1257 42.1411 46.6865 42.2626C46.3781 42.3467 46.3033 42.4869 46.2192 42.786C46.0977 43.2252 45.9949 43.6738 45.8828 44.1224C45.8267 44.328 45.78 44.543 45.7239 44.7486C45.6959 44.8514 45.6304 45.4121 45.537 45.4682C45.5557 45.4589 45.2846 44.4402 45.2566 44.328C45.1445 43.8327 45.0323 43.3467 44.9202 42.8514C44.8547 42.5523 44.808 42.3748 44.5183 42.2533C44.079 42.085 43.565 42.0103 43.1164 41.8981C42.7052 41.7953 42.2847 41.6832 41.8734 41.571C41.8547 41.571 41.6585 41.5336 41.6585 41.5149C41.6585 41.5149 41.9762 41.4402 41.9576 41.4402C42.2099 41.3841 42.4622 41.328 42.7052 41.2626C43.1258 41.1692 43.537 41.0664 43.9575 40.9729C44.2753 40.8981 44.6959 40.8981 44.8641 40.5804C45.0416 40.2439 45.0884 39.7579 45.1818 39.3841C45.3033 38.9075 45.4248 38.4309 45.5463 37.9542C45.5463 37.9823 45.6304 37.6365 45.6304 37.6365C45.6678 37.6552 45.6772 37.8047 45.6865 37.8327C45.7426 38.0383 45.78 38.2533 45.836 38.4589C45.9482 38.9262 46.051 39.3935 46.1631 39.8608C46.2379 40.1972 46.2472 40.6458 46.5837 40.8234C46.9669 41.0196 47.4996 41.0664 47.9201 41.1785C48.051 41.2159 49.4902 41.5336 49.4809 41.5897C49.4809 41.6738 48.2099 41.9262 48.0697 41.9635L48.4155 42.1598V42.1318C48.322 41.7766 47.7706 41.9262 47.8641 42.2813V42.3093C47.9108 42.4589 48.0697 42.543 48.2192 42.5056C48.7145 42.3748 49.3127 42.3093 49.7799 42.0944C50.079 41.9542 50.2285 41.5991 50.0323 41.3C49.7986 40.9542 49.2099 40.9168 48.8547 40.8234C48.2846 40.6738 47.7052 40.5243 47.1351 40.3748C46.78 40.2813 46.8641 40.3654 46.7893 40.0103C46.7332 39.7486 46.6678 39.4869 46.6117 39.2252C46.4715 38.6365 46.3968 37.9729 46.1818 37.4122C46.079 37.1318 45.8173 36.9355 45.5089 37.0196C45.0697 37.1318 45.0416 37.6645 44.9482 38.029C44.808 38.5804 44.6585 39.1411 44.5183 39.6925C44.4809 39.8327 44.4622 40.0383 44.3968 40.1692L44.3781 40.2439C44.3781 40.328 44.3501 40.3467 44.2846 40.3C44.051 40.4402 43.6117 40.4495 43.3501 40.515C42.7893 40.6458 42.2286 40.7579 41.6678 40.9075C41.3407 40.9916 41.0323 41.1785 41.0791 41.5617C41.1351 41.9729 41.5557 42.0477 41.8921 42.1318C42.4622 42.2813 43.0323 42.4308 43.6024 42.571C43.7519 42.6084 44.2753 42.6645 44.3781 42.7673C44.2379 42.6271 44.3968 43.0196 44.4061 43.0477C44.4342 43.1598 44.4529 43.2626 44.4809 43.3748C44.6304 44.0103 44.7706 44.6551 44.9202 45.2906C45.0043 45.6645 45.1351 46.1131 45.6117 46.0476C46.0884 45.9822 46.1351 45.4775 46.2286 45.1037C46.3874 44.4775 46.5463 43.842 46.7052 43.2159C46.7332 43.1224 46.7613 42.814 46.8267 42.7392C46.7052 42.8607 47.0323 42.7299 47.0977 42.7112C47.4715 42.6271 47.8454 42.543 48.2192 42.4589C48.593 42.3748 48.4248 41.8327 48.0697 41.9075L48.0416 41.9542Z" fill="#002EA4"/>
<path d="M420.541 59.5044L421.342 56.4853L421.732 56.3416L422.492 59.4016L425.819 60.6749L422.677 61.5375L421.486 64.7824L420.438 61.5375L417.378 60.408L420.541 59.5044Z" fill="#002EA4"/>
<path d="M424.042 60.9542C423.593 61.057 423.126 61.1411 422.686 61.2626C422.378 61.3467 422.303 61.4869 422.219 61.786C422.098 62.2252 421.995 62.6738 421.883 63.1224C421.827 63.328 421.78 63.543 421.724 63.7486C421.696 63.8514 421.63 64.4121 421.537 64.4682C421.556 64.4589 421.285 63.4402 421.257 63.328C421.144 62.8327 421.032 62.3467 420.92 61.8514C420.855 61.5523 420.808 61.3748 420.518 61.2533C420.079 61.085 419.565 61.0103 419.116 60.8981C418.705 60.7953 418.285 60.6832 417.873 60.571C417.855 60.571 417.658 60.5336 417.658 60.5149C417.658 60.5149 417.976 60.4402 417.958 60.4402C418.21 60.3841 418.462 60.328 418.705 60.2626C419.126 60.1692 419.537 60.0664 419.958 59.9729C420.275 59.8981 420.696 59.8981 420.864 59.5804C421.042 59.2439 421.088 58.7579 421.182 58.3841C421.303 57.9075 421.425 57.4309 421.546 56.9542C421.546 56.9823 421.63 56.6365 421.63 56.6365C421.668 56.6552 421.677 56.8047 421.687 56.8327C421.743 57.0383 421.78 57.2533 421.836 57.4589C421.948 57.9262 422.051 58.3935 422.163 58.8608C422.238 59.1972 422.247 59.6458 422.584 59.8234C422.967 60.0196 423.5 60.0664 423.92 60.1785C424.051 60.2159 425.49 60.5336 425.481 60.5897C425.481 60.6738 424.21 60.9262 424.07 60.9635L424.415 61.1598V61.1318C424.322 60.7766 423.771 60.9262 423.864 61.2813V61.3093C423.911 61.4589 424.07 61.543 424.219 61.5056C424.715 61.3748 425.313 61.3093 425.78 61.0944C426.079 60.9542 426.229 60.5991 426.032 60.3C425.799 59.9542 425.21 59.9168 424.855 59.8234C424.285 59.6738 423.705 59.5243 423.135 59.3748C422.78 59.2813 422.864 59.3654 422.789 59.0103C422.733 58.7486 422.668 58.4869 422.612 58.2252C422.472 57.6365 422.397 56.9729 422.182 56.4122C422.079 56.1318 421.817 55.9355 421.509 56.0196C421.07 56.1318 421.042 56.6645 420.948 57.029C420.808 57.5804 420.658 58.1411 420.518 58.6925C420.481 58.8327 420.462 59.0383 420.397 59.1692L420.378 59.2439C420.378 59.328 420.35 59.3467 420.285 59.3C420.051 59.4402 419.612 59.4495 419.35 59.515C418.789 59.6458 418.229 59.7579 417.668 59.9075C417.341 59.9916 417.032 60.1785 417.079 60.5617C417.135 60.9729 417.556 61.0477 417.892 61.1318C418.462 61.2813 419.032 61.4308 419.602 61.571C419.752 61.6084 420.275 61.6645 420.378 61.7673C420.238 61.6271 420.397 62.0196 420.406 62.0477C420.434 62.1598 420.453 62.2626 420.481 62.3748C420.63 63.0103 420.771 63.6551 420.92 64.2906C421.004 64.6645 421.135 65.1131 421.612 65.0476C422.088 64.9822 422.135 64.4775 422.229 64.1037C422.387 63.4775 422.546 62.842 422.705 62.2159C422.733 62.1224 422.761 61.814 422.827 61.7392C422.705 61.8607 423.032 61.7299 423.098 61.7112C423.472 61.6271 423.845 61.543 424.219 61.4589C424.593 61.3748 424.425 60.8327 424.07 60.9075L424.042 60.9542Z" fill="#002EA4"/>
<path d="M528.541 158.504L529.342 155.485L529.732 155.342L530.492 158.402L533.819 159.675L530.677 160.538L529.486 163.782L528.438 160.538L525.378 159.408L528.541 158.504Z" fill="#002EA4"/>
<path d="M532.042 159.954C531.593 160.057 531.126 160.141 530.686 160.263C530.378 160.347 530.303 160.487 530.219 160.786C530.098 161.225 529.995 161.674 529.883 162.122C529.827 162.328 529.78 162.543 529.724 162.749C529.696 162.851 529.63 163.412 529.537 163.468C529.556 163.459 529.285 162.44 529.257 162.328C529.144 161.833 529.032 161.347 528.92 160.851C528.855 160.552 528.808 160.375 528.518 160.253C528.079 160.085 527.565 160.01 527.116 159.898C526.705 159.795 526.285 159.683 525.873 159.571C525.855 159.571 525.658 159.534 525.658 159.515C525.658 159.515 525.976 159.44 525.958 159.44C526.21 159.384 526.462 159.328 526.705 159.263C527.126 159.169 527.537 159.066 527.958 158.973C528.275 158.898 528.696 158.898 528.864 158.58C529.042 158.244 529.088 157.758 529.182 157.384C529.303 156.907 529.425 156.431 529.546 155.954C529.546 155.982 529.63 155.636 529.63 155.636C529.668 155.655 529.677 155.805 529.687 155.833C529.743 156.038 529.78 156.253 529.836 156.459C529.948 156.926 530.051 157.393 530.163 157.861C530.238 158.197 530.247 158.646 530.584 158.823C530.967 159.02 531.5 159.066 531.92 159.179C532.051 159.216 533.49 159.534 533.481 159.59C533.481 159.674 532.21 159.926 532.07 159.964L532.415 160.16V160.132C532.322 159.777 531.771 159.926 531.864 160.281V160.309C531.911 160.459 532.07 160.543 532.219 160.506C532.715 160.375 533.313 160.309 533.78 160.094C534.079 159.954 534.229 159.599 534.032 159.3C533.799 158.954 533.21 158.917 532.855 158.823C532.285 158.674 531.705 158.524 531.135 158.375C530.78 158.281 530.864 158.365 530.789 158.01C530.733 157.749 530.668 157.487 530.612 157.225C530.472 156.636 530.397 155.973 530.182 155.412C530.079 155.132 529.817 154.936 529.509 155.02C529.07 155.132 529.042 155.665 528.948 156.029C528.808 156.58 528.658 157.141 528.518 157.693C528.481 157.833 528.462 158.038 528.397 158.169L528.378 158.244C528.378 158.328 528.35 158.347 528.285 158.3C528.051 158.44 527.612 158.45 527.35 158.515C526.789 158.646 526.229 158.758 525.668 158.907C525.341 158.992 525.032 159.179 525.079 159.562C525.135 159.973 525.556 160.048 525.892 160.132C526.462 160.281 527.032 160.431 527.602 160.571C527.752 160.608 528.275 160.664 528.378 160.767C528.238 160.627 528.397 161.02 528.406 161.048C528.434 161.16 528.453 161.263 528.481 161.375C528.63 162.01 528.771 162.655 528.92 163.291C529.004 163.664 529.135 164.113 529.612 164.048C530.088 163.982 530.135 163.478 530.229 163.104C530.387 162.478 530.546 161.842 530.705 161.216C530.733 161.122 530.761 160.814 530.827 160.739C530.705 160.861 531.032 160.73 531.098 160.711C531.472 160.627 531.845 160.543 532.219 160.459C532.593 160.375 532.425 159.833 532.07 159.907L532.042 159.954Z" fill="#002EA4"/>
<path d="M417.846 146.802L418.486 144.388L418.798 144.273L419.406 146.72L422.066 147.738L419.554 148.428L418.601 151.023L417.764 148.428L415.317 147.525L417.846 146.802Z" fill="#EC3A0E"/>
<path d="M420.645 147.961C420.287 148.044 419.913 148.111 419.562 148.208C419.315 148.275 419.256 148.387 419.188 148.627C419.091 148.978 419.009 149.336 418.919 149.695C418.874 149.86 418.837 150.031 418.792 150.196C418.77 150.278 418.717 150.726 418.643 150.771C418.658 150.764 418.441 149.949 418.419 149.86C418.329 149.464 418.239 149.075 418.15 148.679C418.097 148.44 418.06 148.298 417.828 148.201C417.477 148.066 417.066 148.006 416.707 147.917C416.378 147.834 416.042 147.745 415.713 147.655C415.698 147.655 415.541 147.625 415.541 147.61C415.541 147.61 415.796 147.55 415.781 147.55C415.982 147.506 416.184 147.461 416.378 147.408C416.715 147.334 417.044 147.252 417.38 147.177C417.634 147.117 417.97 147.117 418.105 146.863C418.247 146.594 418.284 146.205 418.359 145.906C418.456 145.525 418.553 145.144 418.65 144.763C418.65 144.785 418.717 144.509 418.717 144.509C418.747 144.524 418.755 144.643 418.762 144.666C418.807 144.83 418.837 145.002 418.882 145.167C418.972 145.54 419.054 145.914 419.143 146.287C419.203 146.557 419.211 146.915 419.48 147.057C419.786 147.214 420.212 147.252 420.548 147.341C420.653 147.371 421.804 147.625 421.796 147.67C421.796 147.737 420.78 147.939 420.668 147.969L420.944 148.126V148.103C420.87 147.819 420.429 147.939 420.503 148.223V148.245C420.541 148.365 420.668 148.432 420.787 148.402C421.184 148.298 421.662 148.245 422.035 148.074C422.275 147.961 422.394 147.677 422.237 147.438C422.05 147.162 421.58 147.132 421.296 147.057C420.84 146.938 420.376 146.818 419.921 146.699C419.637 146.624 419.704 146.691 419.644 146.407C419.599 146.198 419.547 145.989 419.502 145.779C419.39 145.309 419.33 144.778 419.158 144.33C419.076 144.105 418.867 143.948 418.62 144.016C418.269 144.105 418.247 144.531 418.172 144.823C418.06 145.264 417.94 145.712 417.828 146.153C417.798 146.265 417.783 146.429 417.731 146.534L417.716 146.594C417.716 146.661 417.694 146.676 417.641 146.639C417.455 146.751 417.103 146.758 416.894 146.811C416.446 146.915 415.997 147.005 415.549 147.124C415.287 147.192 415.041 147.341 415.078 147.648C415.123 147.976 415.459 148.036 415.728 148.103C416.184 148.223 416.64 148.343 417.096 148.455C417.215 148.485 417.634 148.529 417.716 148.612C417.604 148.499 417.731 148.813 417.738 148.836C417.761 148.925 417.776 149.008 417.798 149.097C417.918 149.605 418.03 150.121 418.15 150.629C418.217 150.928 418.321 151.287 418.703 151.235C419.084 151.182 419.121 150.779 419.196 150.48C419.323 149.979 419.45 149.471 419.577 148.97C419.599 148.896 419.622 148.649 419.674 148.589C419.577 148.686 419.838 148.582 419.891 148.567C420.19 148.499 420.489 148.432 420.787 148.365C421.086 148.298 420.952 147.864 420.668 147.924L420.645 147.961Z" fill="#EC3A0E"/>
<path d="M159.846 58.8023L160.486 56.3881L160.798 56.2732L161.406 58.7201L164.066 59.7382L161.554 60.4279L160.601 63.0226L159.764 60.4279L157.317 59.5247L159.846 58.8023Z" fill="#EC3A0E"/>
<path d="M162.645 59.9614C162.287 60.0436 161.913 60.1109 161.562 60.208C161.315 60.2753 161.256 60.3874 161.188 60.6265C161.091 60.9778 161.009 61.3365 160.919 61.6952C160.874 61.8596 160.837 62.0315 160.792 62.1959C160.77 62.2781 160.717 62.7264 160.643 62.7713C160.658 62.7638 160.441 61.9493 160.419 61.8596C160.329 61.4635 160.239 61.0749 160.15 60.6788C160.097 60.4397 160.06 60.2977 159.828 60.2006C159.477 60.0661 159.066 60.0063 158.707 59.9166C158.378 59.8344 158.042 59.7447 157.713 59.655C157.698 59.655 157.541 59.6252 157.541 59.6102C157.541 59.6102 157.796 59.5504 157.781 59.5504C157.982 59.5056 158.184 59.4608 158.378 59.4084C158.715 59.3337 159.044 59.2515 159.38 59.1768C159.634 59.117 159.97 59.117 160.105 58.8629C160.247 58.5939 160.284 58.2053 160.359 57.9064C160.456 57.5253 160.553 57.1441 160.65 56.763C160.65 56.7854 160.717 56.5089 160.717 56.5089C160.747 56.5239 160.755 56.6434 160.762 56.6659C160.807 56.8303 160.837 57.0021 160.882 57.1665C160.972 57.5402 161.054 57.9138 161.143 58.2875C161.203 58.5565 161.211 58.9152 161.48 59.0572C161.786 59.2141 162.212 59.2515 162.548 59.3412C162.653 59.3711 163.804 59.6252 163.796 59.67C163.796 59.7373 162.78 59.939 162.668 59.9689L162.944 60.1258V60.1034C162.87 59.8195 162.429 59.939 162.503 60.223V60.2454C162.541 60.365 162.668 60.4322 162.787 60.4023C163.184 60.2977 163.662 60.2454 164.035 60.0735C164.275 59.9614 164.394 59.6775 164.237 59.4383C164.05 59.1618 163.58 59.1319 163.296 59.0572C162.84 58.9376 162.376 58.8181 161.921 58.6985C161.637 58.6238 161.704 58.691 161.644 58.4071C161.599 58.1978 161.547 57.9886 161.502 57.7793C161.39 57.3085 161.33 56.778 161.158 56.3296C161.076 56.1054 160.867 55.9485 160.62 56.0157C160.269 56.1054 160.247 56.5313 160.172 56.8228C160.06 57.2637 159.94 57.7121 159.828 58.153C159.798 58.2651 159.783 58.4295 159.731 58.5341L159.716 58.5939C159.716 58.6611 159.694 58.6761 159.641 58.6387C159.455 58.7508 159.103 58.7583 158.894 58.8106C158.446 58.9152 157.997 59.0049 157.549 59.1245C157.287 59.1917 157.041 59.3412 157.078 59.6476C157.123 59.9764 157.459 60.0362 157.728 60.1034C158.184 60.223 158.64 60.3426 159.096 60.4547C159.215 60.4845 159.634 60.5294 159.716 60.6116C159.604 60.4995 159.731 60.8134 159.738 60.8358C159.761 60.9255 159.776 61.0077 159.798 61.0973C159.918 61.6055 160.03 62.1211 160.15 62.6293C160.217 62.9282 160.321 63.2869 160.703 63.2346C161.084 63.1823 161.121 62.7788 161.196 62.4798C161.323 61.9791 161.45 61.471 161.577 60.9703C161.599 60.8956 161.622 60.649 161.674 60.5892C161.577 60.6863 161.838 60.5817 161.891 60.5668C162.19 60.4995 162.489 60.4322 162.787 60.365C163.086 60.2977 162.952 59.8643 162.668 59.9241L162.645 59.9614Z" fill="#EC3A0E"/>
<path d="M529.846 20.8023L530.486 18.3881L530.798 18.2732L531.406 20.7201L534.066 21.7382L531.554 22.4279L530.601 25.0226L529.764 22.4279L527.317 21.5247L529.846 20.8023Z" fill="#EC3A0E"/>
<path d="M532.645 21.9614C532.287 22.0436 531.913 22.1109 531.562 22.208C531.315 22.2753 531.256 22.3874 531.188 22.6265C531.091 22.9778 531.009 23.3365 530.919 23.6952C530.874 23.8596 530.837 24.0315 530.792 24.1959C530.77 24.2781 530.717 24.7264 530.643 24.7713C530.658 24.7638 530.441 23.9493 530.419 23.8596C530.329 23.4635 530.239 23.0749 530.15 22.6788C530.097 22.4397 530.06 22.2977 529.828 22.2006C529.477 22.0661 529.066 22.0063 528.707 21.9166C528.378 21.8344 528.042 21.7447 527.713 21.655C527.698 21.655 527.541 21.6252 527.541 21.6102C527.541 21.6102 527.796 21.5504 527.781 21.5504C527.982 21.5056 528.184 21.4608 528.378 21.4084C528.715 21.3337 529.044 21.2515 529.38 21.1768C529.634 21.117 529.97 21.117 530.105 20.8629C530.247 20.5939 530.284 20.2053 530.359 19.9064C530.456 19.5253 530.553 19.1441 530.65 18.763C530.65 18.7854 530.717 18.5089 530.717 18.5089C530.747 18.5239 530.755 18.6434 530.762 18.6659C530.807 18.8303 530.837 19.0021 530.882 19.1665C530.972 19.5402 531.054 19.9138 531.143 20.2875C531.203 20.5565 531.211 20.9152 531.48 21.0572C531.786 21.2141 532.212 21.2515 532.548 21.3412C532.653 21.3711 533.804 21.6252 533.796 21.67C533.796 21.7373 532.78 21.939 532.668 21.9689L532.944 22.1258V22.1034C532.87 21.8195 532.429 21.939 532.503 22.223V22.2454C532.541 22.365 532.668 22.4322 532.787 22.4023C533.184 22.2977 533.662 22.2454 534.035 22.0735C534.275 21.9614 534.394 21.6775 534.237 21.4383C534.05 21.1618 533.58 21.1319 533.296 21.0572C532.84 20.9376 532.376 20.8181 531.921 20.6985C531.637 20.6238 531.704 20.691 531.644 20.4071C531.599 20.1978 531.547 19.9886 531.502 19.7793C531.39 19.3085 531.33 18.778 531.158 18.3296C531.076 18.1054 530.867 17.9485 530.62 18.0157C530.269 18.1054 530.247 18.5313 530.172 18.8228C530.06 19.2637 529.94 19.7121 529.828 20.153C529.798 20.2651 529.783 20.4295 529.731 20.5341L529.716 20.5939C529.716 20.6611 529.694 20.6761 529.641 20.6387C529.455 20.7508 529.103 20.7583 528.894 20.8106C528.446 20.9152 527.997 21.0049 527.549 21.1245C527.287 21.1917 527.041 21.3412 527.078 21.6476C527.123 21.9764 527.459 22.0362 527.728 22.1034C528.184 22.223 528.64 22.3426 529.096 22.4547C529.215 22.4845 529.634 22.5294 529.716 22.6116C529.604 22.4995 529.731 22.8134 529.738 22.8358C529.761 22.9255 529.776 23.0077 529.798 23.0973C529.918 23.6055 530.03 24.1211 530.15 24.6293C530.217 24.9282 530.321 25.2869 530.703 25.2346C531.084 25.1823 531.121 24.7788 531.196 24.4798C531.323 23.9791 531.45 23.471 531.577 22.9703C531.599 22.8956 531.622 22.649 531.674 22.5892C531.577 22.6863 531.838 22.5817 531.891 22.5668C532.19 22.4995 532.489 22.4322 532.787 22.365C533.086 22.2977 532.952 21.8643 532.668 21.9241L532.645 21.9614Z" fill="#EC3A0E"/>
<path d="M460.846 154.802L461.486 152.388L461.798 152.273L462.406 154.72L465.066 155.738L462.554 156.428L461.601 159.023L460.764 156.428L458.317 155.525L460.846 154.802Z" fill="#EC3A0E"/>
<path d="M463.645 155.961C463.287 156.044 462.913 156.111 462.562 156.208C462.315 156.275 462.256 156.387 462.188 156.627C462.091 156.978 462.009 157.336 461.919 157.695C461.874 157.86 461.837 158.031 461.792 158.196C461.77 158.278 461.717 158.726 461.643 158.771C461.658 158.764 461.441 157.949 461.419 157.86C461.329 157.464 461.239 157.075 461.15 156.679C461.097 156.44 461.06 156.298 460.828 156.201C460.477 156.066 460.066 156.006 459.707 155.917C459.378 155.834 459.042 155.745 458.713 155.655C458.698 155.655 458.541 155.625 458.541 155.61C458.541 155.61 458.796 155.55 458.781 155.55C458.982 155.506 459.184 155.461 459.378 155.408C459.715 155.334 460.044 155.252 460.38 155.177C460.634 155.117 460.97 155.117 461.105 154.863C461.247 154.594 461.284 154.205 461.359 153.906C461.456 153.525 461.553 153.144 461.65 152.763C461.65 152.785 461.717 152.509 461.717 152.509C461.747 152.524 461.755 152.643 461.762 152.666C461.807 152.83 461.837 153.002 461.882 153.167C461.972 153.54 462.054 153.914 462.143 154.287C462.203 154.557 462.211 154.915 462.48 155.057C462.786 155.214 463.212 155.252 463.548 155.341C463.653 155.371 464.804 155.625 464.796 155.67C464.796 155.737 463.78 155.939 463.668 155.969L463.944 156.126V156.103C463.87 155.819 463.429 155.939 463.503 156.223V156.245C463.541 156.365 463.668 156.432 463.787 156.402C464.184 156.298 464.662 156.245 465.035 156.074C465.275 155.961 465.394 155.677 465.237 155.438C465.05 155.162 464.58 155.132 464.296 155.057C463.84 154.938 463.376 154.818 462.921 154.699C462.637 154.624 462.704 154.691 462.644 154.407C462.599 154.198 462.547 153.989 462.502 153.779C462.39 153.309 462.33 152.778 462.158 152.33C462.076 152.105 461.867 151.948 461.62 152.016C461.269 152.105 461.247 152.531 461.172 152.823C461.06 153.264 460.94 153.712 460.828 154.153C460.798 154.265 460.783 154.429 460.731 154.534L460.716 154.594C460.716 154.661 460.694 154.676 460.641 154.639C460.455 154.751 460.103 154.758 459.894 154.811C459.446 154.915 458.997 155.005 458.549 155.124C458.287 155.192 458.041 155.341 458.078 155.648C458.123 155.976 458.459 156.036 458.728 156.103C459.184 156.223 459.64 156.343 460.096 156.455C460.215 156.485 460.634 156.529 460.716 156.612C460.604 156.499 460.731 156.813 460.738 156.836C460.761 156.925 460.776 157.008 460.798 157.097C460.918 157.605 461.03 158.121 461.15 158.629C461.217 158.928 461.321 159.287 461.703 159.235C462.084 159.182 462.121 158.779 462.196 158.48C462.323 157.979 462.45 157.471 462.577 156.97C462.599 156.896 462.622 156.649 462.674 156.589C462.577 156.686 462.838 156.582 462.891 156.567C463.19 156.499 463.489 156.432 463.787 156.365C464.086 156.298 463.952 155.864 463.668 155.924L463.645 155.961Z" fill="#EC3A0E"/>
<path d="M93.8458 101.802L94.4859 99.3881L94.7981 99.2732L95.4057 101.72L98.0661 102.738L95.5535 103.428L94.601 106.023L93.7635 103.428L91.3165 102.525L93.8458 101.802Z" fill="#EC3A0E"/>
<path d="M96.6455 102.961C96.2868 103.044 95.9131 103.111 95.5619 103.208C95.3153 103.275 95.2555 103.387 95.1882 103.627C95.0911 103.978 95.0089 104.336 94.9192 104.695C94.8744 104.86 94.837 105.031 94.7922 105.196C94.7698 105.278 94.7174 105.726 94.6427 105.771C94.6577 105.764 94.4409 104.949 94.4185 104.86C94.3289 104.464 94.2392 104.075 94.1495 103.679C94.0972 103.44 94.0598 103.298 93.8282 103.201C93.4769 103.066 93.0659 103.006 92.7072 102.917C92.3784 102.834 92.0421 102.745 91.7133 102.655C91.6984 102.655 91.5414 102.625 91.5414 102.61C91.5414 102.61 91.7955 102.55 91.7806 102.55C91.9823 102.506 92.1841 102.461 92.3784 102.408C92.7147 102.334 93.0435 102.252 93.3798 102.177C93.6339 102.117 93.9701 102.117 94.1047 101.863C94.2466 101.594 94.284 101.205 94.3587 100.906C94.4559 100.525 94.553 100.144 94.6502 99.763C94.6502 99.7854 94.7174 99.5089 94.7174 99.5089C94.7473 99.5239 94.7548 99.6434 94.7623 99.6659C94.8071 99.8303 94.837 100.002 94.8819 100.167C94.9715 100.54 95.0537 100.914 95.1434 101.287C95.2032 101.557 95.2107 101.915 95.4797 102.057C95.7861 102.214 96.212 102.252 96.5483 102.341C96.6529 102.371 97.8038 102.625 97.7963 102.67C97.7963 102.737 96.78 102.939 96.6679 102.969L96.9444 103.126V103.103C96.8697 102.819 96.4288 102.939 96.5035 103.223V103.245C96.5409 103.365 96.6679 103.432 96.7875 103.402C97.1835 103.298 97.6618 103.245 98.0354 103.074C98.2746 102.961 98.3941 102.677 98.2372 102.438C98.0504 102.162 97.5796 102.132 97.2956 102.057C96.8398 101.938 96.3764 101.818 95.9206 101.699C95.6366 101.624 95.7039 101.691 95.6441 101.407C95.5993 101.198 95.5469 100.989 95.5021 100.779C95.39 100.309 95.3302 99.778 95.1584 99.3296C95.0761 99.1054 94.8669 98.9485 94.6203 99.0157C94.2691 99.1054 94.2466 99.5313 94.1719 99.8228C94.0598 100.264 93.9403 100.712 93.8282 101.153C93.7983 101.265 93.7833 101.429 93.731 101.534L93.7161 101.594C93.7161 101.661 93.6936 101.676 93.6413 101.639C93.4545 101.751 93.1033 101.758 92.894 101.811C92.4457 101.915 91.9973 102.005 91.5489 102.124C91.2874 102.192 91.0407 102.341 91.0781 102.648C91.1229 102.976 91.4592 103.036 91.7283 103.103C92.1841 103.223 92.64 103.343 93.0958 103.455C93.2154 103.485 93.6339 103.529 93.7161 103.612C93.604 103.499 93.731 103.813 93.7385 103.836C93.7609 103.925 93.7759 104.008 93.7983 104.097C93.9178 104.605 94.0299 105.121 94.1495 105.629C94.2168 105.928 94.3214 106.287 94.7025 106.235C95.0836 106.182 95.121 105.779 95.1957 105.48C95.3228 104.979 95.4498 104.471 95.5768 103.97C95.5993 103.896 95.6217 103.649 95.674 103.589C95.5768 103.686 95.8384 103.582 95.8907 103.567C96.1896 103.499 96.4885 103.432 96.7875 103.365C97.0864 103.298 96.9519 102.864 96.6679 102.924L96.6455 102.961Z" fill="#EC3A0E"/>
<path d="M205.24 168.281C204.851 168.371 204.443 168.44 204.054 168.55C203.765 168.63 203.686 168.769 203.606 169.048C203.496 169.437 203.407 169.825 203.307 170.214C203.267 170.383 202.968 171.35 203.058 171.39C203.128 171.42 203.008 171.001 202.998 170.941C202.958 170.762 202.918 170.583 202.869 170.403C202.769 169.975 202.669 169.546 202.57 169.118C202.51 168.849 202.46 168.65 202.181 168.56C201.782 168.43 201.364 168.351 200.955 168.251C200.617 168.161 200.218 167.982 199.869 167.972C199.849 167.972 199.61 167.872 199.68 168.032C199.68 168.032 199.959 167.962 199.939 167.972C200.158 167.922 200.377 167.872 200.597 167.822C200.955 167.743 201.324 167.653 201.683 167.573C201.972 167.504 202.37 167.504 202.51 167.195C202.649 166.886 202.699 166.487 202.789 166.148C202.898 165.73 202.998 165.321 203.108 164.903C203.108 164.923 203.177 164.624 203.177 164.624C203.028 164.564 203.118 164.763 203.118 164.793C203.118 164.963 203.207 165.172 203.247 165.341C203.347 165.75 203.436 166.158 203.526 166.567C203.596 166.876 203.606 167.294 203.935 167.444C204.283 167.603 204.722 167.653 205.101 167.753C205.549 167.872 206.007 168.012 206.466 168.111C206.296 168.082 206.575 168.042 206.276 168.062C206.147 168.072 206.007 168.131 205.888 168.161C205.669 168.221 205.449 168.271 205.24 168.331L205.609 168.54V168.51C205.509 168.131 204.921 168.291 205.021 168.669V168.699C205.071 168.859 205.24 168.948 205.4 168.909C205.698 168.829 206.007 168.749 206.306 168.669C206.516 168.62 206.745 168.6 206.914 168.45C207.213 168.191 207.103 167.743 206.775 167.573C206.565 167.464 206.306 167.434 206.087 167.374C205.768 167.294 205.449 167.205 205.13 167.125C204.861 167.055 204.582 166.946 204.313 166.916C204.154 166.856 204.134 166.866 204.244 166.946L204.214 166.806C204.214 166.657 204.134 166.477 204.104 166.328C203.975 165.76 203.845 165.192 203.706 164.624C203.616 164.245 203.367 163.867 202.918 164.046C202.5 164.225 202.47 164.903 202.38 165.272C202.231 165.84 202.131 166.457 201.922 167.005L202.061 166.826C201.912 166.916 201.683 166.926 201.513 166.966C201.334 167.005 201.155 167.045 200.965 167.095C200.607 167.175 200.248 167.254 199.899 167.344C199.5 167.434 198.883 167.623 199.132 168.181C199.212 168.361 199.391 168.45 199.57 168.51C199.919 168.63 200.298 168.699 200.656 168.789C200.975 168.869 201.294 168.948 201.603 169.028L201.872 169.098C202.031 169.168 202.051 169.148 201.932 169.058C202.022 169.188 202.022 169.477 202.061 169.626C202.151 170.005 202.241 170.393 202.33 170.772C202.4 171.061 202.43 171.38 202.55 171.649C202.719 172.037 203.247 172.137 203.506 171.758C203.676 171.509 203.696 171.141 203.775 170.852C203.855 170.533 203.935 170.214 204.024 169.895C204.074 169.716 204.114 169.526 204.164 169.347L204.234 169.068C204.114 169.158 204.134 169.178 204.293 169.118C204.642 169.118 205.061 168.938 205.409 168.859C205.788 168.769 205.629 168.191 205.25 168.271L205.24 168.281Z" fill="#002EA4"/>
</svg>
