<svg width="24" height="24" viewBox="0 0 24 24" fill="none" xmlns="http://www.w3.org/2000/svg">
<path d="M22.0328 17.6458L13.8885 3.34413C12.8066 1.4556 11.1935 1.4556 10.1115 3.34413L1.96723 17.6261C0.885261 19.5146 1.69182 20.8917 3.85575 20.8917L20.1246 20.9113C22.2885 20.9113 23.1148 19.5343 22.0328 17.6458ZM22.0721 19.3376L1.92788 19.3179L2.38034 20.0851L12 3.20642L21.6197 20.1048L22.0721 19.3376ZM12.059 15.7572C12.6885 15.7572 13.1803 16.249 13.1803 16.8786C13.1803 17.4884 12.6885 17.9999 12.059 17.9999C11.4295 17.9999 10.9377 17.4884 10.9377 16.8786C10.9377 16.249 11.4295 15.7572 12.059 15.7572ZM11.2721 9.20642V14.2622H12.8459L12.8262 9.20642H11.2721Z" fill="#9F5200"/>
</svg>
